<svg width="1302" height="1250" viewBox="0 0 1302 1250" fill="none" xmlns="http://www.w3.org/2000/svg">
<rect width="1302" height="1250" fill="#023047"/>
<mask id="mask0_7033_154613" style="mask-type:alpha" maskUnits="userSpaceOnUse" x="200" y="144" width="876" height="620">
<path d="M757.999 145.445C640.132 200.408 456.753 329.735 374.982 391.113C372.472 392.997 371.075 395.898 371.075 399.037V418.823L243.568 452.34C238.944 453.555 234.106 451.327 232.024 447.024L226.403 435.407C224.905 432.312 225.102 428.666 226.924 425.751L258.387 375.411C258.671 374.956 259.126 374.635 259.649 374.518L286.13 368.634C286.501 368.551 286.841 368.365 287.11 368.096L314.859 340.347C315.171 340.035 315.372 339.631 315.422 339.193C316.641 328.401 313.665 315.61 310.833 306.999C310.203 305.084 307.516 305.363 307.048 307.325C304.362 318.596 300.161 324.072 297.872 325.71C297.654 325.867 297.399 325.951 297.133 325.989L260.059 331.179C259.307 331.284 258.679 331.807 258.439 332.527L248.929 361.058C248.823 361.375 248.657 361.641 248.419 361.875C239.375 370.749 215.258 410.009 202.265 432.002C200.816 434.455 200.501 437.404 201.377 440.115L214.592 481.02C215.63 484.233 218.228 486.664 221.602 486.782C245.114 487.603 320.635 476.256 358.689 469.914L321.533 694.401C337.738 724.65 359.047 750.423 371.076 763.193C371.863 764.028 374.475 762.618 374.357 761.477C372.771 746.039 374.248 709.428 375.513 687.763C375.644 685.533 375.032 683.337 373.766 681.496L367.204 671.952C405.651 624.99 487.344 528.125 506.541 516.359C530.538 501.651 655.941 493.911 685.357 485.396C708.889 478.583 774.12 445.917 803.793 430.435L764.314 490.04H732.574C727.338 490.04 722.988 494.079 722.601 499.301L719.892 535.883C719.33 543.467 727.102 548.877 734.019 545.718L781.344 524.1C809.212 498.091 841.982 450.819 854.883 430.435L810.76 383.215L866.495 346.059V434.816C866.495 437.912 867.928 440.833 870.377 442.726L914.415 476.783C919.563 480.764 927.082 478.845 929.693 472.884L965.579 390.956C976.106 402.722 993.704 409.276 1001.19 411.083C1025.96 405.509 1046.6 386.57 1053.83 377.796C1043.92 383.37 1014.6 385.795 1001.19 386.312L976.416 361.541L981.061 349.929C989.111 357.98 1010.51 367.379 1023.64 366.185C1048.88 363.89 1066.57 338.155 1075.2 325.598L1075.5 325.158C1063.11 335.686 1033.7 344.51 1025.18 342.188C1017.11 339.985 999.381 323.352 991.124 317.417L993.386 308.822C994.368 305.088 993.137 301.132 990.157 298.678C930.969 249.93 820.504 178.817 767.277 146.018C764.446 144.274 761.013 144.039 757.999 145.445Z" fill="#08415C" stroke="#9845DB"/>
</mask>
<g mask="url(#mask0_7033_154613)">
<rect x="303.729" y="99.8975" width="108.373" height="668.817" rx="10" fill="white"/>
<rect x="164.391" y="99.8975" width="108.373" height="668.817" rx="10" fill="white"/>
<rect x="582.402" y="99.8975" width="108.373" height="668.817" rx="10" fill="white"/>
<rect x="728.061" y="122" width="108.373" height="668.817" rx="10" fill="white"/>
<rect x="861.076" y="99.8975" width="108.373" height="668.817" rx="10" fill="white"/>
<rect x="1000.41" y="99.8975" width="108.373" height="668.817" rx="10" fill="white"/>
<rect x="443.066" y="99.8975" width="108.373" height="668.817" rx="10" fill="white"/>
</g>
<path d="M380.625 891V1073H343.25V891H380.625ZM436.625 891V920.375H288.125V891H436.625ZM571.125 936.625L564.75 960.875H446.875L453.375 936.625H571.125ZM510.75 1073L450.5 1001.62L450.375 980.25H479.75C486.583 980.25 492.208 978.917 496.625 976.25C501.042 973.583 504.333 970 506.5 965.5C508.667 960.917 509.75 955.833 509.75 950.25C509.75 944.417 508.75 939.25 506.75 934.75C504.75 930.25 501.542 926.75 497.125 924.25C492.708 921.667 486.833 920.375 479.5 920.375H447L454.375 891H479.5C494.5 891 507 893.25 517 897.75C527 902.25 534.5 908.75 539.5 917.25C544.5 925.667 547 935.875 547 947.875C547 958.375 545.333 967.583 542 975.5C538.667 983.417 533.375 989.958 526.125 995.125C518.875 1000.21 509.333 1003.79 497.5 1005.88L551.75 1071.25V1073H510.75ZM571.375 891L564.875 915.125H467.25L473.75 891H571.375ZM636.148 893.288V1073H592.372V893.288H636.148ZM776.672 980.84C787.083 983.059 795.445 988.264 801.76 996.456C808.075 1004.48 811.232 1013.69 811.232 1024.1C811.232 1039.12 805.941 1051.07 795.36 1059.94C784.949 1068.65 770.357 1073 751.584 1073H667.872V893.288H748.768C767.029 893.288 781.28 897.469 791.52 905.832C801.931 914.195 807.136 925.544 807.136 939.88C807.136 950.461 804.32 959.251 798.688 966.248C793.227 973.245 785.888 978.109 776.672 980.84ZM711.648 965.992H740.32C747.488 965.992 752.949 964.456 756.704 961.384C760.629 958.141 762.592 953.448 762.592 947.304C762.592 941.16 760.629 936.467 756.704 933.224C752.949 929.981 747.488 928.36 740.32 928.36H711.648V965.992ZM743.904 1037.67C751.243 1037.67 756.875 1036.05 760.8 1032.81C764.896 1029.39 766.944 1024.53 766.944 1018.22C766.944 1011.9 764.811 1006.95 760.544 1003.37C756.448 999.784 750.731 997.992 743.392 997.992H711.648V1037.67H743.904ZM880.398 928.36V964.712H939.022V998.504H880.398V1037.93H946.702V1073H836.622V893.288H946.702V928.36H880.398Z" fill="white"/>
<path d="M382.245 1124.43C380.805 1124.43 379.621 1124.02 378.693 1123.18C377.797 1122.32 377.349 1121.26 377.349 1120.02C377.349 1118.74 377.797 1117.68 378.693 1116.85C379.621 1115.98 380.805 1115.55 382.245 1115.55C383.653 1115.55 384.805 1115.98 385.701 1116.85C386.629 1117.68 387.093 1118.74 387.093 1120.02C387.093 1121.26 386.629 1122.32 385.701 1123.18C384.805 1124.02 383.653 1124.43 382.245 1124.43ZM386.325 1127.22V1154H378.117V1127.22H386.325ZM408.593 1126.93C411.729 1126.93 414.225 1127.95 416.081 1130C417.969 1132.02 418.913 1134.8 418.913 1138.35V1154H410.753V1139.46C410.753 1137.66 410.289 1136.27 409.361 1135.28C408.433 1134.29 407.185 1133.79 405.617 1133.79C404.049 1133.79 402.801 1134.29 401.873 1135.28C400.945 1136.27 400.481 1137.66 400.481 1139.46V1154H392.273V1127.22H400.481V1130.77C401.313 1129.58 402.433 1128.66 403.841 1127.98C405.249 1127.28 406.833 1126.93 408.593 1126.93ZM436.665 1146.32L442.473 1127.22H451.209L441.705 1154H431.577L422.073 1127.22H430.857L436.665 1146.32ZM479.911 1140.18C479.911 1140.94 479.864 1141.74 479.768 1142.58H461.192C461.32 1144.24 461.848 1145.52 462.776 1146.42C463.736 1147.28 464.904 1147.71 466.28 1147.71C468.328 1147.71 469.752 1146.85 470.552 1145.12H479.288C478.84 1146.88 478.024 1148.46 476.84 1149.87C475.688 1151.28 474.232 1152.38 472.472 1153.18C470.712 1153.98 468.744 1154.38 466.568 1154.38C463.944 1154.38 461.608 1153.82 459.56 1152.7C457.512 1151.58 455.912 1149.98 454.76 1147.9C453.608 1145.82 453.032 1143.39 453.032 1140.61C453.032 1137.82 453.592 1135.39 454.712 1133.31C455.864 1131.23 457.464 1129.63 459.512 1128.51C461.56 1127.39 463.912 1126.83 466.568 1126.83C469.16 1126.83 471.464 1127.38 473.48 1128.46C475.496 1129.55 477.064 1131.1 478.184 1133.12C479.336 1135.14 479.911 1137.49 479.911 1140.18ZM471.512 1138.02C471.512 1136.61 471.032 1135.49 470.072 1134.66C469.112 1133.82 467.912 1133.41 466.472 1133.41C465.096 1133.41 463.928 1133.81 462.968 1134.61C462.04 1135.41 461.464 1136.54 461.24 1138.02H471.512ZM495.138 1154.38C492.802 1154.38 490.722 1153.98 488.898 1153.18C487.074 1152.38 485.634 1151.3 484.578 1149.92C483.522 1148.51 482.93 1146.94 482.802 1145.22H490.914C491.01 1146.14 491.442 1146.9 492.21 1147.47C492.978 1148.05 493.922 1148.34 495.042 1148.34C496.066 1148.34 496.85 1148.14 497.394 1147.76C497.97 1147.34 498.258 1146.82 498.258 1146.18C498.258 1145.41 497.858 1144.85 497.058 1144.5C496.258 1144.11 494.962 1143.7 493.17 1143.25C491.25 1142.8 489.65 1142.34 488.37 1141.86C487.09 1141.34 485.986 1140.56 485.058 1139.5C484.13 1138.42 483.666 1136.96 483.666 1135.14C483.666 1133.6 484.082 1132.21 484.914 1130.96C485.778 1129.68 487.026 1128.67 488.658 1127.94C490.322 1127.2 492.29 1126.83 494.562 1126.83C497.922 1126.83 500.562 1127.66 502.482 1129.33C504.434 1130.99 505.554 1133.2 505.842 1135.95H498.258C498.13 1135.02 497.714 1134.29 497.01 1133.74C496.338 1133.2 495.442 1132.93 494.322 1132.93C493.362 1132.93 492.626 1133.12 492.114 1133.5C491.602 1133.86 491.346 1134.35 491.346 1134.99C491.346 1135.76 491.746 1136.34 492.546 1136.72C493.378 1137.1 494.658 1137.49 496.386 1137.87C498.37 1138.38 499.986 1138.9 501.234 1139.41C502.482 1139.89 503.57 1140.69 504.498 1141.81C505.458 1142.9 505.954 1144.37 505.986 1146.22C505.986 1147.79 505.538 1149.2 504.642 1150.45C503.778 1151.66 502.514 1152.62 500.85 1153.33C499.218 1154.03 497.314 1154.38 495.138 1154.38ZM525.935 1147.04V1154H521.759C518.783 1154 516.463 1153.28 514.799 1151.84C513.135 1150.37 512.303 1147.98 512.303 1144.69V1134.03H509.039V1127.22H512.303V1120.69H520.511V1127.22H525.887V1134.03H520.511V1144.78C520.511 1145.58 520.703 1146.16 521.087 1146.51C521.471 1146.86 522.111 1147.04 523.007 1147.04H525.935ZM548.887 1131.01C549.655 1129.76 550.759 1128.75 552.199 1127.98C553.639 1127.22 555.287 1126.83 557.143 1126.83C559.351 1126.83 561.351 1127.39 563.143 1128.51C564.935 1129.63 566.343 1131.23 567.367 1133.31C568.423 1135.39 568.951 1137.81 568.951 1140.56C568.951 1143.31 568.423 1145.74 567.367 1147.86C566.343 1149.94 564.935 1151.55 563.143 1152.7C561.351 1153.82 559.351 1154.38 557.143 1154.38C555.255 1154.38 553.607 1154.02 552.199 1153.28C550.791 1152.51 549.687 1151.5 548.887 1150.26V1154H540.679V1118.48H548.887V1131.01ZM560.599 1140.56C560.599 1138.51 560.023 1136.91 558.871 1135.76C557.751 1134.58 556.359 1133.98 554.695 1133.98C553.063 1133.98 551.671 1134.58 550.519 1135.76C549.399 1136.94 548.839 1138.56 548.839 1140.61C548.839 1142.66 549.399 1144.27 550.519 1145.46C551.671 1146.64 553.063 1147.23 554.695 1147.23C556.327 1147.23 557.719 1146.64 558.871 1145.46C560.023 1144.24 560.599 1142.61 560.599 1140.56ZM598.505 1140.18C598.505 1140.94 598.457 1141.74 598.361 1142.58H579.785C579.913 1144.24 580.441 1145.52 581.369 1146.42C582.329 1147.28 583.497 1147.71 584.873 1147.71C586.921 1147.71 588.345 1146.85 589.145 1145.12H597.881C597.433 1146.88 596.617 1148.46 595.433 1149.87C594.281 1151.28 592.825 1152.38 591.065 1153.18C589.305 1153.98 587.337 1154.38 585.161 1154.38C582.537 1154.38 580.201 1153.82 578.153 1152.7C576.105 1151.58 574.505 1149.98 573.353 1147.9C572.201 1145.82 571.625 1143.39 571.625 1140.61C571.625 1137.82 572.185 1135.39 573.305 1133.31C574.457 1131.23 576.057 1129.63 578.105 1128.51C580.153 1127.39 582.505 1126.83 585.161 1126.83C587.753 1126.83 590.057 1127.38 592.073 1128.46C594.089 1129.55 595.657 1131.1 596.777 1133.12C597.929 1135.14 598.505 1137.49 598.505 1140.18ZM590.105 1138.02C590.105 1136.61 589.625 1135.49 588.665 1134.66C587.705 1133.82 586.505 1133.41 585.065 1133.41C583.689 1133.41 582.521 1133.81 581.561 1134.61C580.633 1135.41 580.057 1136.54 579.833 1138.02H590.105ZM617.763 1147.04V1154H613.587C610.611 1154 608.291 1153.28 606.627 1151.84C604.963 1150.37 604.131 1147.98 604.131 1144.69V1134.03H600.867V1127.22H604.131V1120.69H612.339V1127.22H617.715V1134.03H612.339V1144.78C612.339 1145.58 612.531 1146.16 612.915 1146.51C613.299 1146.86 613.939 1147.04 614.835 1147.04H617.763ZM637.263 1147.04V1154H633.087C630.111 1154 627.791 1153.28 626.127 1151.84C624.463 1150.37 623.631 1147.98 623.631 1144.69V1134.03H620.367V1127.22H623.631V1120.69H631.839V1127.22H637.215V1134.03H631.839V1144.78C631.839 1145.58 632.031 1146.16 632.415 1146.51C632.799 1146.86 633.439 1147.04 634.335 1147.04H637.263ZM667.083 1140.18C667.083 1140.94 667.035 1141.74 666.939 1142.58H648.363C648.491 1144.24 649.019 1145.52 649.947 1146.42C650.907 1147.28 652.075 1147.71 653.451 1147.71C655.499 1147.71 656.923 1146.85 657.723 1145.12H666.459C666.011 1146.88 665.195 1148.46 664.011 1149.87C662.859 1151.28 661.403 1152.38 659.643 1153.18C657.883 1153.98 655.915 1154.38 653.739 1154.38C651.115 1154.38 648.779 1153.82 646.731 1152.7C644.683 1151.58 643.083 1149.98 641.931 1147.9C640.779 1145.82 640.203 1143.39 640.203 1140.61C640.203 1137.82 640.763 1135.39 641.883 1133.31C643.035 1131.23 644.635 1129.63 646.683 1128.51C648.731 1127.39 651.083 1126.83 653.739 1126.83C656.331 1126.83 658.635 1127.38 660.651 1128.46C662.667 1129.55 664.235 1131.1 665.355 1133.12C666.507 1135.14 667.083 1137.49 667.083 1140.18ZM658.683 1138.02C658.683 1136.61 658.203 1135.49 657.243 1134.66C656.283 1133.82 655.083 1133.41 653.643 1133.41C652.267 1133.41 651.099 1133.81 650.139 1134.61C649.211 1135.41 648.635 1136.54 648.411 1138.02H658.683ZM679.622 1131.68C680.582 1130.21 681.782 1129.06 683.222 1128.22C684.662 1127.36 686.262 1126.93 688.022 1126.93V1135.62H685.766C683.718 1135.62 682.182 1136.06 681.158 1136.96C680.134 1137.82 679.622 1139.36 679.622 1141.57V1154H671.414V1127.22H679.622V1131.68ZM695.785 1154.38C694.345 1154.38 693.161 1153.97 692.233 1153.14C691.337 1152.27 690.889 1151.22 690.889 1149.97C690.889 1148.69 691.337 1147.62 692.233 1146.75C693.161 1145.89 694.345 1145.46 695.785 1145.46C697.193 1145.46 698.345 1145.89 699.241 1146.75C700.169 1147.62 700.633 1148.69 700.633 1149.97C700.633 1151.22 700.169 1152.27 699.241 1153.14C698.345 1153.97 697.193 1154.38 695.785 1154.38ZM730.592 1147.04V1154H726.416C723.44 1154 721.12 1153.28 719.456 1151.84C717.792 1150.37 716.96 1147.98 716.96 1144.69V1134.03H713.696V1127.22H716.96V1120.69H725.168V1127.22H730.544V1134.03H725.168V1144.78C725.168 1145.58 725.36 1146.16 725.744 1146.51C726.128 1146.86 726.768 1147.04 727.664 1147.04H730.592ZM747.356 1154.38C744.732 1154.38 742.364 1153.82 740.252 1152.7C738.172 1151.58 736.524 1149.98 735.308 1147.9C734.124 1145.82 733.532 1143.39 733.532 1140.61C733.532 1137.86 734.14 1135.44 735.355 1133.36C736.572 1131.25 738.236 1129.63 740.348 1128.51C742.46 1127.39 744.828 1126.83 747.452 1126.83C750.076 1126.83 752.444 1127.39 754.556 1128.51C756.668 1129.63 758.332 1131.25 759.548 1133.36C760.764 1135.44 761.372 1137.86 761.372 1140.61C761.372 1143.36 760.748 1145.79 759.5 1147.9C758.284 1149.98 756.604 1151.58 754.46 1152.7C752.348 1153.82 749.98 1154.38 747.356 1154.38ZM747.356 1147.28C748.924 1147.28 750.252 1146.7 751.34 1145.55C752.46 1144.4 753.02 1142.75 753.02 1140.61C753.02 1138.46 752.476 1136.82 751.388 1135.66C750.332 1134.51 749.02 1133.94 747.452 1133.94C745.852 1133.94 744.524 1134.51 743.468 1135.66C742.412 1136.78 741.884 1138.43 741.884 1140.61C741.884 1142.75 742.396 1144.4 743.42 1145.55C744.476 1146.7 745.788 1147.28 747.356 1147.28ZM775.902 1126.83C777.79 1126.83 779.438 1127.22 780.846 1127.98C782.286 1128.75 783.39 1129.76 784.158 1131.01V1127.22H792.366V1153.95C792.366 1156.42 791.87 1158.64 790.878 1160.62C789.918 1162.64 788.43 1164.24 786.414 1165.42C784.43 1166.61 781.95 1167.2 778.974 1167.2C775.006 1167.2 771.79 1166.26 769.326 1164.37C766.862 1162.51 765.454 1159.98 765.102 1156.78H773.214C773.47 1157.81 774.078 1158.61 775.038 1159.18C775.998 1159.79 777.182 1160.1 778.59 1160.1C780.286 1160.1 781.63 1159.6 782.622 1158.61C783.646 1157.65 784.158 1156.1 784.158 1153.95V1150.16C783.358 1151.41 782.254 1152.43 780.846 1153.23C779.438 1154 777.79 1154.38 775.902 1154.38C773.694 1154.38 771.694 1153.82 769.902 1152.7C768.11 1151.55 766.686 1149.94 765.63 1147.86C764.606 1145.74 764.094 1143.31 764.094 1140.56C764.094 1137.81 764.606 1135.39 765.63 1133.31C766.686 1131.23 768.11 1129.63 769.902 1128.51C771.694 1127.39 773.694 1126.83 775.902 1126.83ZM784.158 1140.61C784.158 1138.56 783.582 1136.94 782.43 1135.76C781.31 1134.58 779.934 1133.98 778.302 1133.98C776.67 1133.98 775.278 1134.58 774.126 1135.76C773.006 1136.91 772.446 1138.51 772.446 1140.56C772.446 1142.61 773.006 1144.24 774.126 1145.46C775.278 1146.64 776.67 1147.23 778.302 1147.23C779.934 1147.23 781.31 1146.64 782.43 1145.46C783.582 1144.27 784.158 1142.66 784.158 1140.61ZM823.552 1140.18C823.552 1140.94 823.504 1141.74 823.408 1142.58H804.832C804.96 1144.24 805.488 1145.52 806.416 1146.42C807.376 1147.28 808.544 1147.71 809.92 1147.71C811.968 1147.71 813.392 1146.85 814.192 1145.12H822.928C822.48 1146.88 821.664 1148.46 820.48 1149.87C819.328 1151.28 817.872 1152.38 816.112 1153.18C814.352 1153.98 812.384 1154.38 810.208 1154.38C807.584 1154.38 805.248 1153.82 803.2 1152.7C801.152 1151.58 799.552 1149.98 798.4 1147.9C797.248 1145.82 796.672 1143.39 796.672 1140.61C796.672 1137.82 797.232 1135.39 798.352 1133.31C799.504 1131.23 801.104 1129.63 803.152 1128.51C805.2 1127.39 807.552 1126.83 810.208 1126.83C812.8 1126.83 815.104 1127.38 817.12 1128.46C819.136 1129.55 820.704 1131.1 821.824 1133.12C822.976 1135.14 823.552 1137.49 823.552 1140.18ZM815.152 1138.02C815.152 1136.61 814.672 1135.49 813.712 1134.66C812.752 1133.82 811.552 1133.41 810.112 1133.41C808.736 1133.41 807.568 1133.81 806.608 1134.61C805.68 1135.41 805.104 1136.54 804.88 1138.02H815.152ZM842.81 1147.04V1154H838.634C835.658 1154 833.338 1153.28 831.674 1151.84C830.01 1150.37 829.178 1147.98 829.178 1144.69V1134.03H825.914V1127.22H829.178V1120.69H837.386V1127.22H842.762V1134.03H837.386V1144.78C837.386 1145.58 837.578 1146.16 837.962 1146.51C838.346 1146.86 838.986 1147.04 839.882 1147.04H842.81ZM863.846 1126.93C866.918 1126.93 869.382 1127.95 871.238 1130C873.094 1132.02 874.022 1134.8 874.022 1138.35V1154H865.862V1139.46C865.862 1137.66 865.398 1136.27 864.47 1135.28C863.542 1134.29 862.294 1133.79 860.726 1133.79C859.158 1133.79 857.91 1134.29 856.982 1135.28C856.054 1136.27 855.59 1137.66 855.59 1139.46V1154H847.382V1118.48H855.59V1130.82C856.422 1129.63 857.558 1128.69 858.998 1127.98C860.438 1127.28 862.054 1126.93 863.846 1126.93ZM904.974 1140.18C904.974 1140.94 904.926 1141.74 904.83 1142.58H886.254C886.382 1144.24 886.91 1145.52 887.838 1146.42C888.798 1147.28 889.966 1147.71 891.342 1147.71C893.39 1147.71 894.814 1146.85 895.614 1145.12H904.35C903.902 1146.88 903.086 1148.46 901.902 1149.87C900.75 1151.28 899.294 1152.38 897.534 1153.18C895.774 1153.98 893.806 1154.38 891.63 1154.38C889.006 1154.38 886.67 1153.82 884.622 1152.7C882.574 1151.58 880.974 1149.98 879.822 1147.9C878.67 1145.82 878.094 1143.39 878.094 1140.61C878.094 1137.82 878.654 1135.39 879.774 1133.31C880.926 1131.23 882.526 1129.63 884.574 1128.51C886.622 1127.39 888.974 1126.83 891.63 1126.83C894.222 1126.83 896.526 1127.38 898.542 1128.46C900.558 1129.55 902.126 1131.1 903.246 1133.12C904.398 1135.14 904.974 1137.49 904.974 1140.18ZM896.574 1138.02C896.574 1136.61 896.094 1135.49 895.134 1134.66C894.174 1133.82 892.974 1133.41 891.534 1133.41C890.158 1133.41 888.99 1133.81 888.03 1134.61C887.102 1135.41 886.526 1136.54 886.302 1138.02H896.574ZM917.512 1131.68C918.472 1130.21 919.672 1129.06 921.112 1128.22C922.552 1127.36 924.152 1126.93 925.912 1126.93V1135.62H923.656C921.608 1135.62 920.072 1136.06 919.048 1136.96C918.024 1137.82 917.512 1139.36 917.512 1141.57V1154H909.304V1127.22H917.512V1131.68Z" fill="white"/>
<path d="M307.688 831.304L301.736 865H293.528L299.48 831.304H307.688ZM328.756 837.928C331.444 837.928 333.556 838.68 335.092 840.184C336.628 841.688 337.396 843.784 337.396 846.472C337.396 847.368 337.3 848.328 337.108 849.352L334.324 865H326.164L328.756 850.456C328.852 849.912 328.9 849.432 328.9 849.016C328.9 847.672 328.516 846.632 327.748 845.896C327.012 845.16 325.972 844.792 324.628 844.792C323.028 844.792 321.684 845.288 320.596 846.28C319.508 847.272 318.804 848.664 318.484 850.456V850.216L315.892 865H307.684L312.388 838.216H320.596L319.972 841.816C321.028 840.632 322.308 839.688 323.812 838.984C325.348 838.28 326.996 837.928 328.756 837.928ZM353.42 857.32L362.636 838.216H371.42L357.164 865H346.988L342.236 838.216H350.972L353.42 857.32ZM386.779 837.832C390.235 837.832 392.971 838.776 394.987 840.664C397.035 842.52 398.059 845.064 398.059 848.296C398.059 849.352 397.979 850.296 397.819 851.128C397.691 851.864 397.499 852.648 397.243 853.48H378.667C378.635 853.672 378.619 853.976 378.619 854.392C378.619 855.8 379.003 856.872 379.771 857.608C380.539 858.344 381.563 858.712 382.843 858.712C384.891 858.712 386.459 857.848 387.547 856.12H396.283C395.131 858.84 393.259 861.064 390.667 862.792C388.075 864.52 385.163 865.384 381.931 865.384C378.475 865.384 375.707 864.424 373.627 862.504C371.579 860.584 370.555 857.976 370.555 854.68C370.555 853.688 370.651 852.664 370.843 851.608C371.323 848.824 372.315 846.392 373.819 844.312C375.323 842.232 377.195 840.632 379.435 839.512C381.675 838.392 384.123 837.832 386.779 837.832ZM389.755 849.304C389.819 848.856 389.851 848.552 389.851 848.392C389.851 847.112 389.451 846.136 388.651 845.464C387.851 844.76 386.795 844.408 385.483 844.408C384.075 844.408 382.827 844.84 381.739 845.704C380.683 846.536 379.915 847.736 379.435 849.304H389.755ZM410.789 865.384C408.677 865.384 406.773 865.048 405.077 864.376C403.413 863.704 402.101 862.776 401.141 861.592C400.181 860.376 399.701 858.984 399.701 857.416C399.701 857.192 399.733 856.792 399.797 856.216H407.717C407.653 857.208 407.941 858.008 408.581 858.616C409.253 859.192 410.197 859.48 411.413 859.48C412.437 859.48 413.285 859.288 413.957 858.904C414.629 858.52 414.965 857.976 414.965 857.272C414.965 856.6 414.597 856.072 413.861 855.688C413.157 855.272 411.973 854.776 410.309 854.2C408.581 853.624 407.125 853.064 405.941 852.52C404.789 851.944 403.797 851.128 402.965 850.072C402.133 849.016 401.717 847.688 401.717 846.088C401.717 844.52 402.181 843.112 403.109 841.864C404.037 840.584 405.333 839.592 406.997 838.888C408.693 838.184 410.645 837.832 412.853 837.832C415.061 837.832 416.981 838.2 418.613 838.936C420.245 839.64 421.509 840.632 422.405 841.912C423.301 843.192 423.749 844.632 423.749 846.232L423.701 846.952H416.261C416.325 845.992 416.037 845.224 415.397 844.648C414.757 844.072 413.845 843.784 412.661 843.784C411.733 843.784 410.965 843.976 410.357 844.36C409.781 844.744 409.493 845.272 409.493 845.944C409.493 846.648 409.877 847.24 410.645 847.72C411.445 848.168 412.677 848.68 414.341 849.256C416.069 849.832 417.493 850.408 418.613 850.984C419.765 851.528 420.741 852.312 421.541 853.336C422.373 854.328 422.789 855.576 422.789 857.08C422.789 858.808 422.261 860.296 421.205 861.544C420.181 862.792 418.757 863.752 416.933 864.424C415.141 865.064 413.093 865.384 410.789 865.384ZM437.555 855.784C437.523 855.944 437.507 856.152 437.507 856.408C437.507 856.984 437.667 857.4 437.987 857.656C438.339 857.912 438.899 858.04 439.667 858.04H442.595L441.347 865H437.171C431.795 865 429.107 862.744 429.107 858.232C429.107 857.56 429.187 856.712 429.347 855.688L431.267 845.032H428.003L429.203 838.216H432.467L433.619 831.688H441.827L440.675 838.216H446.051L444.851 845.032H439.475L437.555 855.784ZM500.228 838.216L488.228 865H479.156L478.004 847.624L470.564 865H461.54L458.996 838.216H467.204L467.588 857.368L475.508 838.216H484.196L485.396 857.368L492.5 838.216H500.228ZM507.966 835.432C506.686 835.432 505.662 835.096 504.894 834.424C504.158 833.72 503.79 832.84 503.79 831.784C503.79 830.344 504.35 829.112 505.47 828.088C506.59 827.064 507.95 826.552 509.55 826.552C510.83 826.552 511.838 826.904 512.574 827.608C513.31 828.28 513.678 829.16 513.678 830.248C513.678 831.656 513.118 832.872 511.998 833.896C510.878 834.92 509.534 835.432 507.966 835.432ZM511.518 838.216L506.814 865H498.606L503.31 838.216H511.518ZM523.898 855.784C523.866 855.944 523.85 856.152 523.85 856.408C523.85 856.984 524.01 857.4 524.33 857.656C524.682 857.912 525.242 858.04 526.01 858.04H528.938L527.69 865H523.514C518.138 865 515.45 862.744 515.45 858.232C515.45 857.56 515.53 856.712 515.69 855.688L517.61 845.032H514.346L515.546 838.216H518.81L519.962 831.688H528.17L527.018 838.216H532.394L531.194 845.032H525.818L523.898 855.784ZM553.478 837.928C556.102 837.928 558.166 838.68 559.67 840.184C561.206 841.688 561.974 843.784 561.974 846.472C561.974 847.368 561.878 848.328 561.686 849.352L558.902 865H550.742L553.334 850.456C553.43 849.912 553.478 849.432 553.478 849.016C553.478 847.672 553.094 846.632 552.326 845.896C551.59 845.16 550.55 844.792 549.206 844.792C547.606 844.792 546.262 845.288 545.174 846.28C544.086 847.272 543.382 848.664 543.062 850.456V850.36L540.47 865H532.262L538.55 829.48H546.758L544.598 841.768C545.654 840.584 546.95 839.656 548.486 838.984C550.022 838.28 551.686 837.928 553.478 837.928Z" fill="white"/>
</svg>
