<svg width="1374" height="1435" viewBox="0 0 1374 1435" fill="none" xmlns="http://www.w3.org/2000/svg">
<g clip-path="url(#clip0_4816_149709)">
<rect width="1374" height="1435" fill="#F6AE2D"/>
<mask id="mask0_4816_149709" style="mask-type:alpha" maskUnits="userSpaceOnUse" x="255" y="200" width="876" height="620">
<path d="M812.999 201.445C695.132 256.409 511.753 385.736 429.982 447.114C427.472 448.998 426.075 451.898 426.075 455.037V474.824L298.568 508.34C293.944 509.556 289.106 507.328 287.024 503.024L281.403 491.407C279.905 488.313 280.102 484.667 281.924 481.752L313.387 431.411C313.671 430.957 314.126 430.635 314.649 430.519L341.13 424.634C341.501 424.552 341.841 424.365 342.11 424.096L369.859 396.347C370.171 396.035 370.372 395.631 370.422 395.193C371.641 384.401 368.665 371.61 365.833 362.999C365.203 361.084 362.516 361.364 362.048 363.325C359.362 374.596 355.161 380.072 352.872 381.711C352.654 381.867 352.399 381.952 352.133 381.989L315.059 387.179C314.307 387.285 313.679 387.807 313.439 388.528L303.929 417.058C303.823 417.375 303.657 417.641 303.419 417.875C294.375 426.75 270.258 466.009 257.265 488.002C255.816 490.456 255.501 493.404 256.377 496.115L269.592 537.021C270.63 540.233 273.228 542.665 276.602 542.783C300.114 543.603 375.635 532.257 413.689 525.914L376.533 750.401C392.738 780.65 414.047 806.424 426.076 819.193C426.863 820.029 429.475 818.619 429.357 817.477C427.771 802.039 429.248 765.429 430.513 743.763C430.644 741.533 430.032 739.338 428.766 737.497L422.204 727.953C460.651 680.991 542.344 584.126 561.541 572.36C585.538 557.652 710.941 549.911 740.357 541.396C763.889 534.584 829.12 501.917 858.793 486.435L819.314 546.041H787.574C782.338 546.041 777.988 550.08 777.601 555.302L774.892 591.884C774.33 599.467 782.102 604.878 789.019 601.718L836.344 580.101C864.212 554.091 896.982 506.82 909.883 486.435L865.76 439.216L921.495 402.059V490.816C921.495 493.912 922.928 496.833 925.377 498.727L969.415 532.783C974.563 536.764 982.082 534.846 984.693 528.885L1020.58 446.957C1031.11 458.723 1048.7 465.277 1056.19 467.083C1080.96 461.51 1101.6 442.57 1108.83 433.797C1098.92 439.37 1069.6 441.796 1056.19 442.312L1031.42 417.541L1036.06 405.93C1044.11 413.98 1065.51 423.379 1078.64 422.186C1103.88 419.89 1121.57 394.156 1130.2 381.598L1130.5 381.159C1118.11 391.686 1088.7 400.511 1080.18 398.189C1072.11 395.986 1054.38 379.352 1046.12 373.418L1048.39 364.822C1049.37 361.089 1048.14 357.133 1045.16 354.679C985.969 305.931 875.504 234.818 822.277 202.019C819.446 200.274 816.013 200.04 812.999 201.445Z" fill="#058ED9" stroke="#9845DB"/>
</mask>
<g mask="url(#mask0_4816_149709)">
<rect x="358.729" y="155.897" width="108.373" height="668.817" rx="10" fill="#058ED9"/>
<rect x="219.391" y="155.897" width="108.373" height="668.817" rx="10" fill="#058ED9"/>
<rect x="637.402" y="155.897" width="108.373" height="668.817" rx="10" fill="#058ED9"/>
<rect x="783.061" y="178" width="108.373" height="668.817" rx="10" fill="#058ED9"/>
<rect x="916.076" y="155.897" width="108.373" height="668.817" rx="10" fill="#058ED9"/>
<rect x="1055.41" y="155.897" width="108.373" height="668.817" rx="10" fill="#058ED9"/>
<rect x="498.066" y="155.897" width="108.373" height="668.817" rx="10" fill="#058ED9"/>
</g>
<g filter="url(#filter0_d_4816_149709)">
<path d="M483.152 925.288V960.36H435.536V1105H391.76V960.36H344.144V925.288H483.152ZM569.75 981.25H512.5L507 965.5H566C556.333 949 540.75 941.083 519.25 941.75H514.5V948.5C514.5 949.833 515.333 950.917 517 951.75C518.667 952.583 519.917 952.917 520.75 952.75C520.583 952.25 520.5 951.667 520.5 951C520.5 948.167 521.833 946.75 524.5 946.75C527.333 946.75 528.75 948.167 528.75 951C528.75 953.833 527.333 955.25 524.5 955.25H489.25V925.75H625.25V943.75C623.083 942.75 620.833 942.25 618.5 942.25L569 941.75H569.75C576.25 945.583 581.667 953.5 586 965.5H616.25L623.5 981.25H589C589.833 996.25 584.75 1008.58 573.75 1018.25C566.25 1022.92 561.833 1027.08 560.5 1030.75C558.833 1027.25 554 1024.17 546 1021.5C540.667 1020.83 534.167 1021.42 526.5 1023.25C531.667 1039.42 543 1056.58 560.5 1074.75C566.333 1078.92 571.25 1079.75 575.25 1077.25C576.083 1076.58 577.167 1074.75 578.5 1071.75C580.167 1079.58 577.75 1085.83 571.25 1090.5C565.917 1094 560.25 1095 554.25 1093.5C548.25 1091.83 539.333 1083.08 527.5 1067.25C515.833 1051.25 505.167 1030.92 495.5 1006.25C550.833 1013.58 575.583 1005.25 569.75 981.25ZM704.898 925.288V1105H661.122V925.288H704.898ZM845.422 1012.84C855.833 1015.06 864.195 1020.26 870.51 1028.46C876.825 1036.48 879.982 1045.69 879.982 1056.1C879.982 1071.12 874.691 1083.07 864.11 1091.94C853.699 1100.65 839.107 1105 820.334 1105H736.622V925.288H817.518C835.779 925.288 850.03 929.469 860.27 937.832C870.681 946.195 875.886 957.544 875.886 971.88C875.886 982.461 873.07 991.251 867.438 998.248C861.977 1005.25 854.638 1010.11 845.422 1012.84ZM780.398 997.992H809.07C816.238 997.992 821.699 996.456 825.454 993.384C829.379 990.141 831.342 985.448 831.342 979.304C831.342 973.16 829.379 968.467 825.454 965.224C821.699 961.981 816.238 960.36 809.07 960.36H780.398V997.992ZM812.654 1069.67C819.993 1069.67 825.625 1068.05 829.55 1064.81C833.646 1061.39 835.694 1056.53 835.694 1050.22C835.694 1043.9 833.561 1038.95 829.294 1035.37C825.198 1031.78 819.481 1029.99 812.142 1029.99H780.398V1069.67H812.654ZM949.148 960.36V996.712H1007.77V1030.5H949.148V1069.93H1015.45V1105H905.372V925.288H1015.45V960.36H949.148Z" fill="#626262"/>
</g>
<path d="M334.472 1197.58C332.552 1197.58 330.973 1197.02 329.736 1195.91C328.541 1194.76 327.944 1193.35 327.944 1191.69C327.944 1189.98 328.541 1188.57 329.736 1187.46C330.973 1186.31 332.552 1185.74 334.472 1185.74C336.349 1185.74 337.885 1186.31 339.08 1187.46C340.317 1188.57 340.936 1189.98 340.936 1191.69C340.936 1193.35 340.317 1194.76 339.08 1195.91C337.885 1197.02 336.349 1197.58 334.472 1197.58ZM339.912 1201.29V1237H328.968V1201.29H339.912ZM369.603 1200.9C373.784 1200.9 377.112 1202.27 379.587 1205C382.104 1207.69 383.363 1211.4 383.363 1216.14V1237H372.483V1217.61C372.483 1215.22 371.864 1213.36 370.627 1212.04C369.39 1210.72 367.726 1210.06 365.635 1210.06C363.544 1210.06 361.88 1210.72 360.643 1212.04C359.406 1213.36 358.787 1215.22 358.787 1217.61V1237H347.843V1201.29H358.787V1206.02C359.896 1204.45 361.39 1203.21 363.267 1202.31C365.144 1201.37 367.256 1200.9 369.603 1200.9ZM407.032 1226.76L414.776 1201.29H426.424L413.752 1237H400.248L387.576 1201.29H399.288L407.032 1226.76ZM464.694 1218.57C464.694 1219.59 464.631 1220.66 464.503 1221.77H439.735C439.905 1223.99 440.609 1225.69 441.847 1226.89C443.127 1228.04 444.684 1228.62 446.519 1228.62C449.249 1228.62 451.148 1227.46 452.215 1225.16H463.863C463.265 1227.51 462.177 1229.62 460.599 1231.5C459.063 1233.37 457.121 1234.85 454.775 1235.91C452.428 1236.98 449.804 1237.51 446.903 1237.51C443.404 1237.51 440.289 1236.77 437.559 1235.27C434.828 1233.78 432.695 1231.65 431.159 1228.87C429.623 1226.1 428.855 1222.86 428.855 1219.14C428.855 1215.43 429.601 1212.19 431.095 1209.42C432.631 1206.64 434.764 1204.51 437.495 1203.02C440.225 1201.52 443.361 1200.78 446.903 1200.78C450.359 1200.78 453.431 1201.5 456.119 1202.95C458.807 1204.4 460.897 1206.47 462.391 1209.16C463.927 1211.85 464.694 1214.98 464.694 1218.57ZM453.495 1215.69C453.495 1213.81 452.855 1212.32 451.575 1211.21C450.295 1210.1 448.695 1209.54 446.775 1209.54C444.94 1209.54 443.383 1210.08 442.103 1211.14C440.865 1212.21 440.097 1213.73 439.799 1215.69H453.495ZM484.996 1237.51C481.881 1237.51 479.108 1236.98 476.676 1235.91C474.244 1234.85 472.324 1233.39 470.916 1231.56C469.508 1229.68 468.719 1227.59 468.548 1225.29H479.364C479.492 1226.53 480.068 1227.53 481.092 1228.3C482.116 1229.06 483.375 1229.45 484.868 1229.45C486.233 1229.45 487.279 1229.19 488.004 1228.68C488.772 1228.13 489.156 1227.42 489.156 1226.57C489.156 1225.54 488.623 1224.8 487.556 1224.33C486.489 1223.82 484.761 1223.26 482.372 1222.66C479.812 1222.07 477.679 1221.45 475.972 1220.81C474.265 1220.13 472.793 1219.08 471.556 1217.67C470.319 1216.22 469.7 1214.28 469.7 1211.85C469.7 1209.8 470.255 1207.94 471.364 1206.28C472.516 1204.57 474.18 1203.23 476.356 1202.25C478.575 1201.27 481.199 1200.78 484.228 1200.78C488.708 1200.78 492.228 1201.89 494.788 1204.1C497.391 1206.32 498.884 1209.27 499.268 1212.94H489.156C488.985 1211.7 488.431 1210.72 487.492 1209.99C486.596 1209.27 485.401 1208.9 483.908 1208.9C482.628 1208.9 481.647 1209.16 480.964 1209.67C480.281 1210.14 479.94 1210.8 479.94 1211.66C479.94 1212.68 480.473 1213.45 481.54 1213.96C482.649 1214.47 484.356 1214.98 486.66 1215.5C489.305 1216.18 491.46 1216.86 493.124 1217.54C494.788 1218.18 496.239 1219.25 497.476 1220.74C498.756 1222.19 499.417 1224.16 499.46 1226.63C499.46 1228.72 498.863 1230.6 497.668 1232.26C496.516 1233.89 494.831 1235.17 492.612 1236.1C490.436 1237.04 487.897 1237.51 484.996 1237.51ZM526.06 1227.72V1237H520.492C516.524 1237 513.43 1236.04 511.212 1234.12C508.993 1232.16 507.884 1228.98 507.884 1224.58V1210.38H503.532V1201.29H507.884V1192.58H518.828V1201.29H525.996V1210.38H518.828V1224.71C518.828 1225.78 519.084 1226.55 519.596 1227.02C520.108 1227.49 520.961 1227.72 522.156 1227.72H526.06ZM556.662 1206.34C557.686 1204.68 559.158 1203.34 561.078 1202.31C562.998 1201.29 565.195 1200.78 567.67 1200.78C570.614 1200.78 573.281 1201.52 575.67 1203.02C578.059 1204.51 579.937 1206.64 581.302 1209.42C582.71 1212.19 583.414 1215.41 583.414 1219.08C583.414 1222.75 582.71 1225.99 581.302 1228.81C579.937 1231.58 578.059 1233.74 575.67 1235.27C573.281 1236.77 570.614 1237.51 567.67 1237.51C565.153 1237.51 562.955 1237.02 561.078 1236.04C559.201 1235.02 557.729 1233.67 556.662 1232.01V1237H545.718V1189.64H556.662V1206.34ZM572.278 1219.08C572.278 1216.35 571.51 1214.22 569.974 1212.68C568.481 1211.1 566.625 1210.31 564.406 1210.31C562.23 1210.31 560.374 1211.1 558.838 1212.68C557.345 1214.26 556.598 1216.41 556.598 1219.14C556.598 1221.87 557.345 1224.03 558.838 1225.61C560.374 1227.19 562.23 1227.98 564.406 1227.98C566.582 1227.98 568.438 1227.19 569.974 1225.61C571.51 1223.99 572.278 1221.81 572.278 1219.08ZM622.819 1218.57C622.819 1219.59 622.756 1220.66 622.628 1221.77H597.86C598.03 1223.99 598.734 1225.69 599.972 1226.89C601.252 1228.04 602.809 1228.62 604.644 1228.62C607.374 1228.62 609.273 1227.46 610.34 1225.16H621.988C621.39 1227.51 620.302 1229.62 618.724 1231.5C617.188 1233.37 615.246 1234.85 612.9 1235.91C610.553 1236.98 607.929 1237.51 605.028 1237.51C601.529 1237.51 598.414 1236.77 595.684 1235.27C592.953 1233.78 590.82 1231.65 589.284 1228.87C587.748 1226.1 586.98 1222.86 586.98 1219.14C586.98 1215.43 587.726 1212.19 589.22 1209.42C590.756 1206.64 592.889 1204.51 595.62 1203.02C598.35 1201.52 601.486 1200.78 605.028 1200.78C608.484 1200.78 611.556 1201.5 614.244 1202.95C616.932 1204.4 619.022 1206.47 620.516 1209.16C622.052 1211.85 622.819 1214.98 622.819 1218.57ZM611.62 1215.69C611.62 1213.81 610.98 1212.32 609.7 1211.21C608.42 1210.1 606.82 1209.54 604.9 1209.54C603.065 1209.54 601.508 1210.08 600.228 1211.14C598.99 1212.21 598.222 1213.73 597.924 1215.69H611.62ZM648.497 1227.72V1237H642.929C638.961 1237 635.868 1236.04 633.649 1234.12C631.43 1232.16 630.321 1228.98 630.321 1224.58V1210.38H625.969V1201.29H630.321V1192.58H641.265V1201.29H648.433V1210.38H641.265V1224.71C641.265 1225.78 641.521 1226.55 642.033 1227.02C642.545 1227.49 643.398 1227.72 644.593 1227.72H648.497ZM674.497 1227.72V1237H668.929C664.961 1237 661.868 1236.04 659.649 1234.12C657.43 1232.16 656.321 1228.98 656.321 1224.58V1210.38H651.969V1201.29H656.321V1192.58H667.265V1201.29H674.433V1210.38H667.265V1224.71C667.265 1225.78 667.521 1226.55 668.033 1227.02C668.545 1227.49 669.398 1227.72 670.593 1227.72H674.497ZM714.257 1218.57C714.257 1219.59 714.193 1220.66 714.065 1221.77H689.297C689.468 1223.99 690.172 1225.69 691.409 1226.89C692.689 1228.04 694.246 1228.62 696.081 1228.62C698.812 1228.62 700.71 1227.46 701.777 1225.16H713.425C712.828 1227.51 711.74 1229.62 710.161 1231.5C708.625 1233.37 706.684 1234.85 704.337 1235.91C701.99 1236.98 699.366 1237.51 696.465 1237.51C692.966 1237.51 689.852 1236.77 687.121 1235.27C684.39 1233.78 682.257 1231.65 680.721 1228.87C679.185 1226.1 678.417 1222.86 678.417 1219.14C678.417 1215.43 679.164 1212.19 680.657 1209.42C682.193 1206.64 684.326 1204.51 687.057 1203.02C689.788 1201.52 692.924 1200.78 696.465 1200.78C699.921 1200.78 702.993 1201.5 705.681 1202.95C708.369 1204.4 710.46 1206.47 711.953 1209.16C713.489 1211.85 714.257 1214.98 714.257 1218.57ZM703.057 1215.69C703.057 1213.81 702.417 1212.32 701.137 1211.21C699.857 1210.1 698.257 1209.54 696.337 1209.54C694.502 1209.54 692.945 1210.08 691.665 1211.14C690.428 1212.21 689.66 1213.73 689.361 1215.69H703.057ZM730.975 1207.24C732.255 1205.28 733.855 1203.74 735.775 1202.63C737.695 1201.48 739.828 1200.9 742.175 1200.9V1212.49H739.167C736.436 1212.49 734.388 1213.09 733.023 1214.28C731.657 1215.43 730.975 1217.48 730.975 1220.42V1237H720.031V1201.29H730.975V1207.24ZM752.526 1237.51C750.606 1237.51 749.027 1236.96 747.79 1235.85C746.595 1234.7 745.998 1233.29 745.998 1231.62C745.998 1229.92 746.595 1228.49 747.79 1227.34C749.027 1226.18 750.606 1225.61 752.526 1225.61C754.403 1225.61 755.939 1226.18 757.134 1227.34C758.371 1228.49 758.99 1229.92 758.99 1231.62C758.99 1233.29 758.371 1234.7 757.134 1235.85C755.939 1236.96 754.403 1237.51 752.526 1237.51ZM798.935 1227.72V1237H793.367C789.399 1237 786.305 1236.04 784.087 1234.12C781.868 1232.16 780.759 1228.98 780.759 1224.58V1210.38H776.407V1201.29H780.759V1192.58H791.703V1201.29H798.871V1210.38H791.703V1224.71C791.703 1225.78 791.959 1226.55 792.471 1227.02C792.983 1227.49 793.836 1227.72 795.031 1227.72H798.935ZM821.287 1237.51C817.788 1237.51 814.631 1236.77 811.815 1235.27C809.041 1233.78 806.844 1231.65 805.223 1228.87C803.644 1226.1 802.855 1222.86 802.855 1219.14C802.855 1215.47 803.665 1212.25 805.286 1209.48C806.908 1206.66 809.127 1204.51 811.943 1203.02C814.759 1201.52 817.916 1200.78 821.415 1200.78C824.913 1200.78 828.071 1201.52 830.887 1203.02C833.703 1204.51 835.921 1206.66 837.543 1209.48C839.164 1212.25 839.975 1215.47 839.975 1219.14C839.975 1222.81 839.143 1226.06 837.479 1228.87C835.857 1231.65 833.617 1233.78 830.759 1235.27C827.943 1236.77 824.785 1237.51 821.287 1237.51ZM821.287 1228.04C823.377 1228.04 825.148 1227.27 826.599 1225.74C828.092 1224.2 828.839 1222 828.839 1219.14C828.839 1216.29 828.113 1214.09 826.663 1212.55C825.255 1211.02 823.505 1210.25 821.415 1210.25C819.281 1210.25 817.511 1211.02 816.103 1212.55C814.695 1214.05 813.991 1216.24 813.991 1219.14C813.991 1222 814.673 1224.2 816.039 1225.74C817.447 1227.27 819.196 1228.04 821.287 1228.04ZM859.349 1200.78C861.866 1200.78 864.063 1201.29 865.941 1202.31C867.861 1203.34 869.333 1204.68 870.357 1206.34V1201.29H881.301V1236.94C881.301 1240.22 880.639 1243.19 879.317 1245.83C878.037 1248.52 876.053 1250.65 873.365 1252.23C870.719 1253.81 867.413 1254.6 863.445 1254.6C858.154 1254.6 853.866 1253.34 850.581 1250.82C847.295 1248.35 845.418 1244.98 844.949 1240.71H855.765C856.106 1242.08 856.917 1243.14 858.197 1243.91C859.477 1244.72 861.055 1245.13 862.933 1245.13C865.194 1245.13 866.986 1244.47 868.309 1243.14C869.674 1241.86 870.357 1239.79 870.357 1236.94V1231.88C869.29 1233.54 867.818 1234.91 865.941 1235.98C864.063 1237 861.866 1237.51 859.349 1237.51C856.405 1237.51 853.738 1236.77 851.349 1235.27C848.959 1233.74 847.061 1231.58 845.653 1228.81C844.287 1225.99 843.605 1222.75 843.605 1219.08C843.605 1215.41 844.287 1212.19 845.653 1209.42C847.061 1206.64 848.959 1204.51 851.349 1203.02C853.738 1201.52 856.405 1200.78 859.349 1200.78ZM870.357 1219.14C870.357 1216.41 869.589 1214.26 868.053 1212.68C866.559 1211.1 864.725 1210.31 862.549 1210.31C860.373 1210.31 858.517 1211.1 856.981 1212.68C855.487 1214.22 854.741 1216.35 854.741 1219.08C854.741 1221.81 855.487 1223.99 856.981 1225.61C858.517 1227.19 860.373 1227.98 862.549 1227.98C864.725 1227.98 866.559 1227.19 868.053 1225.61C869.589 1224.03 870.357 1221.87 870.357 1219.14ZM922.882 1218.57C922.882 1219.59 922.818 1220.66 922.69 1221.77H897.922C898.093 1223.99 898.797 1225.69 900.034 1226.89C901.314 1228.04 902.871 1228.62 904.706 1228.62C907.437 1228.62 909.335 1227.46 910.402 1225.16H922.05C921.453 1227.51 920.365 1229.62 918.786 1231.5C917.25 1233.37 915.309 1234.85 912.962 1235.91C910.615 1236.98 907.991 1237.51 905.09 1237.51C901.591 1237.51 898.477 1236.77 895.746 1235.27C893.015 1233.78 890.882 1231.65 889.346 1228.87C887.81 1226.1 887.042 1222.86 887.042 1219.14C887.042 1215.43 887.789 1212.19 889.282 1209.42C890.818 1206.64 892.951 1204.51 895.682 1203.02C898.413 1201.52 901.549 1200.78 905.09 1200.78C908.546 1200.78 911.618 1201.5 914.306 1202.95C916.994 1204.4 919.085 1206.47 920.578 1209.16C922.114 1211.85 922.882 1214.98 922.882 1218.57ZM911.682 1215.69C911.682 1213.81 911.042 1212.32 909.762 1211.21C908.482 1210.1 906.882 1209.54 904.962 1209.54C903.127 1209.54 901.57 1210.08 900.29 1211.14C899.053 1212.21 898.285 1213.73 897.986 1215.69H911.682ZM948.56 1227.72V1237H942.992C939.024 1237 935.93 1236.04 933.712 1234.12C931.493 1232.16 930.384 1228.98 930.384 1224.58V1210.38H926.032V1201.29H930.384V1192.58H941.328V1201.29H948.496V1210.38H941.328V1224.71C941.328 1225.78 941.584 1226.55 942.096 1227.02C942.608 1227.49 943.461 1227.72 944.656 1227.72H948.56ZM976.608 1200.9C980.704 1200.9 983.989 1202.27 986.464 1205C988.938 1207.69 990.176 1211.4 990.176 1216.14V1237H979.296V1217.61C979.296 1215.22 978.677 1213.36 977.44 1212.04C976.202 1210.72 974.538 1210.06 972.448 1210.06C970.357 1210.06 968.693 1210.72 967.456 1212.04C966.218 1213.36 965.6 1215.22 965.6 1217.61V1237H954.656V1189.64H965.6V1206.09C966.709 1204.51 968.224 1203.25 970.144 1202.31C972.064 1201.37 974.218 1200.9 976.608 1200.9ZM1031.44 1218.57C1031.44 1219.59 1031.38 1220.66 1031.25 1221.77H1006.48C1006.66 1223.99 1007.36 1225.69 1008.6 1226.89C1009.88 1228.04 1011.43 1228.62 1013.27 1228.62C1016 1228.62 1017.9 1227.46 1018.96 1225.16H1030.61C1030.02 1227.51 1028.93 1229.62 1027.35 1231.5C1025.81 1233.37 1023.87 1234.85 1021.52 1235.91C1019.18 1236.98 1016.55 1237.51 1013.65 1237.51C1010.15 1237.51 1007.04 1236.77 1004.31 1235.27C1001.58 1233.78 999.445 1231.65 997.909 1228.87C996.373 1226.1 995.605 1222.86 995.605 1219.14C995.605 1215.43 996.351 1212.19 997.845 1209.42C999.381 1206.64 1001.51 1204.51 1004.24 1203.02C1006.98 1201.52 1010.11 1200.78 1013.65 1200.78C1017.11 1200.78 1020.18 1201.5 1022.87 1202.95C1025.56 1204.4 1027.65 1206.47 1029.14 1209.16C1030.68 1211.85 1031.44 1214.98 1031.44 1218.57ZM1020.24 1215.69C1020.24 1213.81 1019.6 1212.32 1018.32 1211.21C1017.04 1210.1 1015.44 1209.54 1013.52 1209.54C1011.69 1209.54 1010.13 1210.08 1008.85 1211.14C1007.62 1212.21 1006.85 1213.73 1006.55 1215.69H1020.24ZM1048.16 1207.24C1049.44 1205.28 1051.04 1203.74 1052.96 1202.63C1054.88 1201.48 1057.02 1200.9 1059.36 1200.9V1212.49H1056.35C1053.62 1212.49 1051.58 1213.09 1050.21 1214.28C1048.84 1215.43 1048.16 1217.48 1048.16 1220.42V1237H1037.22V1201.29H1048.16V1207.24Z" fill="#464E47"/>
</g>
<defs>
<filter id="filter0_d_4816_149709" x="340.145" y="925.288" width="679.307" height="187.712" filterUnits="userSpaceOnUse" color-interpolation-filters="sRGB">
<feFlood flood-opacity="0" result="BackgroundImageFix"/>
<feColorMatrix in="SourceAlpha" type="matrix" values="0 0 0 0 0 0 0 0 0 0 0 0 0 0 0 0 0 0 127 0" result="hardAlpha"/>
<feOffset dy="4"/>
<feGaussianBlur stdDeviation="2"/>
<feComposite in2="hardAlpha" operator="out"/>
<feColorMatrix type="matrix" values="0 0 0 0 0 0 0 0 0 0 0 0 0 0 0 0 0 0 0.25 0"/>
<feBlend mode="normal" in2="BackgroundImageFix" result="effect1_dropShadow_4816_149709"/>
<feBlend mode="normal" in="SourceGraphic" in2="effect1_dropShadow_4816_149709" result="shape"/>
</filter>
<clipPath id="clip0_4816_149709">
<rect width="1374" height="1435" fill="white"/>
</clipPath>
</defs>
</svg>
