<svg width="815" height="493" viewBox="0 0 815 493" fill="none" xmlns="http://www.w3.org/2000/svg">
<g filter="url(#filter0_dd_3461_126586)">
<path d="M24 44.0005C24 32.9548 32.9543 24.0005 44 24.0005H759C770.046 24.0005 779 32.9548 779 44.0005V437C779 448.046 770.046 457 759 457H44C32.9543 457 24 448.046 24 437V44.0005Z" fill="white"/>
<g filter="url(#filter1_di_3461_126586)">
<rect x="24" y="24.0005" width="755" height="433" rx="20" fill="#E6E9F3"/>
<rect x="26.5" y="26.5005" width="750" height="428" rx="17.5" stroke="white" stroke-width="5"/>
</g>
<g filter="url(#filter2_d_3461_126586)">
<rect x="81.2759" y="188.541" width="642.184" height="103.92" rx="10" fill="white"/>
</g>
<g clip-path="url(#clip0_3461_126586)">
<path d="M169.767 241.225C169.767 240.378 169.565 239.583 169.225 238.861C166.963 231.576 156.369 232.109 141.3 231.753C138.781 231.694 140.222 228.726 141.106 222.209C141.682 217.971 138.943 211.462 134.34 211.462C126.75 211.462 134.051 217.437 127.34 232.211C123.754 240.105 115.739 235.683 115.739 243.613V261.662C115.739 264.749 116.043 267.716 120.393 268.204C124.61 268.678 123.662 271.677 129.745 271.677H160.193C163.294 271.677 165.817 269.157 165.817 266.062C165.817 264.779 165.366 263.611 164.639 262.664C166.36 261.703 167.541 259.888 167.541 257.783C167.541 256.503 167.093 255.334 166.367 254.39C168.093 253.43 169.278 251.613 169.278 249.505C169.278 247.974 168.657 246.587 167.656 245.571C168.933 244.542 169.767 242.986 169.767 241.225Z" fill="#FFDB5E"/>
<path d="M149.626 246.838H164.145C166.119 246.838 167.972 245.783 168.981 244.088C169.396 243.389 169.165 242.485 168.463 242.069C167.762 241.653 166.856 241.887 166.439 242.586C165.962 243.392 165.079 243.891 164.143 243.891H149.277C147.804 243.891 146.606 242.695 146.606 241.225C146.606 239.755 147.804 238.56 149.277 238.56H159.211C160.026 238.56 160.687 237.9 160.687 237.086C160.687 236.273 160.026 235.613 159.211 235.613H149.275C146.174 235.613 143.651 238.13 143.651 241.225C143.651 242.951 144.452 244.478 145.684 245.509C144.646 246.528 144 247.942 144 249.505C144 251.236 144.807 252.768 146.045 253.797C145.014 254.814 144.375 256.224 144.375 257.783C144.375 259.669 145.318 261.333 146.752 262.351C145.868 263.343 145.315 264.635 145.315 266.063C145.315 269.158 147.837 271.675 150.939 271.675H160.193C162.167 271.675 164.021 270.623 165.03 268.927C165.447 268.228 165.216 267.324 164.516 266.908C163.814 266.495 162.908 266.723 162.493 267.421C162.012 268.228 161.129 268.728 160.193 268.728H150.939C149.466 268.728 148.268 267.533 148.268 266.063C148.268 264.593 149.466 263.397 150.939 263.397H161.917C163.891 263.397 165.748 262.343 166.755 260.647C167.172 259.947 166.941 259.042 166.24 258.628C165.533 258.206 164.631 258.443 164.217 259.142C163.729 259.962 162.869 260.45 161.917 260.45H149.999C148.526 260.45 147.328 259.253 147.328 257.783C147.328 256.313 148.526 255.117 149.999 255.117H163.652C165.626 255.117 167.481 254.065 168.49 252.369C168.906 251.67 168.675 250.766 167.975 250.35C167.271 249.936 166.367 250.165 165.952 250.864C165.464 251.682 164.604 252.17 163.652 252.17H149.626C148.153 252.17 146.955 250.975 146.955 249.505C146.955 248.035 148.151 246.838 149.626 246.838Z" fill="#EE9547"/>
</g>
<g clip-path="url(#clip1_3461_126586)">
<path d="M261.504 230.27C261.504 231.238 261.272 232.147 260.885 232.972C258.299 241.297 246.192 240.689 228.97 241.095C226.091 241.163 227.738 244.556 228.749 252.003C229.406 256.847 226.276 264.285 221.015 264.285C212.341 264.285 220.686 257.457 213.016 240.572C208.918 231.55 199.758 236.604 199.758 227.542V206.915C199.758 203.388 200.105 199.997 205.077 199.439C209.896 198.896 208.812 195.469 215.764 195.469H250.562C254.106 195.469 256.989 198.348 256.989 201.885C256.989 203.351 256.474 204.687 255.643 205.768C257.61 206.867 258.96 208.942 258.96 211.347C258.96 212.81 258.447 214.145 257.618 215.225C259.591 216.322 260.945 218.399 260.945 220.808C260.945 222.557 260.235 224.143 259.091 225.303C260.551 226.479 261.504 228.257 261.504 230.27Z" fill="#FFDB5E"/>
<path d="M238.486 223.856H255.078C257.335 223.856 259.452 225.061 260.605 226.999C261.08 227.798 260.815 228.831 260.013 229.306C259.213 229.782 258.177 229.514 257.701 228.715C257.155 227.794 256.147 227.224 255.076 227.224H238.086C236.403 227.224 235.034 228.59 235.034 230.27C235.034 231.95 236.403 233.317 238.086 233.317H249.439C250.371 233.317 251.127 234.071 251.127 235.001C251.127 235.93 250.371 236.685 249.439 236.685H238.084C234.54 236.685 231.657 233.808 231.657 230.27C231.657 228.298 232.573 226.552 233.981 225.375C232.795 224.21 232.056 222.594 232.056 220.808C232.056 218.83 232.978 217.078 234.393 215.903C233.215 214.74 232.484 213.129 232.484 211.347C232.484 209.192 233.562 207.291 235.201 206.126C234.191 204.993 233.558 203.517 233.558 201.885C233.558 198.348 236.441 195.471 239.986 195.471H250.562C252.818 195.471 254.937 196.673 256.091 198.611C256.567 199.41 256.303 200.443 255.502 200.919C254.7 201.39 253.665 201.13 253.19 200.332C252.641 199.41 251.632 198.838 250.562 198.838H239.986C238.302 198.838 236.933 200.205 236.933 201.885C236.933 203.565 238.302 204.931 239.986 204.931H252.533C254.789 204.931 256.91 206.136 258.062 208.074C258.538 208.874 258.274 209.908 257.473 210.381C256.665 210.864 255.634 210.593 255.161 209.794C254.604 208.857 253.62 208.299 252.533 208.299H238.912C237.228 208.299 235.859 209.667 235.859 211.347C235.859 213.027 237.228 214.394 238.912 214.394H254.515C256.771 214.394 258.891 215.597 260.044 217.534C260.52 218.333 260.256 219.367 259.456 219.842C258.652 220.315 257.618 220.054 257.144 219.255C256.586 218.32 255.603 217.762 254.515 217.762H238.486C236.802 217.762 235.433 219.128 235.433 220.808C235.433 222.488 236.8 223.856 238.486 223.856Z" fill="#EE9547"/>
</g>
<g clip-path="url(#clip2_3461_126586)">
<path d="M344.898 230.982C344.898 221.805 337.443 214.366 328.248 214.366C322.666 214.366 317.741 217.116 314.718 221.319C311.696 217.116 306.771 214.366 301.19 214.366C291.994 214.366 284.539 221.803 284.539 230.982C284.539 232.282 284.704 233.542 284.988 234.756C287.3 249.091 303.271 264.214 314.718 268.366C326.164 264.214 342.137 249.091 344.446 234.758C344.733 233.544 344.898 232.284 344.898 230.982Z" fill="#DD2E44"/>
</g>
<g clip-path="url(#clip3_3461_126586)">
<path d="M518.655 241.367C518.655 258.106 505.056 271.677 488.282 271.677C471.509 271.677 457.908 258.106 457.908 241.367C457.908 224.629 471.509 211.057 488.282 211.057C505.056 211.057 518.655 224.629 518.655 241.367Z" fill="#FFCC4D"/>
<path d="M505.927 241.025C505.826 240.798 503.398 235.473 498.406 235.473C493.416 235.473 490.987 240.798 490.885 241.025C490.73 241.373 490.831 241.781 491.13 242.02C491.425 242.259 491.849 242.268 492.159 242.044C492.18 242.028 494.289 240.525 498.406 240.525C502.5 240.525 504.606 242.008 504.653 242.042C504.801 242.153 504.98 242.209 505.156 242.209C505.341 242.209 505.529 242.146 505.682 242.025C505.981 241.786 506.084 241.375 505.927 241.025ZM485.678 241.025C485.577 240.798 483.148 235.473 478.157 235.473C473.167 235.473 470.738 240.798 470.636 241.025C470.481 241.373 470.582 241.781 470.879 242.02C471.176 242.259 471.6 242.268 471.909 242.044C471.931 242.028 474.038 240.525 478.157 240.525C482.251 240.525 484.357 242.008 484.404 242.042C484.552 242.153 484.731 242.209 484.907 242.209C485.092 242.209 485.28 242.146 485.433 242.025C485.734 241.786 485.833 241.375 485.678 241.025ZM510.218 237.999C509.55 237.999 508.915 237.598 508.65 236.94C505.65 229.455 498.15 227.879 498.074 227.862C497.161 227.68 496.567 226.793 496.751 225.88C496.933 224.967 497.822 224.38 498.737 224.56C499.118 224.636 508.112 226.527 511.784 235.687C512.13 236.551 511.708 237.531 510.842 237.876C510.64 237.96 510.427 237.999 510.218 237.999ZM466.345 237.999C466.136 237.999 465.925 237.96 465.719 237.878C464.853 237.532 464.433 236.552 464.779 235.689C468.451 226.528 477.445 224.637 477.826 224.561C478.743 224.383 479.629 224.971 479.812 225.882C479.995 226.791 479.404 227.677 478.495 227.862C478.182 227.926 470.891 229.512 467.913 236.94C467.648 237.598 467.013 237.999 466.345 237.999ZM488.282 248.102C482.168 248.102 478.112 247.392 473.095 246.418C471.949 246.198 469.72 246.418 469.72 249.786C469.72 256.522 477.474 264.941 488.282 264.941C499.088 264.941 506.843 256.522 506.843 249.786C506.843 246.418 504.614 246.196 503.468 246.418C498.452 247.392 494.395 248.102 488.282 248.102Z" fill="#664500"/>
<path d="M473.095 249.786C473.095 249.786 478.157 251.47 488.282 251.47C498.406 251.47 503.468 249.786 503.468 249.786C503.468 249.786 500.094 256.522 488.282 256.522C476.47 256.522 473.095 249.786 473.095 249.786Z" fill="white"/>
<path d="M476.212 258.591C475.064 263.099 470.474 265.823 465.957 264.678C461.442 263.535 458.71 258.955 459.855 254.447C461.001 249.939 470.549 239.784 472.185 240.198C473.822 240.614 477.357 254.085 476.212 258.591ZM500.318 258.591C501.465 263.099 506.055 265.823 510.572 264.678C515.09 263.535 517.822 258.955 516.674 254.447C515.527 249.939 505.979 239.784 504.343 240.198C502.709 240.614 499.172 254.085 500.318 258.591Z" fill="#5DADEC"/>
</g>
<g clip-path="url(#clip4_3461_126586)">
<path d="M605.437 241.367C605.437 258.106 591.838 271.677 575.063 271.677C558.29 271.677 544.69 258.106 544.69 241.367C544.69 224.629 558.29 211.057 575.063 211.057C591.838 211.057 605.437 224.629 605.437 241.367Z" fill="#FFCC4D"/>
<path d="M575.063 266.625C579.723 266.625 583.5 262.102 583.5 256.522C583.5 250.942 579.723 246.418 575.063 246.418C570.404 246.418 566.626 250.942 566.626 256.522C566.626 262.102 570.404 266.625 575.063 266.625Z" fill="#664500"/>
<path d="M554.812 229.579C554.461 229.579 554.105 229.47 553.802 229.243C553.056 228.685 552.906 227.629 553.464 226.885C558.969 219.56 566.316 219.476 566.626 219.476C567.558 219.476 568.314 220.23 568.314 221.16C568.314 222.088 567.563 222.84 566.633 222.844C566.371 222.847 560.612 222.989 556.164 228.906C555.833 229.347 555.325 229.579 554.812 229.579ZM595.314 229.579C594.799 229.579 594.295 229.347 593.962 228.906C589.508 222.977 583.735 222.847 583.49 222.844C582.562 222.834 581.813 222.076 581.818 221.152C581.823 220.224 582.572 219.476 583.5 219.476C583.811 219.476 591.156 219.56 596.662 226.885C597.222 227.629 597.071 228.685 596.325 229.243C596.021 229.47 595.667 229.579 595.314 229.579Z" fill="#664500"/>
<path d="M575.063 249.786C572.267 249.786 570.001 252.8 570.001 256.522H580.125C580.125 252.8 577.859 249.786 575.063 249.786Z" fill="#F5F8FA"/>
<path d="M564.939 241.367C567.269 241.367 569.157 238.728 569.157 235.473C569.157 232.218 567.269 229.58 564.939 229.58C562.609 229.58 560.72 232.218 560.72 235.473C560.72 238.728 562.609 241.367 564.939 241.367Z" fill="#664500"/>
<path d="M585.188 241.367C587.518 241.367 589.406 238.728 589.406 235.473C589.406 232.218 587.518 229.58 585.188 229.58C582.858 229.58 580.969 232.218 580.969 235.473C580.969 238.728 582.858 241.367 585.188 241.367Z" fill="#664500"/>
</g>
<g clip-path="url(#clip5_3461_126586)">
<path d="M692.218 241.367C692.218 258.106 678.619 271.677 661.845 271.677C645.072 271.677 631.471 258.106 631.471 241.367C631.471 224.629 645.072 211.057 661.845 211.057C678.619 211.057 692.218 224.629 692.218 241.367Z" fill="#FFCC4D"/>
<path d="M650.877 245.576C653.206 245.576 655.095 242.938 655.095 239.683C655.095 236.428 653.206 233.789 650.877 233.789C648.547 233.789 646.658 236.428 646.658 239.683C646.658 242.938 648.547 245.576 650.877 245.576Z" fill="#664500"/>
<path d="M672.813 245.576C675.143 245.576 677.032 242.938 677.032 239.683C677.032 236.428 675.143 233.789 672.813 233.789C670.483 233.789 668.594 236.428 668.594 239.683C668.594 242.938 670.483 245.576 672.813 245.576Z" fill="#664500"/>
<path d="M641.594 233.789C641.243 233.789 640.887 233.68 640.583 233.453C639.837 232.895 639.687 231.839 640.246 231.095C645.75 223.77 653.097 223.686 653.408 223.686C654.339 223.686 655.095 224.44 655.095 225.37C655.095 226.298 654.344 227.05 653.414 227.054C653.153 227.057 647.394 227.199 642.946 233.116C642.615 233.557 642.107 233.789 641.594 233.789ZM682.096 233.789C681.581 233.789 681.076 233.557 680.744 233.116C676.287 227.187 670.516 227.055 670.272 227.054C669.344 227.044 668.595 226.286 668.6 225.362C668.605 224.434 669.354 223.686 670.282 223.686C670.592 223.686 677.938 223.77 683.444 231.095C684.004 231.839 683.852 232.895 683.106 233.453C682.803 233.68 682.448 233.789 682.096 233.789ZM671.1 258.844C671.082 258.77 669.168 251.47 661.845 251.47C654.521 251.47 652.608 258.77 652.589 258.844C652.5 259.203 652.664 259.57 652.981 259.76C653.298 259.949 653.711 259.905 653.987 259.659C654.002 259.645 655.696 258.206 661.845 258.206C667.903 258.206 669.636 259.603 669.701 259.659C669.862 259.811 670.071 259.89 670.282 259.89C670.424 259.89 670.567 259.854 670.697 259.782C671.028 259.593 671.193 259.211 671.1 258.844Z" fill="#664500"/>
<path d="M658.47 263.257C658.47 267.908 654.694 271.677 650.033 271.677C645.372 271.677 641.596 267.908 641.596 263.257C641.596 258.606 648.345 246.418 650.033 246.418C651.72 246.418 658.47 258.606 658.47 263.257Z" fill="#5DADEC"/>
</g>
<g clip-path="url(#clip6_3461_126586)">
<path d="M430.186 239.586C430.186 236.114 429.567 232.785 428.431 229.705C427.655 238.78 422.807 243.441 417.741 241.27C412.996 239.236 416.194 231.307 416.43 227.523C416.829 221.109 416.41 213.767 404.735 207.663C409.586 216.924 405.297 222.678 400.798 223.029C395.807 223.418 391.235 218.748 392.923 211.171C387.459 215.188 387.3 221.951 388.986 226.326C390.744 230.886 388.915 234.674 384.627 235.095C379.835 235.567 377.172 229.975 379.628 221.063C375.379 226.056 372.814 232.522 372.814 239.586C372.814 255.396 385.657 268.212 401.5 268.212C417.343 268.212 430.186 255.396 430.186 239.586Z" fill="#F4900C"/>
<path d="M417.943 246.859C418.177 251.633 413.891 253.504 411.585 252.6C408.253 251.295 409.147 249.054 408.29 244.411C407.432 239.767 404.137 236.543 399.26 235.124C402.819 244.926 397.287 248.539 394.388 249.184C391.426 249.843 388.45 249.182 388.11 242.982C384.655 246.347 382.517 251.003 382.517 256.147C382.517 256.717 382.466 256.995 382.516 257.552C386.313 261.897 394.131 266.191 401.5 266.191C408.869 266.191 415.421 263.16 420.396 257.628C420.447 257.071 420.483 256.717 420.483 256.147C420.483 252.762 419.56 249.591 417.943 246.859Z" fill="#FFCC4D"/>
</g>
</g>
<defs>
<filter id="filter0_dd_3461_126586" x="0" y="0.000488281" width="815" height="493" filterUnits="userSpaceOnUse" color-interpolation-filters="sRGB">
<feFlood flood-opacity="0" result="BackgroundImageFix"/>
<feColorMatrix in="SourceAlpha" type="matrix" values="0 0 0 0 0 0 0 0 0 0 0 0 0 0 0 0 0 0 127 0" result="hardAlpha"/>
<feOffset dy="12"/>
<feGaussianBlur stdDeviation="12"/>
<feComposite in2="hardAlpha" operator="out"/>
<feColorMatrix type="matrix" values="0 0 0 0 1 0 0 0 0 0.482353 0 0 0 0 0.482353 0 0 0 0.05 0"/>
<feBlend mode="normal" in2="BackgroundImageFix" result="effect1_dropShadow_3461_126586"/>
<feColorMatrix in="SourceAlpha" type="matrix" values="0 0 0 0 0 0 0 0 0 0 0 0 0 0 0 0 0 0 127 0" result="hardAlpha"/>
<feOffset dx="12"/>
<feGaussianBlur stdDeviation="12"/>
<feComposite in2="hardAlpha" operator="out"/>
<feColorMatrix type="matrix" values="0 0 0 0 0.760784 0 0 0 0 0.698039 0 0 0 0 1 0 0 0 0.1 0"/>
<feBlend mode="normal" in2="effect1_dropShadow_3461_126586" result="effect2_dropShadow_3461_126586"/>
<feBlend mode="normal" in="SourceGraphic" in2="effect2_dropShadow_3461_126586" result="shape"/>
</filter>
<filter id="filter1_di_3461_126586" x="20" y="24.0005" width="763" height="441" filterUnits="userSpaceOnUse" color-interpolation-filters="sRGB">
<feFlood flood-opacity="0" result="BackgroundImageFix"/>
<feColorMatrix in="SourceAlpha" type="matrix" values="0 0 0 0 0 0 0 0 0 0 0 0 0 0 0 0 0 0 127 0" result="hardAlpha"/>
<feOffset dy="4"/>
<feGaussianBlur stdDeviation="2"/>
<feComposite in2="hardAlpha" operator="out"/>
<feColorMatrix type="matrix" values="0 0 0 0 0 0 0 0 0 0 0 0 0 0 0 0 0 0 0.25 0"/>
<feBlend mode="normal" in2="BackgroundImageFix" result="effect1_dropShadow_3461_126586"/>
<feBlend mode="normal" in="SourceGraphic" in2="effect1_dropShadow_3461_126586" result="shape"/>
<feColorMatrix in="SourceAlpha" type="matrix" values="0 0 0 0 0 0 0 0 0 0 0 0 0 0 0 0 0 0 127 0" result="hardAlpha"/>
<feOffset dy="8"/>
<feGaussianBlur stdDeviation="6"/>
<feComposite in2="hardAlpha" operator="arithmetic" k2="-1" k3="1"/>
<feColorMatrix type="matrix" values="0 0 0 0 0 0 0 0 0 0 0 0 0 0 0 0 0 0 0.15 0"/>
<feBlend mode="normal" in2="shape" result="effect2_innerShadow_3461_126586"/>
</filter>
<filter id="filter2_d_3461_126586" x="69.2759" y="182.541" width="666.184" height="127.92" filterUnits="userSpaceOnUse" color-interpolation-filters="sRGB">
<feFlood flood-opacity="0" result="BackgroundImageFix"/>
<feColorMatrix in="SourceAlpha" type="matrix" values="0 0 0 0 0 0 0 0 0 0 0 0 0 0 0 0 0 0 127 0" result="hardAlpha"/>
<feOffset dy="6"/>
<feGaussianBlur stdDeviation="6"/>
<feComposite in2="hardAlpha" operator="out"/>
<feColorMatrix type="matrix" values="0 0 0 0 0 0 0 0 0 0 0 0 0 0 0 0 0 0 0.1 0"/>
<feBlend mode="normal" in2="BackgroundImageFix" result="effect1_dropShadow_3461_126586"/>
<feBlend mode="normal" in="SourceGraphic" in2="effect1_dropShadow_3461_126586" result="shape"/>
</filter>
<clipPath id="clip0_3461_126586">
<rect width="60.7471" height="60.62" fill="white" transform="translate(110.782 211.057)"/>
</clipPath>
<clipPath id="clip1_3461_126586">
<rect width="69.4253" height="69.28" fill="white" transform="translate(194.092 195.469)"/>
</clipPath>
<clipPath id="clip2_3461_126586">
<rect width="60.7471" height="60.62" fill="white" transform="translate(284.345 211.057)"/>
</clipPath>
<clipPath id="clip3_3461_126586">
<rect width="60.7471" height="60.62" fill="white" transform="translate(457.908 211.057)"/>
</clipPath>
<clipPath id="clip4_3461_126586">
<rect width="60.7472" height="60.62" fill="white" transform="translate(544.69 211.057)"/>
</clipPath>
<clipPath id="clip5_3461_126586">
<rect width="60.7471" height="60.62" fill="white" transform="translate(631.471 211.057)"/>
</clipPath>
<clipPath id="clip6_3461_126586">
<rect width="60.7471" height="60.62" fill="white" transform="translate(371.126 207.592)"/>
</clipPath>
</defs>
</svg>
