<svg width="10" height="9" viewBox="0 0 10 9" fill="none" xmlns="http://www.w3.org/2000/svg">
<path d="M8.4857 3.93234C8.4657 3.88734 7.98603 2.83334 7.00003 2.83334C6.01436 2.83334 5.53436 3.88734 5.51436 3.93234C5.4837 4.00134 5.5037 4.08201 5.5627 4.12934C5.62103 4.17667 5.7047 4.17834 5.76603 4.13401C5.77003 4.13101 6.1867 3.83334 7.00003 3.83334C7.8087 3.83334 8.2247 4.12701 8.23403 4.13367C8.26336 4.15567 8.2987 4.16667 8.33336 4.16667C8.37003 4.16667 8.40703 4.15434 8.43736 4.13034C8.49636 4.08301 8.5167 4.00167 8.4857 3.93234ZM4.4857 3.93234C4.4657 3.88734 3.98603 2.83334 3.00003 2.83334C2.01436 2.83334 1.53436 3.88734 1.51436 3.93234C1.4837 4.00134 1.5037 4.08201 1.56236 4.12934C1.62103 4.17667 1.7047 4.17834 1.7657 4.13401C1.77003 4.13101 2.18636 3.83334 3.00003 3.83334C3.8087 3.83334 4.2247 4.12701 4.23403 4.13367C4.26336 4.15567 4.2987 4.16667 4.33336 4.16667C4.37003 4.16667 4.40703 4.15434 4.43736 4.13034C4.4967 4.08301 4.51636 4.00167 4.4857 3.93234ZM9.33336 3.33334C9.20136 3.33334 9.07603 3.25401 9.0237 3.12367C8.43103 1.64201 6.94936 1.33001 6.93436 1.32667C6.75403 1.29067 6.6367 1.11501 6.67303 0.93434C6.70903 0.753673 6.8847 0.63734 7.06536 0.673006C7.1407 0.688006 8.91736 1.06234 9.6427 2.87567C9.71103 3.04667 9.6277 3.24067 9.4567 3.30901C9.4167 3.32567 9.3747 3.33334 9.33336 3.33334ZM0.666696 3.33334C0.625363 3.33334 0.583696 3.32567 0.543029 3.30934C0.372029 3.24101 0.289029 3.04701 0.357363 2.87601C1.0827 1.06267 2.85936 0.68834 2.9347 0.67334C3.1157 0.638006 3.2907 0.75434 3.32703 0.934673C3.36303 1.11467 3.24636 1.29001 3.0667 1.32667C3.00503 1.33934 1.5647 1.65334 0.976363 3.12367C0.924029 3.25401 0.798696 3.33334 0.666696 3.33334ZM5.00003 5.33334C3.79236 5.33334 2.99103 5.19267 2.00003 5.00001C1.7737 4.95634 1.33336 5.00001 1.33336 5.66667C1.33336 7.00001 2.86503 8.66667 5.00003 8.66667C7.1347 8.66667 8.6667 7.00001 8.6667 5.66667C8.6667 5.00001 8.22636 4.95601 8.00003 5.00001C7.00903 5.19267 6.2077 5.33334 5.00003 5.33334Z" fill="#664500"/>
</svg>
