<svg width="8" height="11" viewBox="0 0 8 11" fill="none" xmlns="http://www.w3.org/2000/svg">
<path d="M7.2983 3.2642L6.95028 4.49219H0.432528L0.78054 3.2642H7.2983ZM4.12642 11L0.566761 6.67969L0.556818 5.71023H2.32173C2.76255 5.71023 3.13542 5.64228 3.44034 5.50639C3.74527 5.3705 3.97727 5.1733 4.13636 4.91477C4.29545 4.65294 4.375 4.33475 4.375 3.96023C4.375 3.40341 4.20928 2.96094 3.87784 2.63281C3.5464 2.30469 3.0277 2.14062 2.32173 2.14062H0.432528L0.795455 0.818182H2.32173C3.1437 0.818182 3.8215 0.9491 4.35511 1.21094C4.88873 1.47277 5.28646 1.8357 5.5483 2.29972C5.81013 2.76373 5.94105 3.29901 5.94105 3.90554C5.94105 4.44579 5.83333 4.93466 5.6179 5.37216C5.40246 5.80966 5.05942 6.16596 4.58878 6.44105C4.11813 6.71615 3.5 6.87689 2.73438 6.9233L2.68963 6.93324L5.94105 10.9155V11H4.12642ZM7.30327 0.818182L6.95028 2.05611L1.74006 2.02628L2.09304 0.818182H7.30327Z" fill="#5B6CFF"/>
</svg>
