<svg width="245" height="65" viewBox="0 0 245 65" fill="none" xmlns="http://www.w3.org/2000/svg">
<rect width="245" height="65" rx="5" fill="#5589FF"/>
<path d="M117.3 28.1307C117.209 27.3239 116.834 26.6989 116.175 26.2557C115.516 25.8068 114.686 25.5824 113.686 25.5824C112.971 25.5824 112.351 25.696 111.828 25.9233C111.306 26.1449 110.899 26.4517 110.61 26.8438C110.326 27.2301 110.184 27.6705 110.184 28.1648C110.184 28.5795 110.28 28.9375 110.473 29.2386C110.672 29.5398 110.931 29.7926 111.249 29.9972C111.573 30.196 111.919 30.3636 112.289 30.5C112.658 30.6307 113.013 30.7386 113.354 30.8239L115.059 31.267C115.615 31.4034 116.186 31.5881 116.772 31.821C117.357 32.054 117.899 32.3608 118.399 32.7415C118.899 33.1222 119.303 33.5938 119.61 34.1562C119.922 34.7188 120.078 35.392 120.078 36.1761C120.078 37.1648 119.823 38.0426 119.311 38.8097C118.806 39.5767 118.07 40.1818 117.104 40.625C116.144 41.0682 114.982 41.2898 113.618 41.2898C112.311 41.2898 111.181 41.0824 110.226 40.6676C109.272 40.2528 108.524 39.6648 107.985 38.9034C107.445 38.1364 107.147 37.2273 107.09 36.1761H109.732C109.783 36.8068 109.988 37.3324 110.346 37.7528C110.709 38.1676 111.172 38.4773 111.735 38.6818C112.303 38.8807 112.925 38.9801 113.601 38.9801C114.346 38.9801 115.007 38.8636 115.587 38.6307C116.172 38.392 116.632 38.0625 116.968 37.642C117.303 37.2159 117.471 36.7187 117.471 36.1506C117.471 35.6335 117.323 35.2102 117.027 34.8807C116.738 34.5511 116.343 34.2784 115.843 34.0625C115.348 33.8466 114.789 33.6562 114.164 33.4915L112.101 32.929C110.703 32.5483 109.596 31.9886 108.777 31.25C107.965 30.5114 107.559 29.5341 107.559 28.3182C107.559 27.3125 107.831 26.4347 108.377 25.6847C108.922 24.9347 109.661 24.3523 110.593 23.9375C111.524 23.517 112.576 23.3068 113.746 23.3068C114.928 23.3068 115.971 23.5142 116.874 23.929C117.783 24.3438 118.499 24.9148 119.022 25.642C119.544 26.3636 119.817 27.1932 119.84 28.1307H117.3ZM128.663 41.2642C127.373 41.2642 126.262 40.9886 125.331 40.4375C124.404 39.8807 123.689 39.0994 123.183 38.0938C122.683 37.0824 122.433 35.8977 122.433 34.5398C122.433 33.1989 122.683 32.017 123.183 30.9943C123.689 29.9716 124.393 29.1733 125.296 28.5994C126.206 28.0256 127.268 27.7386 128.484 27.7386C129.223 27.7386 129.939 27.8608 130.632 28.1051C131.325 28.3494 131.947 28.733 132.498 29.2557C133.049 29.7784 133.484 30.4574 133.802 31.2926C134.12 32.1222 134.279 33.1307 134.279 34.3182V35.2216H123.873V33.3125H131.782C131.782 32.642 131.646 32.0483 131.373 31.5312C131.1 31.0085 130.717 30.5966 130.223 30.2955C129.734 29.9943 129.16 29.8438 128.501 29.8438C127.785 29.8438 127.16 30.0199 126.626 30.3722C126.098 30.7187 125.689 31.1733 125.399 31.7358C125.115 32.2926 124.973 32.8977 124.973 33.5511V35.0426C124.973 35.9176 125.126 36.6619 125.433 37.2756C125.745 37.8892 126.18 38.358 126.737 38.6818C127.294 39 127.944 39.1591 128.689 39.1591C129.171 39.1591 129.612 39.0909 130.01 38.9545C130.407 38.8125 130.751 38.6023 131.041 38.3239C131.331 38.0455 131.552 37.7017 131.706 37.2926L134.118 37.7273C133.924 38.4375 133.578 39.0597 133.078 39.5938C132.583 40.1222 131.961 40.5341 131.211 40.8295C130.467 41.1193 129.618 41.2642 128.663 41.2642ZM139.655 33.2273V41H137.107V27.9091H139.553V30.0398H139.715C140.016 29.3466 140.488 28.7898 141.13 28.3693C141.777 27.9489 142.593 27.7386 143.576 27.7386C144.468 27.7386 145.249 27.9261 145.919 28.3011C146.59 28.6705 147.11 29.2216 147.479 29.9545C147.848 30.6875 148.033 31.5937 148.033 32.6733V41H145.485V32.9801C145.485 32.0312 145.238 31.2898 144.743 30.7557C144.249 30.2159 143.57 29.946 142.706 29.946C142.115 29.946 141.59 30.0739 141.13 30.3295C140.675 30.5852 140.314 30.9602 140.047 31.4545C139.786 31.9432 139.655 32.5341 139.655 33.2273ZM156.351 41.2557C155.294 41.2557 154.351 40.9858 153.522 40.446C152.698 39.9006 152.05 39.125 151.578 38.1193C151.113 37.108 150.88 35.8949 150.88 34.4801C150.88 33.0653 151.115 31.8551 151.587 30.8494C152.064 29.8437 152.718 29.0739 153.547 28.5398C154.377 28.0057 155.317 27.7386 156.368 27.7386C157.181 27.7386 157.834 27.875 158.328 28.1477C158.828 28.4148 159.215 28.7273 159.488 29.0852C159.766 29.4432 159.982 29.7585 160.135 30.0312H160.289V23.5455H162.837V41H160.348V38.9631H160.135C159.982 39.2415 159.76 39.5597 159.471 39.9176C159.186 40.2756 158.794 40.5881 158.294 40.8551C157.794 41.1222 157.147 41.2557 156.351 41.2557ZM156.914 39.0824C157.647 39.0824 158.266 38.8892 158.772 38.5028C159.283 38.1108 159.669 37.5682 159.931 36.875C160.198 36.1818 160.331 35.375 160.331 34.4545C160.331 33.5455 160.201 32.75 159.939 32.0682C159.678 31.3864 159.294 30.8551 158.789 30.4744C158.283 30.0937 157.658 29.9034 156.914 29.9034C156.147 29.9034 155.507 30.1023 154.996 30.5C154.485 30.8977 154.098 31.4403 153.837 32.1278C153.581 32.8153 153.453 33.5909 153.453 34.4545C153.453 35.3295 153.584 36.1165 153.846 36.8153C154.107 37.5142 154.493 38.0682 155.005 38.4773C155.522 38.8807 156.158 39.0824 156.914 39.0824Z" fill="white"/>
<path d="M94.3211 23.083L82.6605 34.5413" stroke="black" stroke-width="1.5" stroke-linecap="round" stroke-linejoin="round"/>
<path d="M94.3211 23.083L86.9007 43.9163L82.6605 34.5413L73.1201 30.3747L94.3211 23.083Z" fill="white" stroke="white" stroke-width="1.5" stroke-linecap="round" stroke-linejoin="round"/>
</svg>
