
    <svg
      width="876"
      height="1142"
      viewBox="0 0 876 1142"
      fill="none"
      xmlns="http://www.w3.org/2000/svg"
    >
      <mask
        id="mask0_6968_154581"
        style="mask-type:alpha"
        maskUnits="userSpaceOnUse"
        x="0"
        y="89"
        width="876"
        height="620"
      >
        <path
          d="M557.999 90.4446C440.132 145.408 256.753 274.735 174.982 336.113C172.472 337.997 171.075 340.898 171.075 344.037V363.823L43.5676 397.34C38.9437 398.555 34.1062 396.327 32.0238 392.024L26.4026 380.407C24.9054 377.312 25.1024 373.666 26.9242 370.751L58.387 320.411C58.6711 319.956 59.1258 319.635 59.6491 319.518L86.13 313.634C86.5013 313.551 86.8414 313.365 87.1103 313.096L114.859 285.347C115.171 285.035 115.372 284.631 115.422 284.193C116.641 273.401 113.665 260.61 110.833 251.999C110.203 250.084 107.516 250.363 107.048 252.325C104.362 263.596 100.161 269.072 97.8722 270.71C97.6539 270.867 97.3988 270.951 97.1329 270.989L60.0591 276.179C59.3069 276.284 58.6792 276.807 58.439 277.527L48.9288 306.058C48.8232 306.375 48.6574 306.641 48.4191 306.875C39.3746 315.749 15.258 355.009 2.26529 377.002C0.816115 379.455 0.500824 382.404 1.37674 385.115L14.5923 426.02C15.6303 429.233 18.2282 431.664 21.6025 431.782C45.1137 432.603 120.635 421.256 158.689 414.914L121.533 639.401C137.738 669.65 159.047 695.423 171.076 708.193C171.863 709.028 174.475 707.618 174.357 706.477C172.771 691.039 174.248 654.428 175.513 632.763C175.644 630.533 175.032 628.337 173.766 626.496L167.204 616.952C205.651 569.99 287.344 473.125 306.541 461.359C330.538 446.651 455.941 438.911 485.357 430.396C508.889 423.583 574.12 390.917 603.793 375.435L564.314 435.04H532.574C527.338 435.04 522.988 439.079 522.601 444.301L519.892 480.883C519.33 488.467 527.102 493.877 534.019 490.718L581.344 469.1C609.212 443.091 641.982 395.819 654.883 375.435L610.76 328.215L666.495 291.059V379.816C666.495 382.912 667.928 385.833 670.377 387.726L714.415 421.783C719.563 425.764 727.082 423.845 729.693 417.884L765.579 335.956C776.106 347.722 793.704 354.276 801.187 356.083C825.958 350.509 846.601 331.57 853.825 322.796C843.917 328.37 814.605 330.795 801.187 331.312L776.416 306.541L781.061 294.929C789.111 302.98 810.508 312.379 823.636 311.185C848.882 308.89 866.568 283.155 875.198 270.598L875.5 270.158C863.115 280.686 833.699 289.51 825.184 287.188C817.106 284.985 799.381 268.352 791.124 262.417L793.386 253.822C794.368 250.088 793.137 246.132 790.157 243.678C730.969 194.93 620.504 123.817 567.277 91.0181C564.446 89.2738 561.013 89.0394 557.999 90.4446Z"
          fill="#08415C"
          stroke="#9845DB"
        />
      </mask>
      <g mask="url(#mask0_6968_154581)">
        <rect
          x="103.729"
          y="44.8975"
          width="108.373"
          height="668.817"
          rx="10"
          fill="#023047"
        />
        <rect
          x="-35.6094"
          y="44.8975"
          width="108.373"
          height="668.817"
          rx="10"
          fill="#023047"
        />
        <rect
          x="382.402"
          y="44.8975"
          width="108.373"
          height="668.817"
          rx="10"
          fill="#023047"
        />
        <rect
          x="528.061"
          y="67"
          width="108.373"
          height="668.817"
          rx="10"
          fill="#023047"
        />
        <rect
          x="661.076"
          y="44.8975"
          width="108.373"
          height="668.817"
          rx="10"
          fill="#023047"
        />
        <rect
          x="800.412"
          y="44.8975"
          width="108.373"
          height="668.817"
          rx="10"
          fill="#023047"
        />
        <rect
          x="243.066"
          y="44.8975"
          width="108.373"
          height="668.817"
          rx="10"
          fill="#023047"
        />
      </g>
      <path
        d="M180.625 836V1018H143.25V836H180.625ZM236.625 836V865.375H88.125V836H236.625ZM371.125 881.625L364.75 905.875H246.875L253.375 881.625H371.125ZM310.75 1018L250.5 946.625L250.375 925.25H279.75C286.583 925.25 292.208 923.917 296.625 921.25C301.042 918.583 304.333 915 306.5 910.5C308.667 905.917 309.75 900.833 309.75 895.25C309.75 889.417 308.75 884.25 306.75 879.75C304.75 875.25 301.542 871.75 297.125 869.25C292.708 866.667 286.833 865.375 279.5 865.375H247L254.375 836H279.5C294.5 836 307 838.25 317 842.75C327 847.25 334.5 853.75 339.5 862.25C344.5 870.667 347 880.875 347 892.875C347 903.375 345.333 912.583 342 920.5C338.667 928.417 333.375 934.958 326.125 940.125C318.875 945.208 309.333 948.792 297.5 950.875L351.75 1016.25V1018H310.75ZM371.375 836L364.875 860.125H267.25L273.75 836H371.375ZM436.148 838.288V1018H392.372V838.288H436.148ZM576.672 925.84C587.083 928.059 595.445 933.264 601.76 941.456C608.075 949.477 611.232 958.693 611.232 969.104C611.232 984.123 605.941 996.069 595.36 1004.94C584.949 1013.65 570.357 1018 551.584 1018H467.872V838.288H548.768C567.029 838.288 581.28 842.469 591.52 850.832C601.931 859.195 607.136 870.544 607.136 884.88C607.136 895.461 604.32 904.251 598.688 911.248C593.227 918.245 585.888 923.109 576.672 925.84ZM511.648 910.992H540.32C547.488 910.992 552.949 909.456 556.704 906.384C560.629 903.141 562.592 898.448 562.592 892.304C562.592 886.16 560.629 881.467 556.704 878.224C552.949 874.981 547.488 873.36 540.32 873.36H511.648V910.992ZM543.904 982.672C551.243 982.672 556.875 981.051 560.8 977.808C564.896 974.395 566.944 969.531 566.944 963.216C566.944 956.901 564.811 951.952 560.544 948.368C556.448 944.784 550.731 942.992 543.392 942.992H511.648V982.672H543.904ZM680.398 873.36V909.712H739.022V943.504H680.398V982.928H746.702V1018H636.622V838.288H746.702V873.36H680.398Z"
        fill="#023047"
      />
      <path
        d="M182.245 1069.43C180.805 1069.43 179.621 1069.02 178.693 1068.18C177.797 1067.32 177.349 1066.26 177.349 1065.02C177.349 1063.74 177.797 1062.68 178.693 1061.85C179.621 1060.98 180.805 1060.55 182.245 1060.55C183.653 1060.55 184.805 1060.98 185.701 1061.85C186.629 1062.68 187.093 1063.74 187.093 1065.02C187.093 1066.26 186.629 1067.32 185.701 1068.18C184.805 1069.02 183.653 1069.43 182.245 1069.43ZM186.325 1072.22V1099H178.117V1072.22H186.325ZM208.593 1071.93C211.729 1071.93 214.225 1072.95 216.081 1075C217.969 1077.02 218.913 1079.8 218.913 1083.35V1099H210.753V1084.46C210.753 1082.66 210.289 1081.27 209.361 1080.28C208.433 1079.29 207.185 1078.79 205.617 1078.79C204.049 1078.79 202.801 1079.29 201.873 1080.28C200.945 1081.27 200.481 1082.66 200.481 1084.46V1099H192.273V1072.22H200.481V1075.77C201.313 1074.58 202.433 1073.66 203.841 1072.98C205.249 1072.28 206.833 1071.93 208.593 1071.93ZM236.665 1091.32L242.473 1072.22H251.209L241.705 1099H231.577L222.073 1072.22H230.857L236.665 1091.32ZM279.911 1085.18C279.911 1085.94 279.864 1086.74 279.768 1087.58H261.192C261.32 1089.24 261.848 1090.52 262.776 1091.42C263.736 1092.28 264.904 1092.71 266.28 1092.71C268.328 1092.71 269.752 1091.85 270.552 1090.12H279.288C278.84 1091.88 278.024 1093.46 276.84 1094.87C275.688 1096.28 274.232 1097.38 272.472 1098.18C270.712 1098.98 268.744 1099.38 266.568 1099.38C263.944 1099.38 261.608 1098.82 259.56 1097.7C257.512 1096.58 255.912 1094.98 254.76 1092.9C253.608 1090.82 253.032 1088.39 253.032 1085.61C253.032 1082.82 253.592 1080.39 254.712 1078.31C255.864 1076.23 257.464 1074.63 259.512 1073.51C261.56 1072.39 263.912 1071.83 266.568 1071.83C269.16 1071.83 271.464 1072.38 273.48 1073.46C275.496 1074.55 277.064 1076.1 278.184 1078.12C279.336 1080.14 279.911 1082.49 279.911 1085.18ZM271.512 1083.02C271.512 1081.61 271.032 1080.49 270.072 1079.66C269.112 1078.82 267.912 1078.41 266.472 1078.41C265.096 1078.41 263.928 1078.81 262.968 1079.61C262.04 1080.41 261.464 1081.54 261.24 1083.02H271.512ZM295.138 1099.38C292.802 1099.38 290.722 1098.98 288.898 1098.18C287.074 1097.38 285.634 1096.3 284.578 1094.92C283.522 1093.51 282.93 1091.94 282.802 1090.22H290.914C291.01 1091.14 291.442 1091.9 292.21 1092.47C292.978 1093.05 293.922 1093.34 295.042 1093.34C296.066 1093.34 296.85 1093.14 297.394 1092.76C297.97 1092.34 298.258 1091.82 298.258 1091.18C298.258 1090.41 297.858 1089.85 297.058 1089.5C296.258 1089.11 294.962 1088.7 293.17 1088.25C291.25 1087.8 289.65 1087.34 288.37 1086.86C287.09 1086.34 285.986 1085.56 285.058 1084.5C284.13 1083.42 283.666 1081.96 283.666 1080.14C283.666 1078.6 284.082 1077.21 284.914 1075.96C285.778 1074.68 287.026 1073.67 288.658 1072.94C290.322 1072.2 292.29 1071.83 294.562 1071.83C297.922 1071.83 300.562 1072.66 302.482 1074.33C304.434 1075.99 305.554 1078.2 305.842 1080.95H298.258C298.13 1080.02 297.714 1079.29 297.01 1078.74C296.338 1078.2 295.442 1077.93 294.322 1077.93C293.362 1077.93 292.626 1078.12 292.114 1078.5C291.602 1078.86 291.346 1079.35 291.346 1079.99C291.346 1080.76 291.746 1081.34 292.546 1081.72C293.378 1082.1 294.658 1082.49 296.386 1082.87C298.37 1083.38 299.986 1083.9 301.234 1084.41C302.482 1084.89 303.57 1085.69 304.498 1086.81C305.458 1087.9 305.954 1089.37 305.986 1091.22C305.986 1092.79 305.538 1094.2 304.642 1095.45C303.778 1096.66 302.514 1097.62 300.85 1098.33C299.218 1099.03 297.314 1099.38 295.138 1099.38ZM325.935 1092.04V1099H321.759C318.783 1099 316.463 1098.28 314.799 1096.84C313.135 1095.37 312.303 1092.98 312.303 1089.69V1079.03H309.039V1072.22H312.303V1065.69H320.511V1072.22H325.887V1079.03H320.511V1089.78C320.511 1090.58 320.703 1091.16 321.087 1091.51C321.471 1091.86 322.111 1092.04 323.007 1092.04H325.935ZM348.887 1076.01C349.655 1074.76 350.759 1073.75 352.199 1072.98C353.639 1072.22 355.287 1071.83 357.143 1071.83C359.351 1071.83 361.351 1072.39 363.143 1073.51C364.935 1074.63 366.343 1076.23 367.367 1078.31C368.423 1080.39 368.951 1082.81 368.951 1085.56C368.951 1088.31 368.423 1090.74 367.367 1092.86C366.343 1094.94 364.935 1096.55 363.143 1097.7C361.351 1098.82 359.351 1099.38 357.143 1099.38C355.255 1099.38 353.607 1099.02 352.199 1098.28C350.791 1097.51 349.687 1096.5 348.887 1095.26V1099H340.679V1063.48H348.887V1076.01ZM360.599 1085.56C360.599 1083.51 360.023 1081.91 358.871 1080.76C357.751 1079.58 356.359 1078.98 354.695 1078.98C353.063 1078.98 351.671 1079.58 350.519 1080.76C349.399 1081.94 348.839 1083.56 348.839 1085.61C348.839 1087.66 349.399 1089.27 350.519 1090.46C351.671 1091.64 353.063 1092.23 354.695 1092.23C356.327 1092.23 357.719 1091.64 358.871 1090.46C360.023 1089.24 360.599 1087.61 360.599 1085.56ZM398.505 1085.18C398.505 1085.94 398.457 1086.74 398.361 1087.58H379.785C379.913 1089.24 380.441 1090.52 381.369 1091.42C382.329 1092.28 383.497 1092.71 384.873 1092.71C386.921 1092.71 388.345 1091.85 389.145 1090.12H397.881C397.433 1091.88 396.617 1093.46 395.433 1094.87C394.281 1096.28 392.825 1097.38 391.065 1098.18C389.305 1098.98 387.337 1099.38 385.161 1099.38C382.537 1099.38 380.201 1098.82 378.153 1097.7C376.105 1096.58 374.505 1094.98 373.353 1092.9C372.201 1090.82 371.625 1088.39 371.625 1085.61C371.625 1082.82 372.185 1080.39 373.305 1078.31C374.457 1076.23 376.057 1074.63 378.105 1073.51C380.153 1072.39 382.505 1071.83 385.161 1071.83C387.753 1071.83 390.057 1072.38 392.073 1073.46C394.089 1074.55 395.657 1076.1 396.777 1078.12C397.929 1080.14 398.505 1082.49 398.505 1085.18ZM390.105 1083.02C390.105 1081.61 389.625 1080.49 388.665 1079.66C387.705 1078.82 386.505 1078.41 385.065 1078.41C383.689 1078.41 382.521 1078.81 381.561 1079.61C380.633 1080.41 380.057 1081.54 379.833 1083.02H390.105ZM417.763 1092.04V1099H413.587C410.611 1099 408.291 1098.28 406.627 1096.84C404.963 1095.37 404.131 1092.98 404.131 1089.69V1079.03H400.867V1072.22H404.131V1065.69H412.339V1072.22H417.715V1079.03H412.339V1089.78C412.339 1090.58 412.531 1091.16 412.915 1091.51C413.299 1091.86 413.939 1092.04 414.835 1092.04H417.763ZM437.263 1092.04V1099H433.087C430.111 1099 427.791 1098.28 426.127 1096.84C424.463 1095.37 423.631 1092.98 423.631 1089.69V1079.03H420.367V1072.22H423.631V1065.69H431.839V1072.22H437.215V1079.03H431.839V1089.78C431.839 1090.58 432.031 1091.16 432.415 1091.51C432.799 1091.86 433.439 1092.04 434.335 1092.04H437.263ZM467.083 1085.18C467.083 1085.94 467.035 1086.74 466.939 1087.58H448.363C448.491 1089.24 449.019 1090.52 449.947 1091.42C450.907 1092.28 452.075 1092.71 453.451 1092.71C455.499 1092.71 456.923 1091.85 457.723 1090.12H466.459C466.011 1091.88 465.195 1093.46 464.011 1094.87C462.859 1096.28 461.403 1097.38 459.643 1098.18C457.883 1098.98 455.915 1099.38 453.739 1099.38C451.115 1099.38 448.779 1098.82 446.731 1097.7C444.683 1096.58 443.083 1094.98 441.931 1092.9C440.779 1090.82 440.203 1088.39 440.203 1085.61C440.203 1082.82 440.763 1080.39 441.883 1078.31C443.035 1076.23 444.635 1074.63 446.683 1073.51C448.731 1072.39 451.083 1071.83 453.739 1071.83C456.331 1071.83 458.635 1072.38 460.651 1073.46C462.667 1074.55 464.235 1076.1 465.355 1078.12C466.507 1080.14 467.083 1082.49 467.083 1085.18ZM458.683 1083.02C458.683 1081.61 458.203 1080.49 457.243 1079.66C456.283 1078.82 455.083 1078.41 453.643 1078.41C452.267 1078.41 451.099 1078.81 450.139 1079.61C449.211 1080.41 448.635 1081.54 448.411 1083.02H458.683ZM479.622 1076.68C480.582 1075.21 481.782 1074.06 483.222 1073.22C484.662 1072.36 486.262 1071.93 488.022 1071.93V1080.62H485.766C483.718 1080.62 482.182 1081.06 481.158 1081.96C480.134 1082.82 479.622 1084.36 479.622 1086.57V1099H471.414V1072.22H479.622V1076.68ZM495.785 1099.38C494.345 1099.38 493.161 1098.97 492.233 1098.14C491.337 1097.27 490.889 1096.22 490.889 1094.97C490.889 1093.69 491.337 1092.62 492.233 1091.75C493.161 1090.89 494.345 1090.46 495.785 1090.46C497.193 1090.46 498.345 1090.89 499.241 1091.75C500.169 1092.62 500.633 1093.69 500.633 1094.97C500.633 1096.22 500.169 1097.27 499.241 1098.14C498.345 1098.97 497.193 1099.38 495.785 1099.38ZM530.592 1092.04V1099H526.416C523.44 1099 521.12 1098.28 519.456 1096.84C517.792 1095.37 516.96 1092.98 516.96 1089.69V1079.03H513.696V1072.22H516.96V1065.69H525.168V1072.22H530.544V1079.03H525.168V1089.78C525.168 1090.58 525.36 1091.16 525.744 1091.51C526.128 1091.86 526.768 1092.04 527.664 1092.04H530.592ZM547.356 1099.38C544.732 1099.38 542.364 1098.82 540.252 1097.7C538.172 1096.58 536.524 1094.98 535.308 1092.9C534.124 1090.82 533.532 1088.39 533.532 1085.61C533.532 1082.86 534.14 1080.44 535.355 1078.36C536.572 1076.25 538.236 1074.63 540.348 1073.51C542.46 1072.39 544.828 1071.83 547.452 1071.83C550.076 1071.83 552.444 1072.39 554.556 1073.51C556.668 1074.63 558.332 1076.25 559.548 1078.36C560.764 1080.44 561.372 1082.86 561.372 1085.61C561.372 1088.36 560.748 1090.79 559.5 1092.9C558.284 1094.98 556.604 1096.58 554.46 1097.7C552.348 1098.82 549.98 1099.38 547.356 1099.38ZM547.356 1092.28C548.924 1092.28 550.252 1091.7 551.34 1090.55C552.46 1089.4 553.02 1087.75 553.02 1085.61C553.02 1083.46 552.476 1081.82 551.388 1080.66C550.332 1079.51 549.02 1078.94 547.452 1078.94C545.852 1078.94 544.524 1079.51 543.468 1080.66C542.412 1081.78 541.884 1083.43 541.884 1085.61C541.884 1087.75 542.396 1089.4 543.42 1090.55C544.476 1091.7 545.788 1092.28 547.356 1092.28ZM575.902 1071.83C577.79 1071.83 579.438 1072.22 580.846 1072.98C582.286 1073.75 583.39 1074.76 584.158 1076.01V1072.22H592.366V1098.95C592.366 1101.42 591.87 1103.64 590.878 1105.62C589.918 1107.64 588.43 1109.24 586.414 1110.42C584.43 1111.61 581.95 1112.2 578.974 1112.2C575.006 1112.2 571.79 1111.26 569.326 1109.37C566.862 1107.51 565.454 1104.98 565.102 1101.78H573.214C573.47 1102.81 574.078 1103.61 575.038 1104.18C575.998 1104.79 577.182 1105.1 578.59 1105.1C580.286 1105.1 581.63 1104.6 582.622 1103.61C583.646 1102.65 584.158 1101.1 584.158 1098.95V1095.16C583.358 1096.41 582.254 1097.43 580.846 1098.23C579.438 1099 577.79 1099.38 575.902 1099.38C573.694 1099.38 571.694 1098.82 569.902 1097.7C568.11 1096.55 566.686 1094.94 565.63 1092.86C564.606 1090.74 564.094 1088.31 564.094 1085.56C564.094 1082.81 564.606 1080.39 565.63 1078.31C566.686 1076.23 568.11 1074.63 569.902 1073.51C571.694 1072.39 573.694 1071.83 575.902 1071.83ZM584.158 1085.61C584.158 1083.56 583.582 1081.94 582.43 1080.76C581.31 1079.58 579.934 1078.98 578.302 1078.98C576.67 1078.98 575.278 1079.58 574.126 1080.76C573.006 1081.91 572.446 1083.51 572.446 1085.56C572.446 1087.61 573.006 1089.24 574.126 1090.46C575.278 1091.64 576.67 1092.23 578.302 1092.23C579.934 1092.23 581.31 1091.64 582.43 1090.46C583.582 1089.27 584.158 1087.66 584.158 1085.61ZM623.552 1085.18C623.552 1085.94 623.504 1086.74 623.408 1087.58H604.832C604.96 1089.24 605.488 1090.52 606.416 1091.42C607.376 1092.28 608.544 1092.71 609.92 1092.71C611.968 1092.71 613.392 1091.85 614.192 1090.12H622.928C622.48 1091.88 621.664 1093.46 620.48 1094.87C619.328 1096.28 617.872 1097.38 616.112 1098.18C614.352 1098.98 612.384 1099.38 610.208 1099.38C607.584 1099.38 605.248 1098.82 603.2 1097.7C601.152 1096.58 599.552 1094.98 598.4 1092.9C597.248 1090.82 596.672 1088.39 596.672 1085.61C596.672 1082.82 597.232 1080.39 598.352 1078.31C599.504 1076.23 601.104 1074.63 603.152 1073.51C605.2 1072.39 607.552 1071.83 610.208 1071.83C612.8 1071.83 615.104 1072.38 617.12 1073.46C619.136 1074.55 620.704 1076.1 621.824 1078.12C622.976 1080.14 623.552 1082.49 623.552 1085.18ZM615.152 1083.02C615.152 1081.61 614.672 1080.49 613.712 1079.66C612.752 1078.82 611.552 1078.41 610.112 1078.41C608.736 1078.41 607.568 1078.81 606.608 1079.61C605.68 1080.41 605.104 1081.54 604.88 1083.02H615.152ZM642.81 1092.04V1099H638.634C635.658 1099 633.338 1098.28 631.674 1096.84C630.01 1095.37 629.178 1092.98 629.178 1089.69V1079.03H625.914V1072.22H629.178V1065.69H637.386V1072.22H642.762V1079.03H637.386V1089.78C637.386 1090.58 637.578 1091.16 637.962 1091.51C638.346 1091.86 638.986 1092.04 639.882 1092.04H642.81ZM663.846 1071.93C666.918 1071.93 669.382 1072.95 671.238 1075C673.094 1077.02 674.022 1079.8 674.022 1083.35V1099H665.862V1084.46C665.862 1082.66 665.398 1081.27 664.47 1080.28C663.542 1079.29 662.294 1078.79 660.726 1078.79C659.158 1078.79 657.91 1079.29 656.982 1080.28C656.054 1081.27 655.59 1082.66 655.59 1084.46V1099H647.382V1063.48H655.59V1075.82C656.422 1074.63 657.558 1073.69 658.998 1072.98C660.438 1072.28 662.054 1071.93 663.846 1071.93ZM704.974 1085.18C704.974 1085.94 704.926 1086.74 704.83 1087.58H686.254C686.382 1089.24 686.91 1090.52 687.838 1091.42C688.798 1092.28 689.966 1092.71 691.342 1092.71C693.39 1092.71 694.814 1091.85 695.614 1090.12H704.35C703.902 1091.88 703.086 1093.46 701.902 1094.87C700.75 1096.28 699.294 1097.38 697.534 1098.18C695.774 1098.98 693.806 1099.38 691.63 1099.38C689.006 1099.38 686.67 1098.82 684.622 1097.7C682.574 1096.58 680.974 1094.98 679.822 1092.9C678.67 1090.82 678.094 1088.39 678.094 1085.61C678.094 1082.82 678.654 1080.39 679.774 1078.31C680.926 1076.23 682.526 1074.63 684.574 1073.51C686.622 1072.39 688.974 1071.83 691.63 1071.83C694.222 1071.83 696.526 1072.38 698.542 1073.46C700.558 1074.55 702.126 1076.1 703.246 1078.12C704.398 1080.14 704.974 1082.49 704.974 1085.18ZM696.574 1083.02C696.574 1081.61 696.094 1080.49 695.134 1079.66C694.174 1078.82 692.974 1078.41 691.534 1078.41C690.158 1078.41 688.99 1078.81 688.03 1079.61C687.102 1080.41 686.526 1081.54 686.302 1083.02H696.574ZM717.512 1076.68C718.472 1075.21 719.672 1074.06 721.112 1073.22C722.552 1072.36 724.152 1071.93 725.912 1071.93V1080.62H723.656C721.608 1080.62 720.072 1081.06 719.048 1081.96C718.024 1082.82 717.512 1084.36 717.512 1086.57V1099H709.304V1072.22H717.512V1076.68Z"
        fill="#767676"
      />
      <path
        d="M107.688 776.304L101.736 810H93.528L99.48 776.304H107.688ZM128.756 782.928C131.444 782.928 133.556 783.68 135.092 785.184C136.628 786.688 137.396 788.784 137.396 791.472C137.396 792.368 137.3 793.328 137.108 794.352L134.324 810H126.164L128.756 795.456C128.852 794.912 128.9 794.432 128.9 794.016C128.9 792.672 128.516 791.632 127.748 790.896C127.012 790.16 125.972 789.792 124.628 789.792C123.028 789.792 121.684 790.288 120.596 791.28C119.508 792.272 118.804 793.664 118.484 795.456V795.216L115.892 810H107.684L112.388 783.216H120.596L119.972 786.816C121.028 785.632 122.308 784.688 123.812 783.984C125.348 783.28 126.996 782.928 128.756 782.928ZM153.42 802.32L162.636 783.216H171.42L157.164 810H146.988L142.236 783.216H150.972L153.42 802.32ZM186.779 782.832C190.235 782.832 192.971 783.776 194.987 785.664C197.035 787.52 198.059 790.064 198.059 793.296C198.059 794.352 197.979 795.296 197.819 796.128C197.691 796.864 197.499 797.648 197.243 798.48H178.667C178.635 798.672 178.619 798.976 178.619 799.392C178.619 800.8 179.003 801.872 179.771 802.608C180.539 803.344 181.563 803.712 182.843 803.712C184.891 803.712 186.459 802.848 187.547 801.12H196.283C195.131 803.84 193.259 806.064 190.667 807.792C188.075 809.52 185.163 810.384 181.931 810.384C178.475 810.384 175.707 809.424 173.627 807.504C171.579 805.584 170.555 802.976 170.555 799.68C170.555 798.688 170.651 797.664 170.843 796.608C171.323 793.824 172.315 791.392 173.819 789.312C175.323 787.232 177.195 785.632 179.435 784.512C181.675 783.392 184.123 782.832 186.779 782.832ZM189.755 794.304C189.819 793.856 189.851 793.552 189.851 793.392C189.851 792.112 189.451 791.136 188.651 790.464C187.851 789.76 186.795 789.408 185.483 789.408C184.075 789.408 182.827 789.84 181.739 790.704C180.683 791.536 179.915 792.736 179.435 794.304H189.755ZM210.789 810.384C208.677 810.384 206.773 810.048 205.077 809.376C203.413 808.704 202.101 807.776 201.141 806.592C200.181 805.376 199.701 803.984 199.701 802.416C199.701 802.192 199.733 801.792 199.797 801.216H207.717C207.653 802.208 207.941 803.008 208.581 803.616C209.253 804.192 210.197 804.48 211.413 804.48C212.437 804.48 213.285 804.288 213.957 803.904C214.629 803.52 214.965 802.976 214.965 802.272C214.965 801.6 214.597 801.072 213.861 800.688C213.157 800.272 211.973 799.776 210.309 799.2C208.581 798.624 207.125 798.064 205.941 797.52C204.789 796.944 203.797 796.128 202.965 795.072C202.133 794.016 201.717 792.688 201.717 791.088C201.717 789.52 202.181 788.112 203.109 786.864C204.037 785.584 205.333 784.592 206.997 783.888C208.693 783.184 210.645 782.832 212.853 782.832C215.061 782.832 216.981 783.2 218.613 783.936C220.245 784.64 221.509 785.632 222.405 786.912C223.301 788.192 223.749 789.632 223.749 791.232L223.701 791.952H216.261C216.325 790.992 216.037 790.224 215.397 789.648C214.757 789.072 213.845 788.784 212.661 788.784C211.733 788.784 210.965 788.976 210.357 789.36C209.781 789.744 209.493 790.272 209.493 790.944C209.493 791.648 209.877 792.24 210.645 792.72C211.445 793.168 212.677 793.68 214.341 794.256C216.069 794.832 217.493 795.408 218.613 795.984C219.765 796.528 220.741 797.312 221.541 798.336C222.373 799.328 222.789 800.576 222.789 802.08C222.789 803.808 222.261 805.296 221.205 806.544C220.181 807.792 218.757 808.752 216.933 809.424C215.141 810.064 213.093 810.384 210.789 810.384ZM237.555 800.784C237.523 800.944 237.507 801.152 237.507 801.408C237.507 801.984 237.667 802.4 237.987 802.656C238.339 802.912 238.899 803.04 239.667 803.04H242.595L241.347 810H237.171C231.795 810 229.107 807.744 229.107 803.232C229.107 802.56 229.187 801.712 229.347 800.688L231.267 790.032H228.003L229.203 783.216H232.467L233.619 776.688H241.827L240.675 783.216H246.051L244.851 790.032H239.475L237.555 800.784ZM300.228 783.216L288.228 810H279.156L278.004 792.624L270.564 810H261.54L258.996 783.216H267.204L267.588 802.368L275.508 783.216H284.196L285.396 802.368L292.5 783.216H300.228ZM307.966 780.432C306.686 780.432 305.662 780.096 304.894 779.424C304.158 778.72 303.79 777.84 303.79 776.784C303.79 775.344 304.35 774.112 305.47 773.088C306.59 772.064 307.95 771.552 309.55 771.552C310.83 771.552 311.838 771.904 312.574 772.608C313.31 773.28 313.678 774.16 313.678 775.248C313.678 776.656 313.118 777.872 311.998 778.896C310.878 779.92 309.534 780.432 307.966 780.432ZM311.518 783.216L306.814 810H298.606L303.31 783.216H311.518ZM323.898 800.784C323.866 800.944 323.85 801.152 323.85 801.408C323.85 801.984 324.01 802.4 324.33 802.656C324.682 802.912 325.242 803.04 326.01 803.04H328.938L327.69 810H323.514C318.138 810 315.45 807.744 315.45 803.232C315.45 802.56 315.53 801.712 315.69 800.688L317.61 790.032H314.346L315.546 783.216H318.81L319.962 776.688H328.17L327.018 783.216H332.394L331.194 790.032H325.818L323.898 800.784ZM353.478 782.928C356.102 782.928 358.166 783.68 359.67 785.184C361.206 786.688 361.974 788.784 361.974 791.472C361.974 792.368 361.878 793.328 361.686 794.352L358.902 810H350.742L353.334 795.456C353.43 794.912 353.478 794.432 353.478 794.016C353.478 792.672 353.094 791.632 352.326 790.896C351.59 790.16 350.55 789.792 349.206 789.792C347.606 789.792 346.262 790.288 345.174 791.28C344.086 792.272 343.382 793.664 343.062 795.456V795.36L340.47 810H332.262L338.55 774.48H346.758L344.598 786.768C345.654 785.584 346.95 784.656 348.486 783.984C350.022 783.28 351.686 782.928 353.478 782.928Z"
        fill="#767676"
      />
    </svg>

