<svg width="117" height="149" viewBox="0 0 117 149" fill="none" xmlns="http://www.w3.org/2000/svg">
<path d="M32.3197 34.182L53.8174 17.4261L48.3071 11.5925C48.3071 11.5925 21.0788 24.9981 15.1 34.182L21.2147 38.7786L32.3197 34.182Z" fill="#FC9D9D"/>
<path d="M70.5734 39.8329L57.3271 39.7486C57.3271 39.7486 49.3615 37.7244 46.0253 37.3073L32.3198 34.168C32.3198 34.168 19.8373 36.656 15.1095 34.168C15.1095 34.168 12.3871 40.8497 19.514 44.392L48.3072 58.7863L47.0562 67.1267C47.0562 67.1267 43.5185 94.1863 42.5767 114.419H91.6587V87.9919L98.3264 72.1497L101.442 89.2614L95.3509 93.2351L102.848 106.13L115.893 93.2351C116.13 92.245 116.208 91.2231 116.122 90.2082L113.344 56.7012C113.344 56.7012 113.344 48.3608 107.506 45.4557L87.2308 39.1019L70.5734 39.8329Z" fill="#3C424A"/>
<path d="M66.5063 18.86C65.2393 18.7054 64.0857 18.0536 63.2994 17.0485C62.5127 16.043 62.158 14.7666 62.3126 13.4996C62.4673 12.2326 63.119 11.079 64.1241 10.2928C65.1296 9.50606 66.406 9.15136 67.673 9.30599C67.8183 9.30599 68.2119 9.25445 68.1416 9.39502C66.7499 13.4715 67.5699 18.9443 66.5063 18.86Z" fill="black"/>
<path d="M87.2305 39.0974C87.2305 39.341 78.0607 45.2309 73.9514 44.4062C71.8662 43.9892 70.5262 40.086 70.573 39.8471L71.6976 33.3856V30.0353C71.5055 29.2622 70.5824 28.5312 70.5824 27.5098C70.2919 22.8007 69.7577 18.5274 69.7577 18.5274C69.7577 18.5274 85.15 8.219 86.12 20.2283L86.5089 21.976L87.2305 39.0974Z" fill="#FC9D9D"/>
<path opacity="0.15" d="M81.3263 32.3359C80.2111 33.4604 78.8101 34.4069 76.069 34.5756C73.9698 35.8173 72.6579 35.8126 71.449 35.6674L71.8051 33.0153C73.1171 34.421 78.632 34.7865 80.9655 31.961C81.0217 31.872 81.2185 31.8861 81.3075 31.961C81.3408 32.0173 81.3605 32.0805 81.3638 32.1461C81.367 32.2112 81.3539 32.2764 81.3263 32.3359Z" fill="black"/>
<path d="M68.5539 3.82376C68.5539 3.82376 60.7945 31.5955 73.7082 34.0086C84.8881 36.0891 87.043 18.5788 87.043 18.5788L87.0903 7.18337L78.5859 3.28491L68.5539 3.82376Z" fill="#FC9D9D"/>
<path d="M71.7354 10.857C73.1926 9.12327 75.4839 7.94718 77.7986 8.18146C80.4085 8.44386 82.3671 10.6976 81.8798 13.7293L81.7767 14.3993C81.7289 14.7043 81.8029 15.0164 81.9824 15.2675C82.1619 15.5192 82.4327 15.6902 82.7372 15.7441C83.0231 15.7727 83.3005 15.8575 83.553 15.9938C83.8061 16.1302 84.0296 16.3148 84.2109 16.5378C84.3918 16.7609 84.5272 17.0176 84.6087 17.2931C84.6902 17.5687 84.7169 17.8573 84.6865 18.1431L84.4756 20.1251C84.4677 20.2404 84.5056 20.3543 84.581 20.4419C84.6565 20.5295 84.7633 20.5839 84.8786 20.5937C84.8786 20.5937 85.4502 20.7343 85.5861 20.261L86.0547 18.1525L84.9957 5.96984L75.2402 2.54932L70.7889 5.74023L71.7354 10.857Z" fill="black"/>
<path opacity="0.15" d="M86.8745 21.0623C86.8745 21.0623 86.1717 23.3816 85.6235 22.3133L86.4575 24.3984L86.8745 21.0623Z" fill="black"/>
<path d="M71.7025 26.2448L76.9785 25.4529C76.9579 26.0475 76.733 26.6173 76.3408 27.0652C75.9491 27.5136 75.4149 27.8126 74.8278 27.9128C72.3116 28.3439 71.7025 26.2448 71.7025 26.2448Z" fill="white"/>
<path d="M77.0163 17.8106C77.2271 17.8279 77.4277 17.9075 77.5936 18.0392C77.759 18.1709 77.8813 18.3485 77.9459 18.5495C78.0101 18.751 78.0134 18.967 77.9553 19.1699C77.8967 19.3732 77.7796 19.5545 77.6179 19.6909C77.4567 19.8277 77.2585 19.913 77.0486 19.9369C76.8382 19.9603 76.626 19.9214 76.4381 19.8244C76.2502 19.7274 76.0955 19.577 75.9934 19.392C75.8912 19.2069 75.8458 18.9955 75.8636 18.7852C75.8875 18.5031 76.0224 18.2421 76.2385 18.0594C76.4545 17.8766 76.7347 17.7871 77.0163 17.8106Z" fill="black"/>
<path d="M76.4421 18.7325C76.3367 18.7236 76.258 18.6309 76.2664 18.5254C76.2749 18.4195 76.3676 18.3408 76.4735 18.3493C76.5789 18.3582 76.6581 18.4509 76.6492 18.5564C76.6408 18.6623 76.548 18.741 76.4421 18.7325Z" fill="white"/>
<path d="M68.6284 19.5627C68.0385 19.5627 67.5601 19.0843 67.5601 18.4944C67.5601 17.904 68.0385 17.426 68.6284 17.426C69.2188 17.426 69.6968 17.904 69.6968 18.4944C69.6968 19.0843 69.2188 19.5627 68.6284 19.5627Z" fill="black"/>
<path d="M68.1971 18.2998C68.0912 18.2909 68.0124 18.1986 68.0209 18.0927C68.0298 17.9868 68.1226 17.908 68.228 17.9169C68.3339 17.9254 68.4126 18.0182 68.4042 18.1236C68.3953 18.2295 68.3025 18.3082 68.1971 18.2998Z" fill="white"/>
<path opacity="0.2" d="M71.9271 24.661L73.2813 24.8156C73.3609 24.8123 73.4373 24.7856 73.5015 24.7388C73.5657 24.6924 73.6144 24.6277 73.6421 24.5532C73.6365 24.4745 73.6088 24.399 73.5624 24.3353C73.5161 24.2716 73.4528 24.2219 73.3797 24.1924L72.0255 24.0331C71.8681 24.0087 71.7261 23.9253 71.6277 23.8002C71.5293 23.6751 71.4825 23.5172 71.4961 23.3584C71.5757 23.021 71.8897 22.7539 72.1755 22.8289C72.2542 22.8233 72.3297 22.7956 72.3934 22.7492C72.4576 22.7029 72.5068 22.6396 72.5363 22.5665C72.5972 22.4259 72.4145 22.2619 72.2739 22.201C71.9487 22.1654 71.6226 22.2549 71.3611 22.4517C71.1001 22.6485 70.9235 22.9376 70.8682 23.26C70.842 23.4221 70.8485 23.5875 70.8879 23.7473C70.9277 23.9066 70.9989 24.0561 71.0978 24.1873C71.1971 24.318 71.3213 24.4276 71.4642 24.5092C71.6066 24.5907 71.7641 24.6422 71.9271 24.661Z" fill="black"/>
<path d="M90.192 10.946C90.0515 7.86289 88.6411 5.45916 86.0265 4.6626C84.9193 4.34819 83.753 4.30321 82.6247 4.5314C82.523 4.55624 82.4176 4.55952 82.3145 4.54218C82.2115 4.52438 82.1126 4.48595 82.025 4.42879C81.9374 4.37209 81.8619 4.29759 81.8043 4.21044C81.7462 4.12328 81.7063 4.02534 81.6876 3.92226C81.518 2.89564 81.0115 1.95523 80.2477 1.24864C79.4844 0.541575 78.507 0.109094 77.4705 0.0191293C76.7438 -0.0478753 76.0119 0.0617686 75.3362 0.338221C74.661 0.614674 74.0622 1.05045 73.5908 1.60757C73.5238 1.69097 73.4399 1.75891 73.3448 1.80717C73.2492 1.85544 73.1448 1.88308 73.0379 1.88776C72.9311 1.89292 72.8247 1.87465 72.7254 1.83529C72.626 1.79593 72.5361 1.73595 72.4616 1.6591C72.4616 1.6591 69.5659 -1.05856 65.2972 1.12495C63.8573 1.9112 62.7604 3.2035 62.2183 4.7521C61.6767 6.3007 61.7287 7.99502 62.364 9.50755C63.7463 12.8859 67.9259 14.1932 70.742 11.9441C71.9302 10.9409 72.6898 9.52067 72.8645 7.97535C73.0787 6.91218 73.0688 5.81574 72.8364 4.75632L74.1906 4.86877C75.7931 4.90157 78.3327 4.81254 80.6802 5.33733C80.624 5.3795 80.5771 5.37481 80.5256 5.42167L84.6208 7.16942C84.6208 7.16942 85.0238 18.4149 85.7079 18.3634C88.6926 17.9839 90.356 13.734 90.192 10.946Z" fill="black"/>
<path d="M86.1294 17.192C86.2095 16.9132 86.3497 16.656 86.5399 16.4372C86.7301 16.2184 86.9658 16.0441 87.2306 15.9264C87.4953 15.8084 87.7825 15.7498 88.0721 15.755C88.3621 15.7596 88.647 15.828 88.908 15.955C91.3633 16.8922 90.5152 21.9339 87.0806 22.8242C84.9674 23.0866 85.361 21.8542 85.6421 20.1721L86.1294 17.192Z" fill="#FC9D9D"/>
<path opacity="0.2" d="M89.072 17.3842C88.9047 17.2535 88.7093 17.163 88.5013 17.1209C88.2927 17.0787 88.0777 17.0853 87.8725 17.1406C87.6817 17.2015 87.5046 17.2994 87.3519 17.4287C87.1991 17.558 87.0735 17.7169 86.9822 17.8949C86.731 18.3476 86.6214 18.8649 86.6682 19.3803L86.6307 19.816C86.6237 19.8549 86.6256 19.8943 86.6368 19.9318C86.6481 19.9697 86.6678 20.0039 86.6945 20.0325C86.7217 20.0606 86.7549 20.0827 86.7919 20.0958C86.8285 20.1089 86.8683 20.1131 86.9072 20.108C86.9456 20.1028 86.9831 20.0888 87.0155 20.0667C87.0478 20.0442 87.074 20.0152 87.0928 19.9805C87.1115 19.9463 87.1223 19.9079 87.1232 19.8685C87.1242 19.8296 87.1162 19.7907 87.0993 19.7551L87.1368 19.3194C87.1373 18.8925 87.2197 18.4689 87.3805 18.073C87.5121 17.8373 87.7155 17.6504 87.9615 17.5388C88.2286 17.5009 88.5003 17.5576 88.7299 17.6981C88.7876 17.7249 88.8527 17.7323 88.915 17.7197C88.9773 17.707 89.034 17.6752 89.0767 17.6278C89.2079 17.6372 89.1704 17.4873 89.072 17.3842Z" fill="black"/>
<g opacity="0.4">
<path opacity="0.4" d="M98.3217 64.1984C98.3723 64.1974 98.4206 64.1787 98.4586 64.1454C98.4965 64.1117 98.5209 64.0658 98.5279 64.0156C98.8076 61.7576 99.5362 59.5783 100.671 57.6057C101.805 55.6335 103.323 53.9082 105.135 52.5311C105.157 52.5161 105.177 52.4965 105.192 52.474C105.207 52.4515 105.218 52.4257 105.224 52.399C105.229 52.3723 105.229 52.3447 105.224 52.3179C105.219 52.2912 105.208 52.2654 105.193 52.243C105.178 52.22 105.159 52.2008 105.136 52.1853C105.114 52.1699 105.088 52.1596 105.061 52.1539C105.034 52.1483 105.007 52.1483 104.98 52.1535C104.953 52.1586 104.928 52.1694 104.905 52.1844C103.043 53.5943 101.484 55.3636 100.317 57.3869C99.1511 59.4101 98.4023 61.6466 98.1156 63.9641C98.1123 63.9913 98.1141 64.0184 98.1216 64.0447C98.1291 64.0709 98.1418 64.0958 98.1587 64.1168C98.176 64.1384 98.1971 64.1562 98.221 64.1693C98.2449 64.1824 98.2711 64.1909 98.2983 64.1937L98.3217 64.1984Z" fill="black"/>
</g>
<path opacity="0.3" d="M91.6444 114.061H86.1435V89.9271C86.3412 87.9947 86.8641 86.1097 87.6897 84.3512L97.2719 63.9968L98.9399 60.2483L98.5651 61.5603C97.7128 64.5361 97.5427 67.6656 98.0684 70.716L98.3121 72.1217L91.6444 87.9638V114.061Z" fill="black"/>
<path opacity="0.3" d="M48.3072 58.7867L19.5046 44.4064C12.3778 40.8641 15.1001 34.1824 15.1001 34.1824C15.7149 34.4907 16.3666 34.7175 17.04 34.8571C16.2012 40.5267 26.1067 44.4017 26.1067 44.4017L50.0034 53.3607L48.3072 58.7867Z" fill="black"/>
<g opacity="0.4">
<path opacity="0.4" d="M48.3071 58.9972C48.3521 58.9963 48.3957 58.9818 48.4322 58.9546C48.4683 58.9279 48.495 58.8904 48.5086 58.8473C48.5086 58.7723 50.8046 51.1347 51.6199 49.5041C51.6363 49.4793 51.6466 49.4512 51.6513 49.4221C51.6559 49.3926 51.6541 49.3626 51.6466 49.334C51.6386 49.3054 51.625 49.2787 51.6063 49.2558C51.5871 49.2328 51.5636 49.2141 51.5374 49.201C51.5107 49.1878 51.4816 49.1799 51.4521 49.1789C51.4226 49.1775 51.3931 49.1827 51.3654 49.1935C51.3378 49.2042 51.3129 49.2211 51.2919 49.2422C51.2712 49.2633 51.2553 49.2891 51.245 49.3167C50.4157 50.9801 48.1993 58.4115 48.1056 58.7302C48.0911 58.7831 48.0977 58.8393 48.1239 58.8876C48.1501 58.9354 48.1942 58.9715 48.2462 58.9879L48.3071 58.9972Z" fill="black"/>
</g>
<g opacity="0.4">
<path opacity="0.4" d="M69.6968 99.2705C69.7428 99.271 69.7877 99.256 69.8238 99.2279C69.8604 99.2003 69.8866 99.1604 69.8983 99.1159C69.911 99.0635 69.9035 99.0077 69.8763 98.9604C69.8491 98.913 69.8051 98.8784 69.7531 98.8629C69.664 98.8395 61.0518 96.4498 57.0128 89.023C56.9852 88.9748 56.9397 88.9392 56.8868 88.9237C56.8333 88.9078 56.7762 88.9134 56.727 88.9387C56.6796 88.9673 56.6445 89.0123 56.6291 89.0652C56.6131 89.1182 56.6183 89.1749 56.6426 89.2245C60.7754 96.8199 69.5563 99.2518 69.6453 99.2752L69.6968 99.2705Z" fill="black"/>
</g>
<g opacity="0.4">
<path opacity="0.4" d="M105.003 91.9277C105.044 91.9282 105.084 91.9165 105.118 91.894C105.153 91.8715 105.179 91.8392 105.195 91.8012C105.216 91.7497 105.215 91.6921 105.194 91.6405C105.174 91.589 105.133 91.5477 105.083 91.5248C103.569 90.8828 100.491 91.4873 100.36 91.5248C100.333 91.5304 100.307 91.5412 100.285 91.5566C100.262 91.5721 100.243 91.5918 100.228 91.6143C100.213 91.6372 100.202 91.663 100.198 91.6897C100.192 91.7164 100.192 91.744 100.198 91.7708C100.204 91.7979 100.214 91.8232 100.229 91.8457C100.245 91.8682 100.265 91.8879 100.288 91.9029C100.311 91.9179 100.336 91.9282 100.363 91.9334C100.39 91.9385 100.417 91.938 100.444 91.9324C100.472 91.9324 103.523 91.328 104.919 91.9324C104.947 91.9376 104.976 91.9362 105.003 91.9277Z" fill="black"/>
</g>
<path opacity="0.1" d="M73.5346 12.7266C73.5346 12.7266 74.8841 16.2736 66.5062 15.1257L66.6936 13.645L69.7908 11.8926L73.5346 12.7266Z" fill="black"/>
<path d="M54.7783 8.99667L56.7415 8.43908L61.8489 6.89282L66.3424 7.65189C66.4506 7.69219 66.5397 7.7709 66.5936 7.87305C66.647 7.97473 66.661 8.09328 66.6329 8.2048C66.5017 8.70616 66.1644 9.44181 65.1898 9.10444L68.5212 9.35278C68.6426 9.36496 68.7574 9.41369 68.8497 9.49382C68.942 9.57347 69.0076 9.67983 69.0366 9.79791L69.1163 10.1025C69.2334 10.571 68.0339 11.0396 67.5326 11.0396H67.2702L70.2268 11.1614C70.2957 11.1839 70.3589 11.22 70.4128 11.2683C70.4672 11.3161 70.5108 11.3746 70.5407 11.4402C70.5712 11.5058 70.5876 11.5766 70.5895 11.6487C70.5909 11.7209 70.5777 11.7931 70.5501 11.8596C70.3955 12.2391 70.1893 12.6889 70.0441 12.7405C69.8988 12.792 72.1339 13.0216 72.9913 13.0966C73.0344 13.0999 73.0766 13.113 73.1136 13.135C73.1511 13.157 73.1825 13.1875 73.2059 13.2236C73.2298 13.2601 73.2448 13.3014 73.2495 13.3445C73.2547 13.3871 73.2495 13.4307 73.235 13.4714C73.0522 13.9916 72.3869 14.9006 69.9878 14.8771C66.6376 14.8397 65.3725 14.2727 65.3725 14.2727L62.7017 14.9849L62.8329 16.5921L66.4642 16.5359L66.3003 18.5741C65.7661 18.8271 61.6146 19.2863 61.6146 19.2863C61.6146 19.2863 55.9918 19.3707 54.4877 18.6397C52.9837 17.9087 51.8685 17.3137 51.8685 17.3137L47.703 11.8924L54.7783 8.99667Z" fill="#FC9D9D"/>
<path opacity="0.15" d="M62.27 14.418C62.27 14.418 59.3602 12.7265 58.1139 10.6414" stroke="black" stroke-width="0.67" stroke-miterlimit="10" stroke-linecap="round"/>
<path opacity="0.15" d="M66.2388 16.6858L61.1314 16.7795C61.1314 16.7795 58.8917 14.3196 56.5208 14.8772" stroke="black" stroke-width="0.67" stroke-miterlimit="10" stroke-linecap="round"/>
<path opacity="0.15" d="M69.7578 13.0077C69.7578 13.0077 66.2576 12.9374 64.8941 12.0002C64.8941 12.0002 64.1538 12.9374 62.2701 12.8718" stroke="black" stroke-width="0.67" stroke-miterlimit="10" stroke-linecap="round"/>
<path opacity="0.15" d="M67.2837 11.0585C66.087 10.9545 64.9015 10.746 63.7414 10.4353C62.9354 11.1175 61.9322 11.5233 60.8784 11.5927" stroke="black" stroke-width="0.67" stroke-miterlimit="10" stroke-linecap="round"/>
<path opacity="0.15" d="M65.5923 9.26391C64.5174 9.30655 63.4448 9.13271 62.4388 8.75317L60.1897 9.79339" stroke="black" stroke-width="0.67" stroke-miterlimit="10" stroke-linecap="round"/>
<path d="M101.899 104.547L76.6663 113.533L73.8777 107.185L95.8697 93.8265L101.899 104.547Z" fill="#FC9D9D"/>
<path d="M43.7951 74.5179C47.6312 76.8566 50.6875 80.2802 52.5778 84.356C54.4677 88.4315 55.107 92.9763 54.4143 97.4155C53.7214 101.854 51.7281 105.988 48.6861 109.294C45.6443 112.6 41.6902 114.93 37.3243 115.989C32.958 117.048 28.3758 116.788 24.1573 115.243C19.9385 113.698 16.2731 110.937 13.6238 107.308C10.9742 103.68 9.4606 99.3475 9.27358 94.8583C9.08649 90.3698 10.235 85.9264 12.5731 82.0902C14.1259 79.5429 16.1651 77.3262 18.5746 75.567C20.9841 73.8078 23.7162 72.5402 26.6157 71.8372C29.5148 71.1339 32.5246 71.0088 35.4719 71.4688C38.4196 71.9285 41.2481 72.9647 43.7951 74.5179ZM21.9894 110.285C25.2273 112.259 28.9775 113.229 32.7669 113.072C36.5557 112.914 40.213 111.637 43.2759 109.401C46.3391 107.165 48.6704 104.072 49.9748 100.511C51.2794 96.9499 51.4992 93.0823 50.6055 89.3969C49.7118 85.7115 47.7453 82.3733 44.9546 79.8056C42.1643 77.2376 38.6749 75.5551 34.9278 74.9705C31.1812 74.3855 27.3447 74.925 23.9046 76.5205C20.4642 78.1163 17.5744 80.696 15.6004 83.9342C12.9534 88.2759 12.1397 93.4912 13.3378 98.4328C14.5362 103.374 17.6481 107.638 21.9894 110.285Z" fill="#21252B"/>
<path d="M80.084 118.647L52.7652 102.037L50.1779 106.294L77.4964 122.903C77.6836 123.016 77.8912 123.092 78.1073 123.126C78.3237 123.159 78.5444 123.15 78.757 123.098C78.9695 123.046 79.1698 122.952 79.3464 122.823C79.523 122.694 79.6725 122.532 79.7863 122.344L80.6422 120.936C80.7559 120.749 80.8317 120.542 80.8654 120.326C80.8987 120.109 80.8892 119.888 80.8373 119.676C80.7854 119.463 80.6924 119.263 80.5629 119.086C80.4339 118.91 80.2712 118.76 80.084 118.647Z" fill="#21252B"/>
<path opacity="0.3" d="M16.3399 106.737C9.2587 98.1032 10.5175 85.3635 19.1514 78.2824C27.7853 71.2012 40.525 72.46 47.6061 81.0939C54.6873 89.7278 53.4285 102.467 44.7946 109.549C36.1607 116.63 23.421 115.371 16.3399 106.737Z" fill="black"/>
<path opacity="0.3" d="M44.1318 108.741L40.2172 76.6881C40.2172 76.6881 33.3585 73.5567 26.3482 75.5309L34.1876 112.879C34.1876 112.879 40.255 112.26 44.1318 108.741Z" fill="white"/>
<path opacity="0.3" d="M30.0647 112.927L22.0075 77.279C22.0075 77.279 18.2076 80.0864 16.2919 82.9968L23.9959 111.438C23.9888 111.578 27.8617 112.849 30.0647 112.927Z" fill="white"/>
<path d="M74.1202 107.186L68.1132 108.137L63.4024 109.516L65.7996 111.301C65.7996 111.301 62.0003 116.023 62.1862 116.501C62.372 116.979 63.6284 117.742 64.4226 116.915C64.3971 117.2 64.4367 117.486 64.5392 117.753C64.6417 118.02 64.8034 118.26 65.0129 118.455C65.7069 119.013 66.2753 118.819 67.0498 118.057C67.0498 118.057 66.6773 118.896 67.8388 119.507C68.5444 119.879 69.2763 119.043 69.2763 119.043C69.2763 119.043 70.0273 120.136 70.6722 119.843C71.6598 119.279 72.5586 118.572 73.3398 117.746L75.7752 114.731L77.4798 112.945L74.1202 107.186Z" fill="#FC9D9D"/>
<path opacity="0.15" d="M69.2803 119.04C69.7264 118.38 70.2409 117.769 70.8155 117.217" stroke="black" stroke-width="0.66" stroke-miterlimit="10" stroke-linecap="round"/>
<path opacity="0.15" d="M67.1203 118.054C67.6286 117.27 68.223 116.544 68.8921 115.892" stroke="black" stroke-width="0.66" stroke-miterlimit="10" stroke-linecap="round"/>
<path opacity="0.15" d="M64.4263 116.912C65.0935 115.958 65.8416 115.062 66.6617 114.236" stroke="black" stroke-width="0.66" stroke-miterlimit="10" stroke-linecap="round"/>
<path opacity="0.15" d="M100.615 102.266L76.5864 112.483L72.739 117.457L69.9782 119.721C69.9782 119.721 70.1899 120.275 71.3124 119.427L72.8704 118.216L73.5737 117.433L76.9864 113.422L101.895 104.543L100.615 102.266Z" fill="black"/>
<path opacity="0.3" d="M113.344 56.7014L116.132 90.1803C116.217 91.1947 116.14 92.2167 115.902 93.2067L103.082 106.364L100.505 101.678L112.945 91.9229L110.214 53.1544C110.214 53.1544 110.082 48.1407 106.812 45.231L107.501 45.446C113.344 48.3652 113.344 56.7014 113.344 56.7014Z" fill="black"/>
<path d="M65.6115 15.9692H70.1753H70.8079H74.7907H79.987C80.3862 15.9683 80.77 16.1253 81.0535 16.4064C81.3374 16.6875 81.4981 17.0694 81.5005 17.4686V18.6307C81.5005 19.7196 81.068 20.7636 80.2981 21.5334C79.5283 22.3028 78.4843 22.7353 77.3959 22.7353C76.3074 22.7353 75.2629 22.3028 74.4936 21.5334C73.7237 20.7636 73.2912 19.7196 73.2912 18.6307V17.464C73.2814 17.2981 73.3044 17.1322 73.3587 16.9753C73.4135 16.8183 73.4988 16.674 73.6099 16.5503H72.0027C72.1151 16.6777 72.2009 16.8262 72.2548 16.987C72.3086 17.1481 72.3297 17.3182 72.3166 17.4874V18.6541C72.3166 19.743 71.8841 20.787 71.1143 21.5569C70.3444 22.3262 69.3005 22.7587 68.212 22.7587C67.1235 22.7587 66.0791 22.3262 65.3097 21.5569C64.5399 20.787 64.1074 19.743 64.1074 18.6541V17.4874C64.1252 17.0929 64.2892 16.7194 64.567 16.4387C64.8449 16.1585 65.2169 15.9913 65.6115 15.9692ZM73.8254 17.5108V18.6775C73.8587 19.5833 74.2415 20.4407 74.8937 21.0695C75.546 21.6984 76.417 22.0498 77.3232 22.0498C78.2294 22.0498 79.1 21.6984 79.7523 21.0695C80.405 20.4407 80.7878 19.5833 80.8211 18.6775V17.5108C80.8117 17.2751 80.7138 17.0516 80.5474 16.8853C80.3806 16.7185 80.1571 16.6205 79.9214 16.6112H74.725C74.4959 16.6388 74.2827 16.7428 74.1197 16.9059C73.9566 17.069 73.8531 17.2821 73.8254 17.5108ZM64.7071 18.7103C64.7404 19.6161 65.1232 20.4735 65.7755 21.1024C66.4282 21.7312 67.2988 22.0826 68.205 22.0826C69.1112 22.0826 69.9818 21.7312 70.634 21.1024C71.2867 20.4735 71.6695 19.6161 71.7028 18.7103V17.5436C71.7005 17.3065 71.6053 17.0802 71.4381 16.912C71.2708 16.7438 71.045 16.6477 70.8079 16.644H70.1753H65.6115C65.3744 16.6463 65.1476 16.7414 64.9794 16.9087C64.8116 17.076 64.7156 17.3018 64.7118 17.5389L64.7071 18.7103Z" fill="black"/>
</svg>
