<svg width="133" height="114" viewBox="0 0 133 114" fill="none" xmlns="http://www.w3.org/2000/svg">
<path d="M104.515 104.546H125.616L132.484 65.304H108.439L104.515 104.546Z" fill="#B2B6BB"/>
<path d="M88.3515 40.2908L110.01 43.6931C112.83 45.3219 115.227 47.58 117.017 50.289C118.806 52.9981 119.934 56.0835 120.316 59.3014L122.092 76.3703L113.212 77.1029L115.662 113.686H83.2711C76.5336 113.686 71.4003 113.686 66.267 113.686L62.639 71.7368L57.7549 83.4442L41.2422 77.0014L48.9102 56.6316C48.9102 56.6316 51.3656 48.8297 56.2719 46.3894L70.6356 41.9765L88.3515 40.2908Z" fill="#21252B"/>
<path opacity="0.3" d="M102.801 60.4272H101.558L103.303 76.6896L104.413 76.6533L105.492 87.2966L109.366 94.9072L109.964 105.344L115.675 105.133L112.554 68.6291L102.801 60.4272Z" fill="black"/>
<path d="M88.2576 41.2807C88.2576 41.5426 84.3997 48.1377 78.0201 48.6259C73.1145 49.1186 70.0601 42.985 70.0867 42.7187L70.2421 36.7716L69.9091 33.1944C69.625 32.3822 68.5773 31.6987 68.4618 30.6069C67.6805 25.6051 66.686 21.096 66.686 21.096C66.686 21.096 82.1045 8.56259 84.342 21.2779L85.4741 23.0532L88.2576 41.2807Z" fill="#FC9D9D"/>
<path d="M63.9644 22.5029C62.597 22.5753 61.2563 22.1017 60.2396 21.1861C59.2185 20.2705 58.6059 18.9879 58.5348 17.6209C58.4638 16.2535 58.9344 14.9137 59.8534 13.896C60.7679 12.8779 62.0509 12.2654 63.4183 12.1931C63.5737 12.1931 63.9777 12.0377 63.9422 12.1931C63.2186 16.7644 65.1053 22.3964 63.9644 22.5029Z" fill="black"/>
<path d="M63.3292 6.23667C63.3292 6.23667 60.297 37.0243 74.3879 37.1707C86.5921 37.2861 85.611 18.3839 85.611 18.3839L83.5422 6.33432L73.8286 3.79126L63.3292 6.23667Z" fill="#FC9D9D"/>
<path d="M68.0001 13.072C69.2165 10.9727 71.4141 9.29956 73.9091 9.12203C76.7149 8.909 79.2099 10.9284 79.2365 14.217V14.9494C79.2454 15.2804 79.3786 15.596 79.6139 15.8281C79.8536 16.0602 80.1688 16.1907 80.5018 16.192C80.8081 16.1685 81.1189 16.2058 81.4119 16.3026C81.7049 16.3989 81.9757 16.5524 82.2066 16.7543C82.4418 16.9563 82.6328 17.2022 82.7704 17.4782C82.908 17.7543 82.9879 18.0547 83.0101 18.3623L83.1566 20.4971C83.1611 20.5592 83.1744 20.6204 83.2011 20.6768C83.2321 20.7327 83.2676 20.7824 83.3164 20.8219C83.3653 20.8619 83.423 20.8912 83.4807 20.9076C83.5428 20.9245 83.605 20.928 83.6672 20.9187C83.6672 20.9187 84.2976 20.9631 84.3553 20.4349L84.453 18.1226L81.0701 5.46498L70.1178 3.66309L66.0112 7.86602L68.0001 13.072Z" fill="black"/>
<path opacity="0.15" d="M85.4738 23.1058C85.4738 23.1058 84.6392 23.1324 83.8667 22.1072L85.7935 24.8012L85.4738 23.1058Z" fill="black"/>
<path opacity="0.2" d="M81.5095 33.5758C80.231 35.5121 78.2643 36.892 76.009 37.437C74.4374 38.7773 72.4752 39.5842 70.4152 39.7404L70.251 36.3008L70.7438 36.5183C72.5773 37.2439 74.6061 37.3149 76.484 36.7198C78.362 36.1246 79.9779 34.9001 81.0611 33.2518C81.1055 33.1408 81.3098 33.1231 81.4208 33.163C81.4696 33.2194 81.5007 33.2864 81.5184 33.3583C81.5317 33.4302 81.5317 33.5052 81.5095 33.5758Z" fill="black"/>
<path d="M70.353 29.9543L75.9734 28.8669C75.9779 29.5038 75.7603 30.1229 75.3652 30.62C74.9657 31.1171 74.4063 31.4619 73.7847 31.5964C71.1033 32.1734 70.353 29.9543 70.353 29.9543Z" fill="white"/>
<path d="M74.8768 20.772C75.1032 20.7511 75.3296 20.7973 75.5293 20.9051C75.7291 21.013 75.8889 21.1776 75.9955 21.3778C76.102 21.5779 76.1464 21.8052 76.1242 22.0302C76.0976 22.2556 76.0088 22.4687 75.8623 22.6431C75.7202 22.8171 75.5249 22.9449 75.3118 23.0093C75.0943 23.0741 74.8634 23.0732 74.6459 23.0061C74.4284 22.9396 74.2375 22.81 74.0954 22.6342C73.9489 22.4585 73.8645 22.2446 73.8423 22.0191C73.829 21.8691 73.8423 21.7182 73.8867 21.5744C73.9311 21.4306 74.0066 21.297 74.0999 21.1812C74.1975 21.0653 74.3129 20.9695 74.4461 20.8993C74.5793 20.8292 74.7258 20.7857 74.8768 20.772Z" fill="black"/>
<path d="M74.4414 21.889C74.5569 21.8783 74.6413 21.7767 74.6279 21.6617C74.6191 21.5472 74.5169 21.4629 74.4015 21.4736C74.2861 21.4842 74.2017 21.5858 74.2106 21.7008C74.2239 21.8153 74.326 21.8996 74.4414 21.889Z" fill="white"/>
<path d="M66.14 24.1981C66.7704 24.1981 67.2854 23.6855 67.2854 23.053C67.2854 22.4206 66.7704 21.908 66.14 21.908C65.5096 21.908 64.9946 22.4206 64.9946 23.053C64.9946 23.6855 65.5096 24.1981 66.14 24.1981Z" fill="black"/>
<path d="M65.6429 22.9729C65.7583 22.9623 65.8427 22.8607 65.8293 22.7457C65.8205 22.6312 65.7183 22.5469 65.6029 22.5575C65.4875 22.5682 65.4031 22.6703 65.4164 22.7848C65.4253 22.8993 65.5274 22.9836 65.6429 22.9729Z" fill="white"/>
<path opacity="0.2" d="M70.7747 27.6064L72.2309 27.5221C72.3152 27.5021 72.3907 27.4591 72.4484 27.3979C72.5061 27.3366 72.5461 27.2594 72.5638 27.1759C72.5461 27.0934 72.5017 27.0184 72.4395 26.9593C72.3818 26.9008 72.3063 26.8604 72.222 26.8431L70.7614 26.9274C70.3929 26.9274 70.0555 26.6256 70.0777 26.3105C70.0733 26.1392 70.1354 25.9732 70.2508 25.8458C70.3663 25.7189 70.5261 25.6403 70.6948 25.627C70.7792 25.607 70.8546 25.564 70.9123 25.5028C70.97 25.4415 71.01 25.3643 71.0278 25.2809C71.0633 25.1211 70.8413 24.9835 70.6815 24.948C70.3307 24.9706 70.0067 25.1255 69.767 25.3812C69.5272 25.6368 69.3984 25.9741 69.3984 26.3238C69.4029 26.4991 69.4384 26.6726 69.5094 26.8333C69.5805 26.9935 69.687 27.1382 69.8113 27.258C69.9401 27.3774 70.0955 27.4702 70.2597 27.5301C70.424 27.59 70.5971 27.6158 70.7747 27.6064Z" fill="black"/>
<path d="M61.7136 21.14L61.9044 22.3743C61.9666 22.9437 62.1442 23.4949 62.4239 23.9951C62.708 24.4948 63.0854 24.9338 63.5382 25.2848C63.991 25.6359 64.5104 25.8928 65.0654 26.0397C65.6203 26.1867 66.1975 26.2208 66.7657 26.1405C67.334 26.0597 67.8756 25.8662 68.3684 25.5711C68.8612 25.2755 69.2873 24.8845 69.6248 24.4212C69.9622 23.9578 70.2019 23.4315 70.3351 22.8731C70.4638 22.3148 70.4816 21.7361 70.3839 21.1711L70.193 19.9373C70.1708 19.5769 70.0154 19.2383 69.7491 18.9924L71.405 18.7567C71.3073 18.905 71.2408 19.0714 71.2052 19.2458C71.1742 19.4202 71.1786 19.5995 71.2141 19.7731L71.4006 21.0118C71.4627 21.5812 71.6403 22.1324 71.92 22.6326C72.2041 23.1323 72.5815 23.5712 73.0343 23.9223C73.4871 24.2734 74.0065 24.5304 74.5615 24.6773C75.1164 24.8242 75.6936 24.8583 76.2618 24.778C76.8301 24.6972 77.3717 24.5037 77.8645 24.2086C78.3573 23.913 78.7835 23.522 79.1209 23.0586C79.4583 22.5953 79.698 22.0689 79.8312 21.5106C79.9599 20.9523 79.9777 20.3736 79.88 19.8086L79.6936 18.5708C79.6359 18.1545 79.4183 17.7768 79.0854 17.5194C78.7568 17.262 78.3351 17.1457 77.9178 17.1945L72.5904 17.9445H72.5415L68.4217 18.5038L67.7691 18.5792L63.0543 19.2583C62.6326 19.3435 62.2596 19.5853 62.011 19.9346C61.7624 20.2844 61.6559 20.7153 61.7136 21.14ZM72.546 18.6285L77.9133 17.874C78.1619 17.846 78.415 17.9166 78.6103 18.0711C78.8101 18.2251 78.9389 18.4505 78.9744 18.699L79.1652 19.9373C79.2363 20.4148 79.2141 20.9017 79.0986 21.3699C78.9788 21.8382 78.7702 22.2784 78.4816 22.6654C78.193 23.0524 77.8334 23.3786 77.4161 23.6245C77.0032 23.8704 76.5415 24.0315 76.062 24.0985C75.587 24.1655 75.0987 24.1367 74.6325 24.0146C74.1664 23.8921 73.7269 23.6782 73.3451 23.3853C72.9588 23.0924 72.6392 22.7262 72.395 22.3082C72.1553 21.8901 71.9999 21.4281 71.9377 20.9492L71.7468 19.7114C71.7424 19.4677 71.8179 19.229 71.9599 19.0328C72.1064 18.8366 72.3107 18.6942 72.546 18.6285ZM62.3351 21.0739C62.304 20.8245 62.3662 20.5724 62.5171 20.37C62.6636 20.1672 62.8856 20.03 63.1342 19.9866L67.8489 19.3071L68.5015 19.2365C68.7502 19.2085 69.0032 19.2791 69.1986 19.4336C69.3984 19.5876 69.5271 19.813 69.5626 20.0616L69.7535 21.2958C69.8245 21.7729 69.8023 22.2598 69.6869 22.728C69.567 23.1962 69.3584 23.6365 69.0698 24.0235C68.7812 24.4105 68.4216 24.7367 68.0043 24.9826C67.5914 25.2285 67.1298 25.3896 66.6503 25.4566C66.1753 25.5236 65.6869 25.4947 65.2208 25.3727C64.7546 25.2502 64.3151 25.0363 63.9333 24.7434C63.5471 24.4505 63.2274 24.0843 62.9833 23.6662C62.7435 23.2482 62.5881 22.7861 62.526 22.3073L62.3351 21.0739Z" fill="black"/>
<path d="M87.5205 9.72993C86.8013 6.50338 84.8567 4.2266 81.9489 3.86711C80.7191 3.7424 79.4805 3.91282 78.3307 4.36418C78.2285 4.40767 78.1176 4.42986 78.0066 4.42898C77.8956 4.42853 77.7846 4.40546 77.6825 4.36063C77.5848 4.31625 77.4916 4.25146 77.4161 4.17069C77.3407 4.08947 77.2785 3.99359 77.243 3.88929C76.8701 2.83834 76.1597 1.94051 75.223 1.33692C74.2863 0.733773 73.1719 0.459063 72.0621 0.556259C71.2807 0.621943 70.5305 0.873573 69.869 1.29076C69.2075 1.70795 68.6526 2.2778 68.2574 2.95285C68.2042 3.0536 68.1287 3.14147 68.0355 3.2107C67.9467 3.27994 67.8401 3.3292 67.7291 3.35405C67.6137 3.37935 67.4983 3.38025 67.3873 3.35717C67.2763 3.33365 67.1698 3.28661 67.0765 3.21915C67.0765 3.21915 63.5249 0.884678 59.405 3.99139C58.0199 5.08318 57.0921 6.65072 56.7991 8.3887C56.5105 10.1271 56.8746 11.9117 57.8246 13.3959C59.9156 16.7067 64.5771 17.3192 67.1476 14.4122C68.2175 13.1318 68.7591 11.4897 68.657 9.82314C68.6836 8.65945 68.4705 7.50286 68.0221 6.42794L69.4783 6.2948C71.1786 6.02851 73.8468 5.46485 76.4217 5.58912C76.3773 5.64681 76.324 5.65126 76.2796 5.70896L80.9322 6.79187C80.9322 6.79187 83.4494 18.5885 84.1642 18.4154C87.2496 17.4479 88.213 12.6502 87.5205 9.72993Z" fill="black"/>
<path d="M83.667 17.3414C83.667 17.3414 83.778 15.0558 86.2552 15.3487C89.0521 15.6949 89.4472 21.1671 86.0954 22.969C83.9555 23.7857 84.0533 22.3965 83.9201 20.5724L83.667 17.3414Z" fill="#FC9D9D"/>
<path opacity="0.2" d="M86.8014 16.7905C86.5883 16.6969 86.3619 16.6525 86.131 16.6609C85.9002 16.6694 85.6738 16.7306 85.4695 16.8393C85.2875 16.9521 85.1277 17.1003 85.0034 17.2743C84.8746 17.4487 84.7859 17.6462 84.737 17.8557C84.5905 18.3896 84.6038 18.955 84.7814 19.48L84.8569 19.9238C84.8835 19.9847 84.9368 20.0322 84.9989 20.0574C85.0611 20.0827 85.1277 20.0836 85.1899 20.0601C85.2564 20.0366 85.3053 19.9904 85.3363 19.9305C85.3674 19.8706 85.3719 19.8018 85.3541 19.7375L85.2831 19.2936C85.1721 18.8476 85.1543 18.3847 85.2254 17.9311C85.2919 17.6529 85.4473 17.4039 85.6693 17.221C85.9357 17.1136 86.2331 17.1043 86.5084 17.1944C86.575 17.2081 86.646 17.2001 86.7037 17.1713C86.7658 17.1424 86.8191 17.0945 86.8502 17.0346C86.9967 17.0213 86.9212 16.8748 86.8014 16.7905Z" fill="black"/>
<path d="M103.045 60.4L105.083 78.9249L121.998 77.5669L120.142 59.8896L103.045 60.4Z" fill="#21252B"/>
<path d="M106.97 47.157C106.97 47.157 102.553 50.672 103.046 57.9861" stroke="black" stroke-width="1.11" stroke-miterlimit="10"/>
<path d="M42.0602 78.5432L33.6118 101.36L49.3143 100.379L56.5774 84.2596L42.0602 78.5432Z" fill="#FC9D9D"/>
<path opacity="0.2" d="M53.8693 83.1672L48.6573 95.9536L43.0857 93.9032C42.7616 93.7177 42.4109 93.5859 42.0469 93.5126C41.3543 93.375 40.6351 93.4017 39.9514 93.5903C39.2722 93.7794 38.6418 94.1251 38.1179 94.6C36.9237 95.666 35.9137 96.9247 35.1345 98.3236L33.856 100.623L49.3143 100.378L56.5774 84.259L53.8693 83.1672Z" fill="black"/>
<path d="M50.3976 100.881L41.998 94.623L48.422 96.4338C48.422 96.4338 52.2089 99.9488 50.3976 100.881Z" fill="#FC9D9D"/>
<path opacity="0.2" d="M45.1498 96.398L49.101 98.6171L50.7125 100.623L50.3973 100.881L45.0699 96.5089C45.0566 96.4983 45.0432 96.4823 45.0432 96.4641C45.0388 96.4463 45.0433 96.4281 45.0521 96.4135C45.0655 96.3988 45.0788 96.3886 45.101 96.386C45.1187 96.3829 45.1365 96.3873 45.1498 96.398Z" fill="black"/>
<path d="M51.0409 103.655L50.7523 105.186L49.6202 104.045L44.7944 86.5854L46.2151 86.1948L51.0409 103.655Z" fill="#4D61FC"/>
<path d="M122.002 98.6438L120.728 77.5669L106.002 79.0359L107.214 93.0206L78.264 97.2812L68.3506 95.7234C67.7202 95.6538 67.0809 95.7314 66.4815 95.9498L61.0875 97.9248L56.5725 102.833C56.1774 104.302 57.7623 103.814 57.7623 103.814L57.3495 104.48C57.2651 104.611 57.2163 104.76 57.1985 104.914C57.1852 105.068 57.2119 105.224 57.2696 105.368C57.6114 106.104 58.6325 105.767 58.6325 105.767L59.3117 105.274C60.4704 106.748 61.5315 105.274 61.5315 105.274C60.9632 106.255 62.4194 106.353 62.4194 106.353L66.5259 104.786L69.4738 104.294C72.9099 105.274 78.304 104.786 78.304 104.786L115.596 105.767C122.428 105.776 122.002 98.6438 122.002 98.6438Z" fill="#FC9D9D"/>
<path d="M62.5611 72.9072L59.6177 61.1372" stroke="black" stroke-width="1.11" stroke-miterlimit="10"/>
<path opacity="0.2" d="M107.214 93.0204C108.275 92.8961 109.345 92.8752 110.41 92.9582C110.472 92.9644 110.539 92.9507 110.592 92.9192C110.646 92.8881 110.69 92.8402 110.717 92.7825C110.743 92.7252 110.752 92.6609 110.743 92.5983C110.73 92.5362 110.699 92.4789 110.655 92.4345C110.126 91.9241 109.061 91.7466 107.059 91.6711L107.214 93.0204Z" fill="black"/>
<path d="M34.1047 105.274C32.7728 105.128 32.7729 103.699 32.9194 102.732C33.0037 102.217 33.1911 101.725 33.4699 101.284L33.5942 101.085C34.9083 98.9939 36.5327 97.1143 38.411 95.5104L38.7351 95.2308C39.1036 94.9081 39.5298 94.6605 39.9959 94.5029C40.4843 94.3396 41.0037 94.2992 41.5054 94.3848C42.0115 94.4709 42.4909 94.6809 42.8949 94.996L48.6663 98.7768C49.1147 99.0733 49.5053 99.4474 49.8206 99.8819L53.1368 104.454C53.2123 104.563 53.2656 104.686 53.2922 104.816C53.3189 104.946 53.3189 105.081 53.2922 105.211C53.2656 105.341 53.2123 105.465 53.1368 105.574C53.0614 105.683 52.9637 105.776 52.8527 105.847C52.6618 105.968 52.431 106.02 52.2046 105.992C51.9826 105.965 51.7695 105.86 51.6141 105.696L49.7983 103.827C49.7983 103.827 49.31 105.789 47.3478 105.297C46.2113 105.913 44.8838 106.089 43.623 105.789C43.623 105.789 42.9349 106.264 34.1047 105.274Z" fill="#FC9D9D"/>
<path opacity="0.2" d="M39.9912 103.815L43.7826 105.963" stroke="black" stroke-width="0.83" stroke-miterlimit="10"/>
<path opacity="0.2" d="M42.4463 102.341L47.352 105.284" stroke="black" stroke-width="0.83" stroke-miterlimit="10"/>
<path opacity="0.2" d="M45.105 100.122L49.3314 103.278C49.3314 103.278 50.1838 104.432 48.2038 105.186" stroke="black" stroke-width="0.83" stroke-miterlimit="10"/>
<path opacity="0.2" d="M78.2638 103.815C78.2638 103.815 71.2627 104.569 69.5047 103.815L65.7977 104.547L63.5425 105.918L66.4859 104.796L69.4337 104.303C72.8699 105.284 78.2638 104.796 78.2638 104.796V103.815Z" fill="black"/>
<path opacity="0.2" d="M61.5806 105.283L65.4385 102.833L68.4529 101.848" stroke="black" stroke-width="0.83" stroke-miterlimit="10"/>
<path d="M77.0387 105.283H0V109.944H77.0387V105.283Z" fill="#B2B6BB"/>
<path opacity="0.2" d="M67.8796 99.8958L63.5422 101.36L59.6177 104.796" stroke="black" stroke-width="0.83" stroke-miterlimit="10"/>
<path opacity="0.2" d="M66.9788 97.9243L62.0154 99.8949L57.9844 103.436" stroke="black" stroke-width="0.83" stroke-miterlimit="10"/>
<path opacity="0.3" d="M53.8691 83.1678L59.6183 71.5132L58.4774 60.4L59.454 59.8896L62.7171 72.7381L57.6561 84.6812L53.8691 83.1678Z" fill="black"/>
<path d="M58.8811 109.943H5.88672V113.378H58.8811V109.943Z" fill="#61656D"/>
<path d="M132.987 66.7911L127.572 104.215H124.658L130.863 66.4604C130.884 66.3218 130.933 66.1891 131.009 66.0693C131.082 65.9498 131.179 65.8458 131.293 65.7635C131.408 65.6812 131.537 65.6223 131.675 65.5897C131.812 65.5573 131.955 65.552 132.094 65.5745C132.374 65.6189 132.627 65.7719 132.792 65.9998C132.96 66.2279 133.031 66.5123 132.987 66.7911Z" fill="#61656D"/>
<path opacity="0.15" d="M77.0385 105.274H50.0508V109.943H77.0385V105.274Z" fill="black"/>
<path opacity="0.2" d="M115.555 105.776C122.428 105.776 122.002 98.6434 122.002 98.6434L121.908 97.1167C121.464 103.605 113.917 103.499 113.917 103.499L78.2637 103.814V104.795L115.555 105.776Z" fill="black"/>
<path d="M78.8633 97.1929L81.5758 96.7935L82.6369 104.866H79.9554L78.8633 97.1929Z" fill="#4D61FC"/>
<path opacity="0.2" d="M78.8633 97.1929L81.5758 96.7935L82.6369 104.866H79.9554L78.8633 97.1929Z" fill="black"/>
<path d="M80.6216 101.946C81.8469 101.946 82.8414 100.952 82.8414 99.7267C82.8414 98.5013 81.8469 97.5076 80.6216 97.5076C79.3963 97.5076 78.4019 98.5013 78.4019 99.7267C78.4019 100.952 79.3963 101.946 80.6216 101.946Z" fill="#4D61FC"/>
<path d="M80.6215 101.453C81.576 101.453 82.3485 100.68 82.3485 99.7265C82.3485 98.7731 81.576 98 80.6215 98C79.667 98 78.8945 98.7731 78.8945 99.7265C78.8945 100.68 79.667 101.453 80.6215 101.453Z" fill="white"/>
<path d="M80.1775 98.6172L80.6214 99.7267L79.2896 99.9486" stroke="#4D61FC" stroke-width="0.5" stroke-miterlimit="10" stroke-linecap="round"/>
</svg>
