<svg width="265" height="204" viewBox="0 0 265 204" fill="none" xmlns="http://www.w3.org/2000/svg">
<path d="M18.4016 202.95L0.0418968 82.0968C-0.204857 79.0215 0.644096 75.9582 2.43655 73.4567L51.26 5.37272C52.5645 3.55268 54.316 2.10504 56.3428 1.17212C58.3696 0.239207 60.6021 -0.147439 62.8216 0.0504191L229.967 14.8984C232.613 15.133 235.123 16.1869 237.149 17.9158C239.177 19.6444 240.624 21.9634 241.291 24.5537L264.255 113.607C264.819 115.797 264.804 118.097 264.212 120.279L235.309 203.252L18.4016 202.95Z" fill="#00BC7D"/>
<path opacity="0.8" d="M18.4016 202.95L0.0418968 82.0968C-0.204857 79.0215 0.644096 75.9582 2.43655 73.4567L51.26 5.37272C52.5645 3.55268 54.316 2.10504 56.3428 1.17212C58.3696 0.239207 60.6021 -0.147439 62.8216 0.0504191L229.967 14.8984C232.613 15.133 235.123 16.1869 237.149 17.9158C239.177 19.6444 240.624 21.9634 241.291 24.5537L264.255 113.607C264.819 115.797 264.804 118.097 264.212 120.279L235.309 203.252L18.4016 202.95Z" fill="white"/>
<path d="M137.448 104.164L137.446 104.183L137.459 104.174L137.448 104.164Z" fill="white"/>
<path d="M137.535 104.164L137.519 104.168L137.53 104.175L137.535 104.164Z" fill="white"/>
<path d="M137.523 104.187L137.517 104.185L137.521 104.192L137.523 104.187Z" fill="white"/>
<path d="M137.461 104.172L137.467 104.17L137.459 104.168L137.461 104.172Z" fill="white"/>
<path d="M137.54 104.172L137.536 104.178L137.542 104.182L137.54 104.172Z" fill="white"/>
<path d="M137.549 104.194L137.547 104.196H137.557L137.549 104.194Z" fill="white"/>
<path d="M137.521 104.196H137.545L137.528 104.187L137.521 104.196Z" fill="white"/>
<path d="M137.455 104.123V104.125L137.461 104.131L137.455 104.123Z" fill="white"/>
<path d="M137.553 104.159L137.549 104.187L137.562 104.196H137.56H137.568H137.571L137.566 104.155L137.553 104.159Z" fill="white"/>
<path d="M137.495 104.179L137.478 104.196H137.519L137.495 104.179Z" fill="white"/>
<path d="M137.446 104.183L137.442 104.161L137.334 104.131L137.431 104.194L137.446 104.183Z" fill="white"/>
<path d="M133.122 72.9619L137.495 103.85L141.828 72.9619L141.897 72.9727L147.509 7.5737L127.091 5.75928L132.996 72.9857L133.122 72.9619Z" fill="white"/>
<path d="M137.667 104.263L137.624 104.237L137.622 104.244L137.667 104.263Z" fill="white"/>
<path d="M137.692 104.109L137.688 104.118H137.69H137.686L137.662 104.166L137.853 104.109H137.718L251.139 62.7427L244.393 36.5784L137.703 104.109H137.692Z" fill="white"/>
<path d="M168.714 104.164L137.645 104.196V104.22L167.47 113.015L167.451 113.082L261.158 129.222L264.223 120.273C264.815 118.091 264.83 115.791 264.266 113.601L261.818 104.11H168.714V104.164Z" fill="white"/>
<path d="M107.544 95.342L137.264 104.11H137.148L137.435 104.194H137.448H137.47L137.487 104.176L137.511 104.194H137.478L137.5 104.211H137.517H137.53H137.547V104.2L137.528 104.213H137.553V104.192H137.541V104.164H137.553V104.116L137.583 103.945L137.526 104.073V104.116L137.489 104.142L137.476 104.116H137.45V104.073L137.401 103.965L137.42 104.103L137.431 104.116L137.369 104.075L137.399 104.112H137.296L29.644 35.5266L15.9707 54.578L107.544 95.342ZM137.53 104.198H137.547H137.53ZM137.549 104.174V104.185V104.174ZM137.487 104.174H137.5H137.485H137.487ZM137.487 104.174V104.194H137.472L137.375 104.131L137.487 104.174Z" fill="white"/>
<path d="M117.028 80.3728L137.42 104.081L124.485 75.5257H124.495L90.5585 2.56013L62.8217 0.0437012H62.7467L117.024 80.3771L117.028 80.3728Z" fill="white"/>
<path d="M163.744 121.267L137.624 104.317L157.99 127.993L157.939 128.036L228.914 203.235L235.305 203.252L240.665 187.43L163.764 121.239L163.744 121.267Z" fill="white"/>
<path d="M137.367 104.33L111.309 121.362L111.249 121.267L18.496 202.95L46.1513 202.998L121.009 123.465L137.367 104.33Z" fill="white"/>
<path d="M107.561 113.11L137.425 104.196L4.13232 108.687L7.68464 131.367L107.563 113.115L107.561 113.11Z" fill="white"/>
<path d="M92.4814 203.058L116.353 203.088L137.412 104.434L92.4814 203.058Z" fill="white"/>
<path d="M159.607 203.147L183.465 203.177L137.577 104.429L159.607 203.147Z" fill="white"/>
<path d="M218.266 13.853L186.681 11.0471L137.89 103.732L218.266 13.853Z" fill="white"/>
<path d="M137.663 104.166L137.686 104.118H137.688L137.693 104.11L137.89 103.732L137.562 104.099L137.564 104.108L137.566 104.155L137.57 104.196V104.2L137.572 104.222L137.579 104.324L137.622 104.244L137.624 104.237L137.635 104.22L137.645 104.196L137.663 104.166Z" fill="white"/>
<path d="M58.2511 138.968C57.5179 139.817 56.7611 140.696 56.551 141.007C56.5339 143.789 59.338 186.368 60.4335 202.808C60.4399 202.901 60.4275 202.991 60.3971 203.08C60.3664 203.166 60.3182 203.246 60.2556 203.313C60.193 203.38 60.1173 203.434 60.0333 203.471C59.949 203.508 59.8583 203.525 59.7668 203.525L35.0613 203.508C34.9704 203.508 34.8802 203.49 34.7966 203.454C34.713 203.417 34.6375 203.365 34.5751 203.298C34.5125 203.231 34.4643 203.153 34.4332 203.067C34.4021 202.98 34.389 202.888 34.3946 202.797C35.3165 186.564 37.6489 144.82 37.6747 141.251L37.4603 141.035C35.6959 139.426 33.8437 137.579 33.4728 136.013C33.119 134.531 31.6462 123.215 31.5433 122.496C30.9538 119.394 31.0653 119.053 31.1253 118.869C31.4855 117.776 33.8672 117.223 35.1492 117.046C35.143 116.858 35.1782 116.67 35.2522 116.497C35.4451 116.076 35.9146 115.752 36.77 115.441C38.0563 114.975 40.5645 114.502 41.9152 114.577L41.943 114.523C42.6548 113.275 46.9103 113.085 48.6296 113.19C48.713 113.031 48.8283 112.892 48.9683 112.78C49.1081 112.669 49.2695 112.588 49.4421 112.542C50.7563 112.087 55.3612 112.326 56.3131 113.031C56.6475 113.279 56.9262 113.707 56.9305 116.249C57.6272 116.239 58.3141 116.414 58.9221 116.757C59.8654 117.305 61.7091 121.139 62.4508 122.762C63.1926 124.384 64.9184 128.287 64.7597 129.458C64.4789 131.609 61.3897 135.335 58.2511 138.968Z" fill="#3562FF"/>
<path opacity="0.2" d="M58.2511 138.968C57.5179 139.817 56.7611 140.696 56.551 141.007C56.5339 143.789 59.338 186.368 60.4335 202.808C60.4399 202.901 60.4275 202.991 60.3971 203.08C60.3664 203.166 60.3182 203.246 60.2556 203.313C60.193 203.38 60.1173 203.434 60.0333 203.471C59.949 203.508 59.8583 203.525 59.7668 203.525L35.0613 203.508C34.9704 203.508 34.8802 203.49 34.7966 203.454C34.713 203.417 34.6375 203.365 34.5751 203.298C34.5125 203.231 34.4643 203.153 34.4332 203.067C34.4021 202.98 34.389 202.888 34.3946 202.797C35.3165 186.564 37.6489 144.82 37.6747 141.251L37.4603 141.035C35.6959 139.426 33.8437 137.579 33.4728 136.013C33.119 134.531 31.6462 123.215 31.5433 122.496C30.9538 119.394 31.0653 119.053 31.1253 118.869C31.4855 117.776 33.8672 117.223 35.1492 117.046C35.143 116.858 35.1782 116.67 35.2522 116.497C35.4451 116.076 35.9146 115.752 36.77 115.441C38.0563 114.975 40.5645 114.502 41.9152 114.577L41.943 114.523C42.6548 113.275 46.9103 113.085 48.6296 113.19C48.713 113.031 48.8283 112.892 48.9683 112.78C49.1081 112.669 49.2695 112.588 49.4421 112.542C50.7563 112.087 55.3612 112.326 56.3131 113.031C56.6475 113.279 56.9262 113.707 56.9305 116.249C57.6272 116.239 58.3141 116.414 58.9221 116.757C59.8654 117.305 61.7091 121.139 62.4508 122.762C63.1926 124.384 64.9184 128.287 64.7597 129.458C64.4789 131.609 61.3897 135.335 58.2511 138.968Z" fill="white"/>
<path opacity="0.2" d="M39.8098 129.524C38.0947 128.641 35.4835 117.914 35.2048 116.631C35.2181 116.589 35.234 116.548 35.252 116.508C35.4449 116.087 35.9144 115.763 36.7698 115.452C37.753 115.125 38.7632 114.887 39.7883 114.741L39.8612 114.769C39.8612 114.769 38.2834 115.57 38.2233 116.409C38.1697 117.115 40.2728 127.569 40.7788 128.204C42.1894 129.971 43.4886 128.06 44.1596 127.988C44.1596 127.986 42.4081 130.855 39.8098 129.524Z" fill="black"/>
<path opacity="0.2" d="M49.8558 127.76C49.1981 128.34 48.3526 128.658 47.4783 128.654C46.1641 128.665 44.9057 128.185 44.6227 126.892C43.8124 123.269 42.1123 115.294 41.9708 114.519C42.6268 113.635 44.4405 113.359 45.9691 113.238C45.9691 113.238 44.8307 114.26 44.6377 115.035C44.4448 115.811 45.7418 127.101 46.3978 127.576C47.8835 128.648 49.3177 127.79 49.8558 127.76Z" fill="black"/>
<path opacity="0.2" d="M51.3158 123.383C51.3158 123.383 51.4658 126.546 51.7617 126.84C53.1423 128.205 53.7983 127.321 54.8938 126.66C54.8938 126.66 53.7983 128.205 52.229 128.114C51.3522 128.064 50.5719 127.567 50.4432 126.693L49.8558 122.686L51.3158 123.383Z" fill="black"/>
<path opacity="0.2" d="M50.0315 117.277C50.0315 117.277 48.102 122.461 56.866 123.351C56.866 123.351 50.2201 124.532 48.5544 121.02C46.8886 117.508 48.6916 117.268 48.6916 117.268L50.0315 117.277Z" fill="black"/>
<path opacity="0.2" d="M50.9514 114.08C50.7606 114.594 51.0736 117.275 51.0286 117.21C50.9836 117.145 49.1742 117.685 49.1978 117.612C49.2213 117.538 48.8698 113.899 48.7819 112.97C48.9622 112.771 49.1926 112.626 49.4486 112.549C50.2354 112.277 52.2077 112.251 53.8649 112.428L54.0171 112.536C54.0171 112.536 51.6074 112.315 50.9514 114.08Z" fill="black"/>
<path opacity="0.2" d="M33.2883 117.461C33.1326 117.598 33.0068 117.766 32.9185 117.954C32.8303 118.143 32.7817 118.348 32.7759 118.556C32.7266 119.977 36.0988 128.295 36.4375 128.585C36.7763 128.874 37.5095 130.261 39.1259 129.751L37.8396 130.138C37.2516 130.314 36.6187 130.258 36.0707 129.979C35.5226 129.701 35.1009 129.222 34.8919 128.641L31.2881 118.584C31.6461 118.083 32.4436 117.716 33.2883 117.461Z" fill="black"/>
<path d="M48.6918 117.297C48.6918 117.297 49.1934 118.83 50.0874 119.085C51.2279 119.409 53.3567 119.133 53.9227 118.668C54.7159 118.02 54.8939 116.724 54.8939 116.724L48.6918 117.297Z" fill="white"/>
<path opacity="0.2" d="M44.865 141.113L44.9517 141.089L44.865 141.113Z" fill="black"/>
<path opacity="0.2" d="M31.1188 118.904C31.6076 120.258 34.6454 128.671 35.0291 129.488C35.996 131.568 38.4228 129.974 39.5655 129.892C39.5655 129.892 37.4216 131.736 37.308 132.594C37.0936 134.283 38.1934 137.244 38.8816 138.193C39.5419 139.102 40.7917 141.45 43.7331 141.281C43.8939 141.234 44.0546 141.184 44.2133 141.126L44.1232 141.245C44.3745 141.213 44.6236 141.166 44.8693 141.104C44.6656 141.16 44.3912 141.232 44.0739 141.307C43.7309 141.739 42.7876 142.904 41.8444 143.565C41.5153 143.798 41.2462 144.107 41.0597 144.466C40.8734 144.825 40.7748 145.224 40.7724 145.63C40.6502 154.963 41.9687 202.516 41.9966 203.505H39.0552L34.8898 203.477C34.77 203.445 34.661 203.38 34.5747 203.291C34.5125 203.224 34.4645 203.147 34.4336 203.06C34.4027 202.974 34.3894 202.881 34.3946 202.79C35.3164 186.558 37.6489 144.813 37.6746 141.245L37.4602 141.029C35.6959 139.419 33.8436 137.573 33.4727 136.007C33.119 134.525 31.6462 123.208 31.5433 122.489C30.9752 119.521 31.0588 119.094 31.1188 118.904Z" fill="black"/>
<path opacity="0.2" d="M44.957 141.089C45.0556 141.065 45.1543 141.037 45.255 141.007C45.255 141.007 45.1457 141.039 44.957 141.089Z" fill="black"/>
<path opacity="0.2" d="M47.191 128.727C47.191 128.727 48.7925 132.017 48.0357 136.674C48.0308 136.699 48.0173 136.721 47.9978 136.737C47.9782 136.753 47.9538 136.762 47.9285 136.762C47.9032 136.762 47.8788 136.753 47.8593 136.737C47.8398 136.721 47.8263 136.699 47.8213 136.674C47.6498 134.846 47.1203 130.433 45.9176 128.874L47.191 128.727Z" fill="black"/>
<path opacity="0.2" d="M55.4317 123.543L54.6749 128.427L55.3309 129.088L56.6451 123.385L55.4317 123.543Z" fill="black"/>
<path opacity="0.2" d="M56.656 141.007C56.656 141.007 53.0844 142.143 49.2513 141.257C49.2206 141.248 49.1874 141.25 49.1587 141.265C49.1297 141.279 49.1074 141.304 49.0958 141.334C49.0845 141.364 49.0847 141.397 49.0969 141.427C49.1091 141.457 49.1321 141.482 49.1612 141.495C50.5804 142.249 53.6182 143.508 56.6646 142.517L56.656 141.007Z" fill="black"/>
<path d="M203.748 138.968C204.481 139.817 205.249 140.696 205.448 141.007C205.465 143.789 202.661 186.368 201.566 202.808C201.559 202.901 201.572 202.991 201.602 203.08C201.632 203.166 201.681 203.246 201.744 203.313C201.806 203.38 201.883 203.434 201.967 203.471C202.05 203.508 202.14 203.525 202.232 203.525L226.938 203.508C227.028 203.508 227.118 203.49 227.202 203.454C227.287 203.417 227.362 203.365 227.424 203.298C227.487 203.231 227.536 203.153 227.566 203.067C227.596 202.98 227.611 202.888 227.605 202.797C226.683 186.564 224.35 144.82 224.325 141.251L224.539 141.035C226.303 139.426 228.156 137.579 228.526 136.013C228.88 134.531 230.353 123.215 230.456 122.496C231.045 119.394 230.934 119.053 230.872 118.869C230.514 117.776 228.132 117.223 226.85 117.046C226.856 116.858 226.822 116.67 226.747 116.497C226.552 116.076 226.085 115.752 225.227 115.441C223.941 114.975 221.435 114.502 220.082 114.577L220.054 114.523C219.342 113.275 215.087 113.085 213.367 113.19C213.284 113.031 213.168 112.892 213.029 112.78C212.889 112.669 212.729 112.588 212.555 112.542C211.241 112.087 206.634 112.326 205.682 113.031C205.35 113.279 205.071 113.707 205.067 116.249C204.37 116.239 203.684 116.414 203.075 116.757C202.132 117.305 200.288 121.139 199.546 122.762C198.804 124.384 197.079 128.287 197.237 129.458C197.52 131.609 200.61 135.335 203.748 138.968Z" fill="#15247C"/>
<path opacity="0.3" d="M203.748 138.968C204.481 139.817 205.249 140.696 205.448 141.007C205.465 143.789 202.661 186.368 201.566 202.808C201.559 202.901 201.572 202.991 201.602 203.08C201.632 203.166 201.681 203.246 201.744 203.313C201.806 203.38 201.883 203.434 201.967 203.471C202.05 203.508 202.14 203.525 202.232 203.525L226.938 203.508C227.028 203.508 227.118 203.49 227.202 203.454C227.287 203.417 227.362 203.365 227.424 203.298C227.487 203.231 227.536 203.153 227.566 203.067C227.596 202.98 227.611 202.888 227.605 202.797C226.683 186.564 224.35 144.82 224.325 141.251L224.539 141.035C226.303 139.426 228.156 137.579 228.526 136.013C228.88 134.531 230.353 123.215 230.456 122.496C231.045 119.394 230.934 119.053 230.872 118.869C230.514 117.776 228.132 117.223 226.85 117.046C226.856 116.858 226.822 116.67 226.747 116.497C226.552 116.076 226.085 115.752 225.227 115.441C223.941 114.975 221.435 114.502 220.082 114.577L220.054 114.523C219.342 113.275 215.087 113.085 213.367 113.19C213.284 113.031 213.168 112.892 213.029 112.78C212.889 112.669 212.729 112.588 212.555 112.542C211.241 112.087 206.634 112.326 205.682 113.031C205.35 113.279 205.071 113.707 205.067 116.249C204.37 116.239 203.684 116.414 203.075 116.757C202.132 117.305 200.288 121.139 199.546 122.762C198.804 124.384 197.079 128.287 197.237 129.458C197.52 131.609 200.61 135.335 203.748 138.968Z" fill="white"/>
<path opacity="0.2" d="M222.187 129.524C223.902 128.641 226.514 117.914 226.794 116.631C226.781 116.589 226.764 116.548 226.747 116.508C226.552 116.087 226.085 115.763 225.227 115.452C224.245 115.125 223.236 114.887 222.211 114.741L222.136 114.769C222.136 114.769 223.716 115.57 223.776 116.409C223.827 117.115 221.726 127.569 221.22 128.204C219.81 129.971 218.511 128.06 217.84 127.988C217.84 127.986 219.587 130.855 222.187 129.524Z" fill="black"/>
<path opacity="0.2" d="M212.143 127.76C212.802 128.34 213.646 128.658 214.521 128.654C215.835 128.665 217.094 128.185 217.376 126.892C218.187 123.269 219.887 115.294 220.028 114.519C219.372 113.635 217.559 113.359 216.03 113.238C216.03 113.238 217.169 114.26 217.361 115.035C217.554 115.811 216.257 127.101 215.601 127.576C214.116 128.648 212.682 127.79 212.143 127.76Z" fill="black"/>
<path opacity="0.2" d="M210.683 123.383C210.683 123.383 210.533 126.546 210.235 126.84C208.857 128.205 208.201 127.321 207.105 126.66C207.105 126.66 208.201 128.205 209.77 128.114C210.647 128.064 211.427 127.567 211.556 126.693L212.143 122.686L210.683 123.383Z" fill="black"/>
<path opacity="0.2" d="M211.968 117.277C211.968 117.277 213.897 122.461 205.133 123.351C205.133 123.351 211.779 124.532 213.445 121.02C215.11 117.508 213.307 117.268 213.307 117.268L211.968 117.277Z" fill="black"/>
<path opacity="0.2" d="M211.048 114.08C211.239 114.594 210.924 117.275 210.971 117.21C211.018 117.145 212.825 117.685 212.799 117.612C212.774 117.538 213.13 113.899 213.228 112.97C213.048 112.771 212.817 112.626 212.561 112.549C211.775 112.277 209.802 112.251 208.145 112.428L207.993 112.536C207.993 112.536 210.39 112.315 211.048 114.08Z" fill="black"/>
<path opacity="0.2" d="M228.715 117.461C228.872 117.598 228.996 117.766 229.084 117.954C229.174 118.143 229.221 118.348 229.228 118.556C229.277 119.977 225.905 128.295 225.566 128.585C225.227 128.874 224.494 130.261 222.878 129.751L224.164 130.138C224.751 130.314 225.384 130.257 225.933 129.979C226.479 129.701 226.902 129.222 227.109 128.641L230.715 118.584C230.353 118.083 229.556 117.716 228.715 117.461Z" fill="black"/>
<path d="M213.307 117.297C213.307 117.297 212.806 118.83 211.912 119.085C210.771 119.409 208.642 119.133 208.074 118.668C207.283 118.02 207.105 116.724 207.105 116.724L213.307 117.297Z" fill="white"/>
<path opacity="0.2" d="M217.127 141.113L217.042 141.089L217.127 141.113Z" fill="black"/>
<path opacity="0.2" d="M230.88 118.904C230.392 120.258 227.354 128.671 226.97 129.488C226.003 131.568 223.576 129.974 222.434 129.892C222.434 129.892 224.578 131.736 224.691 132.594C224.906 134.283 223.806 137.244 223.118 138.193C222.457 139.102 221.207 141.45 218.264 141.281C218.105 141.234 217.945 141.184 217.786 141.126L217.876 141.245C217.625 141.213 217.374 141.166 217.128 141.104C217.342 141.16 217.608 141.232 217.925 141.307C218.268 141.739 219.212 142.904 220.155 143.565C220.485 143.798 220.753 144.107 220.94 144.466C221.126 144.825 221.225 145.224 221.227 145.63C221.349 154.963 220.028 202.516 220.003 203.505H222.942L227.107 203.477C227.227 203.445 227.337 203.38 227.425 203.291C227.487 203.224 227.534 203.147 227.566 203.06C227.596 202.974 227.609 202.881 227.605 202.79C226.683 186.558 224.35 144.813 224.325 141.245L224.539 141.029C226.303 139.419 228.156 137.573 228.527 136.007C228.88 134.525 230.353 123.208 230.456 122.489C231.024 119.521 230.949 119.094 230.88 118.904Z" fill="black"/>
<path opacity="0.2" d="M217.042 141.089C216.943 141.065 216.845 141.037 216.744 141.007C216.744 141.007 216.853 141.039 217.042 141.089Z" fill="black"/>
<path opacity="0.2" d="M214.808 128.727C214.808 128.727 213.205 132.017 213.963 136.674C213.968 136.699 213.983 136.721 214.002 136.737C214.021 136.753 214.045 136.762 214.071 136.762C214.096 136.762 214.12 136.753 214.139 136.737C214.159 136.721 214.174 136.699 214.178 136.674C214.349 134.846 214.879 130.433 216.082 128.874L214.808 128.727Z" fill="black"/>
<path opacity="0.2" d="M206.567 123.543L207.324 128.427L206.666 129.088L205.354 123.385L206.567 123.543Z" fill="black"/>
<path opacity="0.2" d="M205.352 141.007C205.352 141.007 208.923 142.143 212.759 141.257C212.789 141.248 212.823 141.25 212.851 141.265C212.881 141.279 212.902 141.304 212.913 141.334C212.926 141.364 212.926 141.397 212.913 141.427C212.9 141.457 212.879 141.482 212.849 141.495C211.43 142.249 208.392 143.508 205.345 142.517L205.352 141.007Z" fill="black"/>
<path d="M185.285 150.282C184.681 150.98 184.057 151.701 183.883 151.963C183.868 154.257 186.179 189.377 187.086 202.939C187.091 203.015 187.08 203.091 187.056 203.164C187.03 203.235 186.99 203.3 186.938 203.356C186.887 203.412 186.825 203.456 186.754 203.486C186.685 203.516 186.61 203.531 186.535 203.531L166.169 203.518C166.094 203.518 166.02 203.501 165.951 203.473C165.883 203.443 165.821 203.397 165.77 203.343C165.718 203.287 165.679 203.222 165.653 203.153C165.627 203.082 165.616 203.006 165.62 202.931C166.381 189.539 168.304 155.114 168.326 152.17L168.141 152.002C166.677 150.667 165.148 149.144 164.842 147.848C164.55 146.623 163.341 137.292 163.258 136.698C162.771 134.141 162.865 133.86 162.915 133.706C163.21 132.806 165.174 132.35 166.231 132.205C166.227 132.049 166.256 131.893 166.317 131.749C166.478 131.404 166.864 131.136 167.569 130.885C168.641 130.499 170.699 130.11 171.818 130.168C171.825 130.153 171.832 130.139 171.841 130.125C172.427 129.093 175.938 128.937 177.355 129.023C177.424 128.893 177.52 128.778 177.634 128.687C177.75 128.595 177.883 128.528 178.024 128.49C179.109 128.114 182.908 128.308 183.693 128.894C183.969 129.097 184.198 129.451 184.201 131.546C184.775 131.538 185.341 131.683 185.843 131.965C186.621 132.419 188.139 135.581 188.754 136.918C189.369 138.255 190.789 141.476 190.66 142.441C190.431 144.213 187.873 147.286 185.285 150.282Z" fill="#3562FF"/>
<path opacity="0.2" d="M185.285 150.282C184.681 150.98 184.057 151.701 183.883 151.963C183.868 154.257 186.179 189.377 187.086 202.939C187.091 203.015 187.08 203.091 187.056 203.164C187.03 203.235 186.99 203.3 186.938 203.356C186.887 203.412 186.825 203.456 186.754 203.486C186.685 203.516 186.61 203.531 186.535 203.531L166.169 203.518C166.094 203.518 166.02 203.501 165.951 203.473C165.883 203.443 165.821 203.397 165.77 203.343C165.718 203.287 165.679 203.222 165.653 203.153C165.627 203.082 165.616 203.006 165.62 202.931C166.381 189.539 168.304 155.114 168.326 152.17L168.141 152.002C166.677 150.667 165.148 149.144 164.842 147.848C164.55 146.623 163.341 137.292 163.258 136.698C162.771 134.141 162.865 133.86 162.915 133.706C163.21 132.806 165.174 132.35 166.231 132.205C166.227 132.049 166.256 131.893 166.317 131.749C166.478 131.404 166.864 131.136 167.569 130.885C168.641 130.499 170.699 130.11 171.818 130.168C171.825 130.153 171.832 130.139 171.841 130.125C172.427 129.093 175.938 128.937 177.355 129.023C177.424 128.893 177.52 128.778 177.634 128.687C177.75 128.595 177.883 128.528 178.024 128.49C179.109 128.114 182.908 128.308 183.693 128.894C183.969 129.097 184.198 129.451 184.201 131.546C184.775 131.538 185.341 131.683 185.843 131.965C186.621 132.419 188.139 135.581 188.754 136.918C189.369 138.255 190.789 141.476 190.66 142.441C190.431 144.213 187.873 147.286 185.285 150.282Z" fill="white"/>
<path opacity="0.2" d="M170.077 142.491C168.658 141.765 166.51 132.918 166.278 131.86C166.289 131.824 166.301 131.789 166.317 131.756C166.478 131.41 166.864 131.142 167.569 130.892C168.382 130.621 169.217 130.423 170.064 130.3L170.126 130.324C170.126 130.324 168.823 130.985 168.774 131.676C168.731 132.259 170.465 140.882 170.881 141.396C172.045 142.856 173.115 141.279 173.668 141.217C173.664 141.223 172.219 143.591 170.077 142.491Z" fill="black"/>
<path opacity="0.2" d="M178.361 141.042C177.819 141.52 177.122 141.782 176.402 141.778C175.317 141.778 174.283 141.392 174.043 140.325C173.374 137.337 171.972 130.76 171.854 130.121C172.397 129.393 173.893 129.164 175.154 129.064C175.154 129.064 174.213 129.907 174.054 130.546C173.895 131.186 174.965 140.497 175.508 140.888C176.736 141.77 177.917 141.063 178.361 141.042Z" fill="black"/>
<path opacity="0.2" d="M179.566 137.428C179.566 137.428 179.688 140.037 179.935 140.279C181.071 141.406 181.613 140.676 182.507 140.132C182.507 140.132 181.605 141.406 180.31 141.331C179.587 141.29 178.944 140.882 178.837 140.158L178.352 136.855L179.566 137.428Z" fill="black"/>
<path opacity="0.2" d="M178.507 132.393C178.507 132.393 176.916 136.672 184.143 137.402C184.143 137.402 178.668 138.376 177.283 135.48C175.898 132.583 177.398 132.384 177.398 132.384L178.507 132.393Z" fill="black"/>
<path opacity="0.2" d="M179.266 129.756C179.107 130.188 179.366 132.391 179.328 132.348C179.289 132.305 177.799 132.739 177.827 132.68C177.855 132.622 177.557 129.617 177.484 128.851C177.632 128.687 177.823 128.567 178.033 128.503C178.676 128.287 180.31 128.259 181.677 128.404L181.804 128.492C181.804 128.492 179.806 128.3 179.266 129.756Z" fill="black"/>
<path opacity="0.2" d="M164.705 132.544C164.575 132.656 164.47 132.795 164.396 132.95C164.322 133.105 164.282 133.275 164.276 133.447C164.235 134.62 167.016 141.478 167.297 141.718C167.577 141.957 168.178 143.1 169.513 142.679L168.452 142.998C167.967 143.144 167.445 143.098 166.993 142.868C166.542 142.638 166.194 142.243 166.023 141.763L163.05 133.471C163.343 133.056 164.002 132.753 164.705 132.544Z" fill="black"/>
<path d="M177.403 132.408C177.403 132.408 177.814 133.672 178.552 133.883C179.493 134.151 181.249 133.922 181.716 133.54C182.37 133.004 182.516 131.939 182.516 131.939L177.403 132.408Z" fill="white"/>
<path opacity="0.2" d="M174.249 152.051L174.319 152.032L174.249 152.051Z" fill="black"/>
<path opacity="0.2" d="M162.908 133.732C163.311 134.849 165.817 141.787 166.124 142.47C166.919 144.185 168.922 142.871 169.863 142.802C169.863 142.802 168.094 144.325 168.002 145.032C167.822 146.425 168.733 148.866 169.299 149.65C169.843 150.399 170.875 152.337 173.301 152.196C173.434 152.157 173.565 152.116 173.696 152.069L173.623 152.166C173.83 152.14 174.036 152.102 174.238 152.052C174.071 152.097 173.844 152.155 173.582 152.218C173.054 152.918 172.435 153.544 171.743 154.08C171.472 154.272 171.25 154.527 171.096 154.823C170.943 155.119 170.862 155.448 170.86 155.782C170.759 163.48 171.846 202.7 171.869 203.518H169.455L166.025 203.495C165.902 203.462 165.795 203.389 165.72 203.285C165.645 203.182 165.608 203.056 165.616 202.929C166.377 189.537 168.3 155.112 168.321 152.168L168.137 152C166.677 150.667 165.149 149.144 164.842 147.848C164.55 146.623 163.341 137.292 163.258 136.698C162.79 134.24 162.859 133.89 162.908 133.732Z" fill="black"/>
<path opacity="0.2" d="M174.32 152.032L174.569 151.963L174.32 152.032Z" fill="black"/>
<path opacity="0.2" d="M176.164 141.834C176.164 141.834 177.486 144.55 176.86 148.39C176.86 148.414 176.852 148.437 176.835 148.454C176.817 148.471 176.794 148.481 176.77 148.481C176.747 148.481 176.723 148.471 176.706 148.454C176.689 148.437 176.68 148.414 176.68 148.39C176.539 146.878 176.101 143.245 175.109 141.958L176.164 141.834Z" fill="black"/>
<path opacity="0.2" d="M182.962 137.56L182.336 141.588L182.878 142.135L183.963 137.43L182.962 137.56Z" fill="black"/>
<path opacity="0.2" d="M183.963 151.963C183.963 151.963 181.017 152.9 177.853 152.179C177.827 152.173 177.801 152.177 177.78 152.189C177.756 152.201 177.739 152.221 177.731 152.245C177.722 152.269 177.722 152.296 177.731 152.32C177.739 152.343 177.758 152.363 177.78 152.375C178.95 152.995 181.457 154.037 183.963 153.218V151.963Z" fill="black"/>
<path d="M77.5711 150.282C78.1757 150.98 78.7996 151.701 78.9732 151.963C78.9882 154.257 76.6772 189.376 75.7703 202.939C75.765 203.015 75.7755 203.092 75.8008 203.164C75.8263 203.235 75.8664 203.3 75.9183 203.356C75.9699 203.412 76.0325 203.455 76.1018 203.486C76.171 203.516 76.2458 203.531 76.3213 203.531L96.6876 203.518C96.7627 203.518 96.8368 203.503 96.9059 203.473C96.9747 203.442 97.0369 203.399 97.0883 203.343C97.1398 203.289 97.1798 203.224 97.2056 203.153C97.2315 203.082 97.2427 203.006 97.2386 202.931C96.4775 189.538 94.5545 155.114 94.5331 152.17L94.7174 152.001C96.171 150.673 97.6995 149.144 98.0061 147.861C98.2976 146.636 99.5068 137.305 99.5904 136.711C100.075 134.153 99.9827 133.872 99.9334 133.719C99.6375 132.818 97.6738 132.363 96.6169 132.218C96.621 132.061 96.5918 131.906 96.5311 131.762C96.3703 131.416 95.9844 131.149 95.2791 130.898C94.2072 130.511 92.1492 130.123 91.0301 130.181C91.0232 130.166 91.0155 130.152 91.0065 130.138C90.4212 129.105 86.9096 128.95 85.4926 129.036C85.4233 128.906 85.3281 128.791 85.213 128.699C85.0979 128.608 84.9654 128.541 84.8237 128.503C83.7389 128.127 79.9401 128.321 79.1554 128.906C78.8789 129.11 78.6495 129.464 78.6452 131.559C78.0709 131.551 77.5045 131.696 77.003 131.978C76.2248 132.432 74.7091 135.594 74.0939 136.931C73.4786 138.268 72.0594 141.489 72.188 142.454C72.4345 144.212 74.9835 147.286 77.5711 150.282Z" fill="#15247C"/>
<path opacity="0.3" d="M77.5711 150.282C78.1757 150.98 78.7996 151.701 78.9732 151.963C78.9882 154.257 76.6772 189.376 75.7703 202.939C75.765 203.015 75.7755 203.092 75.8008 203.164C75.8263 203.235 75.8664 203.3 75.9183 203.356C75.9699 203.412 76.0325 203.455 76.1018 203.486C76.171 203.516 76.2458 203.531 76.3213 203.531L96.6876 203.518C96.7627 203.518 96.8368 203.503 96.9059 203.473C96.9747 203.442 97.0369 203.399 97.0883 203.343C97.1398 203.289 97.1798 203.224 97.2056 203.153C97.2315 203.082 97.2427 203.006 97.2386 202.931C96.4775 189.538 94.5545 155.114 94.5331 152.17L94.7174 152.001C96.171 150.673 97.6995 149.144 98.0061 147.861C98.2976 146.636 99.5068 137.305 99.5904 136.711C100.075 134.153 99.9827 133.872 99.9334 133.719C99.6375 132.818 97.6738 132.363 96.6169 132.218C96.621 132.061 96.5918 131.906 96.5311 131.762C96.3703 131.416 95.9844 131.149 95.2791 130.898C94.2072 130.511 92.1492 130.123 91.0301 130.181C91.0232 130.166 91.0155 130.152 91.0065 130.138C90.4212 129.105 86.9096 128.95 85.4926 129.036C85.4233 128.906 85.3281 128.791 85.213 128.699C85.0979 128.608 84.9654 128.541 84.8237 128.503C83.7389 128.127 79.9401 128.321 79.1554 128.906C78.8789 129.11 78.6495 129.464 78.6452 131.559C78.0709 131.551 77.5045 131.696 77.003 131.978C76.2248 132.432 74.7091 135.594 74.0939 136.931C73.4786 138.268 72.0594 141.489 72.188 142.454C72.4345 144.212 74.9835 147.286 77.5711 150.282Z" fill="white"/>
<path opacity="0.2" d="M92.7794 142.491C94.1986 141.765 96.3467 132.918 96.5783 131.859C96.5654 131.823 96.5547 131.788 96.5397 131.756C96.3789 131.41 95.993 131.142 95.2877 130.892C94.4769 130.623 93.644 130.426 92.7987 130.304L92.7365 130.328C92.7365 130.328 94.0378 130.989 94.0893 131.68C94.1322 132.263 92.3978 140.886 91.9819 141.4C90.8178 142.86 89.7459 141.284 89.1949 141.221C89.1928 141.223 90.6377 143.591 92.7794 142.491Z" fill="black"/>
<path opacity="0.2" d="M84.4956 141.042C85.0376 141.52 85.7345 141.782 86.4551 141.778C87.5398 141.778 88.5732 141.392 88.8133 140.325C89.4821 137.337 90.8842 130.76 91 130.121C90.4597 129.393 88.9633 129.164 87.7028 129.064C87.7028 129.064 88.6418 129.907 88.8026 130.546C88.9633 131.186 87.8914 140.497 87.349 140.888C86.1206 141.77 84.9394 141.063 84.4956 141.042Z" fill="black"/>
<path opacity="0.2" d="M83.2909 137.428C83.2909 137.428 83.1666 140.037 82.9222 140.279C81.786 141.406 81.2436 140.676 80.3496 140.132C80.3496 140.132 81.2543 141.406 82.5492 141.331C83.2716 141.29 83.9148 140.882 84.022 140.158L84.5065 136.855L83.2909 137.428Z" fill="black"/>
<path opacity="0.2" d="M84.3499 132.393C84.3499 132.393 85.9406 136.672 78.7137 137.402C78.7137 137.402 84.1891 138.376 85.574 135.48C86.9589 132.583 85.4604 132.384 85.4604 132.384L84.3499 132.393Z" fill="black"/>
<path opacity="0.2" d="M83.5911 129.755C83.7497 130.187 83.4903 132.391 83.5267 132.347C83.5632 132.304 85.0574 132.738 85.0274 132.68C84.9974 132.622 85.3083 129.606 85.3833 128.839C85.2341 128.677 85.0448 128.556 84.8345 128.492C84.1913 128.276 82.5577 128.248 81.19 128.392L81.0635 128.481C81.0635 128.481 83.0487 128.299 83.5911 129.755Z" fill="black"/>
<path opacity="0.2" d="M98.1626 132.544C98.2923 132.656 98.3974 132.795 98.4711 132.95C98.5448 133.105 98.5858 133.275 98.5914 133.447C98.6321 134.62 95.8516 141.478 95.5707 141.718C95.2899 141.957 94.6896 143.1 93.354 142.679L94.4131 142.998C94.708 143.086 95.0189 143.105 95.322 143.052C95.6665 142.991 95.989 142.838 96.2563 142.611C96.5234 142.383 96.7265 142.088 96.8442 141.756L99.8176 133.464C99.5132 133.056 98.8551 132.753 98.1626 132.544Z" fill="black"/>
<path d="M85.4539 132.408C85.4539 132.408 85.0423 133.672 84.3048 133.883C83.3637 134.151 81.6079 133.922 81.1405 133.54C80.4867 133.004 80.3387 131.939 80.3387 131.939L85.4539 132.408Z" fill="white"/>
<path opacity="0.2" d="M88.5979 152.051L88.526 152.032L88.5979 152.051Z" fill="black"/>
<path opacity="0.2" d="M99.9486 133.732C99.5456 134.849 97.0395 141.787 96.7222 142.47C95.9268 144.185 93.9352 142.871 92.9812 142.802C92.9812 142.802 94.752 144.325 94.8442 145.032C95.0243 146.425 94.1131 148.866 93.5579 149.65C93.0134 150.399 91.9822 152.337 89.5554 152.196C89.4225 152.157 89.2895 152.116 89.1609 152.069C89.1609 152.069 89.1866 152.106 89.2338 152.166C89.0267 152.14 88.8211 152.102 88.6185 152.052C88.7857 152.097 89.013 152.155 89.2745 152.218C89.803 152.918 90.4215 153.544 91.1139 154.08C91.3851 154.272 91.6068 154.527 91.7605 154.823C91.9142 155.119 91.9953 155.448 91.9972 155.782C92.0979 163.48 91.011 202.7 90.9875 203.518H93.4014L96.8315 203.495C96.9544 203.462 97.0622 203.389 97.137 203.285C97.2116 203.182 97.2485 203.056 97.241 202.929C96.4799 189.537 94.5569 155.112 94.5355 152.168L94.7198 152C96.1734 150.671 97.7019 149.142 98.0085 147.859C98.3 146.634 99.5092 137.303 99.5928 136.709C100.067 134.24 99.9979 133.89 99.9486 133.732Z" fill="black"/>
<path opacity="0.2" d="M88.5357 152.032C88.4561 152.01 88.3721 151.989 88.2882 151.963L88.5357 152.032Z" fill="black"/>
<path opacity="0.2" d="M86.6931 141.834C86.6931 141.834 85.3703 144.55 85.9963 148.39C85.9963 148.414 86.0058 148.437 86.0227 148.454C86.0396 148.471 86.0626 148.481 86.0864 148.481C86.1102 148.481 86.1331 148.471 86.1501 148.454C86.167 148.437 86.1764 148.414 86.1764 148.39C86.3179 146.878 86.7553 143.245 87.7479 141.958L86.6931 141.834Z" fill="black"/>
<path opacity="0.2" d="M79.8952 137.56L80.5212 141.588L79.9788 142.135L78.894 137.43L79.8952 137.56Z" fill="black"/>
<path opacity="0.2" d="M78.894 151.963C78.894 151.963 81.8397 152.9 85.0039 152.179C85.0288 152.173 85.0548 152.177 85.0773 152.189C85.0996 152.201 85.1169 152.221 85.1257 152.245C85.1347 152.269 85.1347 152.296 85.1257 152.32C85.1167 152.343 85.0993 152.363 85.0768 152.375C83.9063 152.995 81.4002 154.037 78.894 153.218V151.963Z" fill="black"/>
<path d="M116.752 158.17L112.181 187.19C112.181 188.301 111.9 189.471 111.469 190.061L106.249 199.213L107.456 200.887L112.173 198.511L116.379 190.858C116.357 189.562 116.507 188.771 116.724 187.011L124.682 156.771L116.752 158.17Z" fill="#FC9D9D"/>
<path opacity="0.15" d="M117.112 149.811L112.271 182.211H112.342L112.181 187.231C112.16 188.037 112.007 189.318 111.469 190.102L106.255 199.256L106.991 200.496L112.205 191.236C112.774 190.249 113.189 189.177 113.435 188.063L113.997 183.866L114.211 182.067L119.963 149.813L117.112 149.811Z" fill="black"/>
<path d="M103.79 200.755L106.273 199.243C107.155 199.39 108.059 199.3 108.896 198.984C109.733 198.667 110.472 198.135 111.041 197.44L116.413 190.873C117.385 192.969 117.73 195.304 117.406 197.593L116.63 203.026H116.004L115.83 197.44C115.832 197.347 115.804 197.258 115.752 197.183C115.699 197.107 115.624 197.051 115.537 197.023C115.451 196.993 115.357 196.993 115.27 197.021C115.183 197.049 115.108 197.103 115.054 197.178L111.776 201.222C111.317 201.79 110.738 202.25 110.082 202.565C109.425 202.881 108.707 203.045 107.979 203.047H102.864C102.772 203.047 102.68 203.026 102.599 202.982C102.517 202.937 102.447 202.874 102.396 202.797C102.345 202.719 102.314 202.63 102.305 202.537C102.297 202.445 102.311 202.352 102.347 202.265C102.617 201.594 103.134 201.051 103.79 200.755Z" fill="#15247C"/>
<path d="M142.134 189.007C141.881 189.798 141.778 190.632 141.828 191.461L141.804 198.373C141.855 199.578 142.187 200.754 142.773 201.805L142.915 202.041C143.086 202.345 143.334 202.598 143.633 202.773C143.932 202.948 144.273 203.041 144.619 203.041H146.581C147.021 203.037 147.448 202.885 147.794 202.613C148.141 202.339 148.388 201.959 148.497 201.529C148.753 200.507 148.784 199.442 148.59 198.408L146.937 191.025C146.82 190.336 146.62 189.664 146.343 189.022L142.134 189.007Z" fill="#15247C"/>
<path d="M141.873 185.886C142.163 188.368 142.29 190.867 142.252 193.366L142.205 196.342C142.226 196.973 142.489 197.572 142.938 198.012C143.388 198.451 143.989 198.699 144.615 198.701H145.018C145.363 198.701 145.704 198.628 146.018 198.483C146.332 198.341 146.611 198.129 146.837 197.867C147.064 197.606 147.232 197.297 147.33 196.965C147.428 196.632 147.454 196.28 147.406 195.936L146.72 192.411C146.371 190.616 146.243 188.785 146.341 186.957L146.602 147.586L138.282 148.416L141.873 185.886Z" fill="#FC9D9D"/>
<path opacity="0.15" d="M138.612 148.388L141.318 180.609H141.391C141.541 182.19 142.098 188.074 142.158 188.96V188.984C142.252 190.437 142.278 191.889 142.252 193.342L142.205 196.319C142.225 196.928 142.472 197.507 142.897 197.939C143.322 198.373 143.893 198.628 144.497 198.654C143.361 197.773 143.457 196.345 143.425 195.271L143.243 182.192L143.084 180.207L141.44 148.099L138.612 148.388Z" fill="black"/>
<path d="M120.047 121.632L109.229 188.934L119.163 189.539L134.498 121.632H120.047Z" fill="#00BC7D"/>
<path d="M120.883 107.103L120.962 108.706L120.523 108.922L120.276 109.028L119.442 109.399C119.386 109.425 119.325 109.438 119.263 109.438C119.201 109.438 119.14 109.425 119.084 109.4C119.027 109.375 118.977 109.338 118.936 109.292C118.894 109.245 118.863 109.191 118.844 109.132L118.833 109.028C118.824 108.952 118.833 108.875 118.861 108.803C118.889 108.732 118.934 108.669 118.992 108.62L120.435 107.466L120.624 107.315L120.883 107.103Z" fill="#FC9D9D"/>
<path d="M121.153 109.464L119.766 110.43C119.715 110.468 119.657 110.494 119.594 110.507C119.532 110.52 119.468 110.518 119.407 110.503C119.345 110.488 119.288 110.459 119.239 110.418C119.19 110.378 119.15 110.327 119.123 110.27C119.078 110.188 119.058 110.094 119.066 110.001C119.073 109.908 119.108 109.819 119.166 109.745L120.808 107.866L121.153 109.464Z" fill="#FC9D9D"/>
<path opacity="0.15" d="M120.945 108.553L120.883 107.103L120.576 107.347L120.385 107.499L118.945 108.654C118.886 108.703 118.841 108.766 118.813 108.838C118.785 108.909 118.776 108.986 118.786 109.062L118.797 109.164C118.817 109.222 118.848 109.276 118.89 109.322C118.931 109.368 118.982 109.405 119.038 109.43C119.094 109.455 119.154 109.469 119.216 109.469C119.277 109.47 119.338 109.458 119.395 109.434L119.47 109.399L119.153 109.773C119.094 109.846 119.059 109.935 119.051 110.029C119.044 110.123 119.064 110.216 119.11 110.298C119.137 110.356 119.177 110.406 119.226 110.447C119.275 110.487 119.333 110.516 119.394 110.531C119.455 110.546 119.519 110.548 119.582 110.535C119.644 110.522 119.702 110.496 119.753 110.458L121.138 109.492L120.945 108.553Z" fill="black"/>
<path d="M122.336 103.116L115.32 96.8367L112.181 98.6792L116.72 102.271C117.1 102.578 117.367 103.005 117.476 103.483L117.579 103.939C117.825 104.925 118.43 105.782 119.273 106.341L120.308 107.051C120.443 107.141 120.549 107.269 120.612 107.419C120.674 107.569 120.692 107.734 120.662 107.894L120.287 110.486C120.28 110.576 120.3 110.666 120.346 110.744C120.393 110.821 120.462 110.882 120.544 110.918C120.641 110.954 120.749 110.952 120.844 110.912C120.94 110.872 121.017 110.797 121.061 110.702L122.776 105.41C122.895 105.021 122.918 104.608 122.841 104.207C122.765 103.807 122.591 103.432 122.336 103.116Z" fill="#FC9D9D"/>
<path opacity="0.15" d="M120.576 107.347L120.385 107.499C120.429 107.649 120.447 107.805 120.439 107.961L120.422 108.041L119.11 109.415C119.238 109.448 119.374 109.432 119.491 109.371L119.562 109.311L120.345 108.492L120.253 109.047L120.055 110.24L120.34 110.024L120.499 108.944L120.651 108.017C120.691 107.791 120.665 107.558 120.576 107.347Z" fill="black"/>
<path d="M148.427 106.63L148.641 106.756L150.223 107.704C150.289 107.744 150.342 107.801 150.38 107.868C150.417 107.935 150.437 108.011 150.438 108.088V108.192C150.428 108.254 150.406 108.313 150.371 108.366C150.337 108.418 150.292 108.462 150.238 108.495C150.185 108.528 150.126 108.549 150.064 108.556C150.002 108.564 149.939 108.557 149.88 108.538L149.006 108.272L148.746 108.198L148.283 108.054L148.15 106.455L148.427 106.63Z" fill="#FC9D9D"/>
<path d="M148.309 107.201L150.187 108.842C150.253 108.908 150.299 108.991 150.319 109.082C150.339 109.174 150.332 109.269 150.298 109.356C150.278 109.416 150.246 109.471 150.203 109.517C150.16 109.563 150.108 109.599 150.049 109.622C149.991 109.645 149.928 109.656 149.866 109.652C149.803 109.648 149.742 109.63 149.687 109.6L148.187 108.829L148.309 107.201Z" fill="#FC9D9D"/>
<path opacity="0.15" d="M148.212 108.855L149.713 109.626C149.768 109.656 149.829 109.673 149.892 109.676C149.954 109.68 150.016 109.67 150.074 109.646C150.132 109.622 150.184 109.587 150.227 109.541C150.27 109.495 150.302 109.44 150.322 109.38C150.355 109.293 150.363 109.198 150.343 109.106C150.323 109.015 150.277 108.931 150.21 108.866L149.846 108.536L149.925 108.561C149.984 108.577 150.046 108.581 150.107 108.572C150.167 108.563 150.226 108.541 150.278 108.509C150.33 108.476 150.375 108.433 150.409 108.382C150.444 108.332 150.468 108.274 150.48 108.214V108.104C150.48 108.027 150.46 107.951 150.423 107.884C150.385 107.818 150.331 107.761 150.266 107.721L148.686 106.771L148.472 106.645L148.135 106.447L148.264 107.89L148.212 108.855Z" fill="black"/>
<path d="M146.036 105.025L148.442 110.047C148.497 110.136 148.583 110.2 148.684 110.227C148.784 110.254 148.89 110.241 148.982 110.192C149.06 110.145 149.12 110.074 149.155 109.99C149.19 109.906 149.198 109.812 149.177 109.723L148.463 107.207C148.412 107.053 148.407 106.887 148.45 106.73C148.492 106.573 148.58 106.433 148.701 106.326L149.634 105.481C150.394 104.809 150.876 103.874 150.984 102.861L151.025 102.394C151.073 101.908 151.28 101.452 151.615 101.098L157.864 98.4913L154.648 96.4587L146.171 102.703C145.962 103.05 145.84 103.443 145.817 103.848C145.793 104.252 145.868 104.657 146.036 105.025Z" fill="#FC9D9D"/>
<path opacity="0.15" d="M148.491 107.326L148.765 108.224L149.068 109.276L149.379 109.451L149.023 108.296L148.858 107.758L149.743 108.462L149.82 108.514C149.944 108.561 150.08 108.561 150.204 108.514L148.72 107.33L148.695 107.252C148.668 107.099 148.668 106.941 148.695 106.788L148.48 106.663C148.419 106.88 148.423 107.111 148.491 107.326Z" fill="black"/>
<path d="M134.678 118.698L139.667 189.539H149.016V114.53L134.678 118.698Z" fill="#00BC7D"/>
<path opacity="0.1" d="M144.692 189.539L141.654 122.021L134.79 121.954L139.667 189.539H144.692Z" fill="black"/>
<path opacity="0.1" d="M119.987 122.271L109.229 188.934L111.855 189.093L113.24 188.819L127.179 122.56L119.987 122.271Z" fill="black"/>
<g opacity="0.2">
<path opacity="0.2" d="M135.088 125.181L134.863 122.74L149.016 122.019L149.01 125.483L135.088 125.181Z" fill="black"/>
</g>
<g opacity="0.2">
<path opacity="0.2" d="M119.494 125.261L119.811 122.733L134.505 121.839L133.613 125.44L119.494 125.261Z" fill="black"/>
</g>
<path d="M120.975 72.0527L131.1 69.6033L139.607 69.9597L147.025 72.3335L142.806 93.653L126.658 95.0937L120.975 72.0527Z" fill="#15247C"/>
<path d="M129.561 69.9597L134.616 87.3004C134.616 87.3004 138.492 82.3323 138.987 77.4572C139.483 72.582 141.123 70.1649 141.123 70.1649L149.544 72.3249L163.755 90.9292C164.184 91.4904 164.377 92.1991 164.292 92.9022C164.207 93.6055 163.851 94.2468 163.301 94.6877L151.555 104.511L147.811 100.645L155.81 92.0049L147.34 84.0582L144.081 101.451C144.081 101.451 150.598 109.957 149.537 121.945C149.537 121.945 139.313 122.757 134.687 122.733L118.913 123.569C119.483 112.741 124.236 101.075 124.236 101.075L121.11 84.1943L112.584 92.1864L120.583 100.826L116.664 105.056L105.106 94.8734C104.556 94.4315 104.2 93.7893 104.116 93.0854C104.031 92.3814 104.224 91.6723 104.654 91.1107L118.934 72.4632L129.561 69.9597Z" fill="#00BC7D"/>
<path d="M138.136 67.4431C138.481 67.629 138.882 67.6807 139.262 67.5878C141.037 67.2962 142.379 67.0564 142.523 65.2442C142.716 62.3929 142.115 56.0878 139.862 52.4871C138.327 53.2841 138.087 53.647 138.087 53.647C138.087 53.647 135.81 52.9471 135.761 52.9234C135.763 52.8996 135.019 65.3889 138.136 67.4431Z" fill="#3562FF"/>
<path opacity="0.2" d="M138.136 67.4431C138.481 67.629 138.882 67.6807 139.262 67.5878C141.037 67.2962 142.379 67.0564 142.523 65.2442C142.716 62.3929 142.115 56.0878 139.862 52.4871C138.327 53.2841 138.087 53.647 138.087 53.647C138.087 53.647 135.81 52.9471 135.761 52.9234C135.763 52.8996 135.019 65.3889 138.136 67.4431Z" fill="black"/>
<path d="M132.547 65.6071L131.276 50.4113C130.509 50.2904 129.287 51.3034 128.918 51.7073C126.041 55.0187 125.344 61.8594 125.752 66.4214C125.897 68.184 127.023 68.4259 128.753 68.765C130.483 69.1042 132.494 69.2727 133.238 68.4022C133.604 67.9486 132.547 65.6071 132.547 65.6071Z" fill="#3562FF"/>
<path opacity="0.2" d="M132.547 65.6071L131.276 50.4113C130.509 50.2904 129.287 51.3034 128.918 51.7073C126.041 55.0187 125.344 61.8594 125.752 66.4214C125.897 68.184 127.023 68.4259 128.753 68.765C130.483 69.1042 132.494 69.2727 133.238 68.4022C133.604 67.9486 132.547 65.6071 132.547 65.6071Z" fill="black"/>
<path d="M130.879 61.7561L130.56 69.8951C130.545 70.2752 130.845 70.5215 131.047 70.8433C132.208 72.6966 135.917 74.4851 138.483 70.9168C138.711 70.6014 138.912 70.2688 138.85 69.8864L137.757 64.0069L130.879 61.7561Z" fill="#FC9D9D"/>
<path opacity="0.15" d="M138.098 66.1169L137.853 64.6394L135.427 65.3889L135.45 65.4127C134.785 65.3844 134.13 65.2312 133.521 64.9612C133.479 64.9427 133.432 64.9416 133.389 64.958C133.346 64.9746 133.312 65.0077 133.293 65.0498C133.275 65.0919 133.274 65.1397 133.29 65.1827C133.307 65.2256 133.34 65.2602 133.381 65.2788C134.073 65.5889 134.82 65.7548 135.577 65.7669C135.673 65.7669 135.77 65.7669 135.868 65.7669C136.835 66.348 138.098 66.1169 138.098 66.1169Z" fill="black"/>
<path d="M136.331 65.3135L135.99 65.3567C133.461 65.6721 131.06 63.6957 130.742 61.1468L129.919 54.6992C129.87 54.2931 129.981 53.8838 130.23 53.5604C130.479 53.2368 130.844 53.0251 131.246 52.9711L137.229 52.2043C137.49 52.1706 137.754 52.1892 138.008 52.2585C138.261 52.3281 138.498 52.4471 138.706 52.6089C138.914 52.7709 139.088 52.9724 139.218 53.202C139.348 53.4317 139.432 53.685 139.465 53.9475L140.229 59.9545C140.544 62.4774 138.979 65.0586 136.331 65.3135Z" fill="#FC9D9D"/>
<path opacity="0.3" d="M128.073 70.3442L126.643 76.2865L129.259 76.6385L127.179 78.2672L134.685 87.2702L128.073 70.3442Z" fill="black"/>
<path d="M135.266 62.1533L135.429 62.4125C135.535 62.5652 135.676 62.6896 135.84 62.7745C136.005 62.8594 136.188 62.9026 136.372 62.9C136.557 62.8974 136.739 62.8492 136.901 62.7598C137.063 62.6704 137.201 62.5421 137.302 62.3866L137.491 62.082C137.532 62.0172 137.491 61.9351 137.425 61.9437L135.343 62.0237C135.274 62.0064 135.229 62.0949 135.266 62.1533Z" fill="white"/>
<path opacity="0.3" d="M141.296 70.165L143.62 76.1073L140.848 76.509L143.082 78.2673L134.685 87.2703L139.153 80.788L141.296 70.165Z" fill="black"/>
<path d="M129.518 69.9424L134.685 87.2701L127.625 77.9971L129.681 76.2864L127.179 75.9257L128.073 70.3442L129.518 69.9424Z" fill="#00BC7D"/>
<path d="M139.689 69.9854L139.097 75.6338C139.035 76.2343 138.996 76.8369 138.947 77.4396C138.848 78.6557 138.477 79.8156 138.089 80.9669C137.967 81.3168 137.841 81.8093 137.731 82.0469C136.857 83.8663 135.84 85.6129 134.691 87.2699L142.643 77.9969L140.589 76.2861L143.084 75.9189L141.296 70.1582L139.689 69.9854Z" fill="#00BC7D"/>
<path d="M134.307 59.572C134.407 59.5806 134.506 59.5592 134.593 59.5108C134.681 59.4624 134.752 59.389 134.798 59.2998C134.844 59.2106 134.862 59.1099 134.851 59.0101C134.84 58.9101 134.8 58.8159 134.736 58.7393C134.672 58.6624 134.586 58.6064 134.49 58.5786C134.395 58.5507 134.293 58.552 134.198 58.5825C134.103 58.6129 134.019 58.671 133.957 58.7494C133.895 58.828 133.857 58.9233 133.849 59.0233C133.837 59.1574 133.879 59.2905 133.965 59.3933C134.051 59.4961 134.174 59.5605 134.307 59.572Z" fill="black"/>
<path d="M134.567 59.1899C134.586 59.1917 134.606 59.1876 134.622 59.1783C134.639 59.1688 134.653 59.1547 134.662 59.1375C134.671 59.1204 134.674 59.101 134.672 59.0819C134.67 59.0627 134.662 59.0446 134.649 59.0299C134.637 59.0152 134.62 59.0046 134.602 58.9994C134.583 58.9943 134.564 58.9947 134.545 59.0007C134.527 59.0068 134.511 59.0182 134.499 59.0334C134.487 59.0487 134.48 59.067 134.479 59.0863C134.477 59.1118 134.486 59.1368 134.502 59.1563C134.518 59.1757 134.542 59.1878 134.567 59.1899Z" fill="white"/>
<path d="M138.158 59.2978C138.257 59.3064 138.357 59.285 138.444 59.2367C138.531 59.1883 138.602 59.1148 138.648 59.0256C138.694 58.9364 138.713 58.8358 138.702 58.7358C138.691 58.636 138.651 58.5418 138.586 58.4651C138.522 58.3882 138.437 58.3323 138.341 58.3044C138.245 58.2765 138.143 58.2778 138.048 58.3083C137.953 58.3387 137.87 58.3968 137.807 58.4753C137.745 58.5539 137.708 58.6491 137.699 58.7491C137.693 58.8157 137.7 58.8824 137.72 58.9461C137.74 59.0096 137.772 59.0686 137.815 59.1196C137.858 59.1708 137.91 59.2127 137.969 59.2431C138.028 59.2738 138.092 59.2924 138.158 59.2978Z" fill="black"/>
<path d="M138.443 58.8936C138.462 58.8953 138.481 58.8912 138.498 58.8819C138.515 58.8724 138.529 58.8584 138.538 58.8413C138.546 58.824 138.55 58.8046 138.548 58.7856C138.545 58.7663 138.538 58.7482 138.525 58.7335C138.513 58.719 138.496 58.7082 138.478 58.7031C138.459 58.6979 138.44 58.6983 138.421 58.7043C138.403 58.7104 138.387 58.7218 138.375 58.737C138.363 58.7523 138.356 58.7707 138.355 58.7899C138.353 58.8154 138.361 58.8404 138.378 58.8599C138.394 58.8793 138.418 58.8914 138.443 58.8936Z" fill="white"/>
<path opacity="0.15" d="M136.666 61.1833H135.997C135.922 61.1833 135.84 61.1185 135.858 61.0472C135.875 60.9759 135.922 60.8895 135.993 60.9068H136.661C136.703 60.9103 136.744 60.9053 136.783 60.8919C136.822 60.8783 136.858 60.8569 136.888 60.8288C136.919 60.8008 136.943 60.7664 136.959 60.7284C136.976 60.6904 136.985 60.6493 136.985 60.6077C136.985 60.5662 136.976 60.5249 136.959 60.4869C136.943 60.4489 136.919 60.4148 136.888 60.3865C136.858 60.3584 136.822 60.337 136.783 60.3236C136.744 60.31 136.703 60.305 136.661 60.3085C136.586 60.3085 136.505 60.2437 136.522 60.1746C136.539 60.1055 136.586 60.0169 136.657 60.0342C136.814 60.0376 136.963 60.102 137.073 60.2141C137.183 60.3262 137.245 60.477 137.247 60.6347C137.241 60.7848 137.177 60.9267 137.068 61.0293C136.959 61.1321 136.815 61.1874 136.666 61.1833Z" fill="black"/>
<path d="M140.773 55.0013H141.037C139.022 48.2599 131.806 48.3053 128.905 51.7397C127.153 53.8176 126.41 57.1981 126.41 57.1981C126.986 58.4552 128.568 59.4467 129.072 60.315C129.287 60.7016 129.743 58.8894 130.054 58.6475C130.103 58.6237 130.483 59.0103 130.751 59.276C130.785 59.3169 130.83 59.3464 130.881 59.3618C130.932 59.3769 130.986 59.3767 131.037 59.3613C131.088 59.346 131.133 59.316 131.167 59.2752C131.201 59.2343 131.223 59.1842 131.229 59.1313C131.342 58.2867 131.31 57.429 131.135 56.5954L130.965 55.8459C132.573 55.3145 137.416 53.4051 138.494 53.0379C138.758 52.9407 138.998 53.3511 139.071 53.6168L139.991 57.5934L140.533 55.55L140.773 55.0013Z" fill="#3562FF"/>
<path opacity="0.2" d="M140.773 55.0013H141.037C139.022 48.2599 131.806 48.3053 128.905 51.7397C127.153 53.8176 126.41 57.1981 126.41 57.1981C126.986 58.4552 128.568 59.4467 129.072 60.315C129.287 60.7016 129.743 58.8894 130.054 58.6475C130.103 58.6237 130.483 59.0103 130.751 59.276C130.785 59.3169 130.83 59.3464 130.881 59.3618C130.932 59.3769 130.986 59.3767 131.037 59.3613C131.088 59.346 131.133 59.316 131.167 59.2752C131.201 59.2343 131.223 59.1842 131.229 59.1313C131.342 58.2867 131.31 57.429 131.135 56.5954L130.965 55.8459C132.573 55.3145 137.416 53.4051 138.494 53.0379C138.758 52.9407 138.998 53.3511 139.071 53.6168L139.991 57.5934L140.533 55.55L140.773 55.0013Z" fill="black"/>
<path d="M138.522 56.7985C138.227 56.832 137.942 56.9324 137.691 57.0927C137.44 57.2527 137.228 57.4683 137.071 57.723C136.664 57.5932 136.224 57.6124 135.83 57.777C135.626 57.4681 135.343 57.2206 135.011 57.0601C134.679 56.8996 134.31 56.8324 133.943 56.8655C133.55 56.9091 133.178 57.0696 132.874 57.3264C132.572 57.5832 132.351 57.9247 132.241 58.3081C132.131 58.6913 132.136 59.0989 132.256 59.4791C132.376 59.8592 132.605 60.1951 132.915 60.444C133.224 60.6928 133.6 60.8436 133.995 60.8768C134.389 60.9103 134.785 60.825 135.131 60.6317C135.478 60.4384 135.759 60.1457 135.94 59.791C136.122 59.4361 136.194 59.0352 136.149 58.6388C136.129 58.4181 136.067 58.2032 135.967 58.0059C136.287 57.8833 136.636 57.8621 136.968 57.9455C136.817 58.2839 136.76 58.657 136.801 59.0255C136.825 59.2918 136.901 59.5506 137.026 59.7869C137.15 60.023 137.32 60.2321 137.525 60.4014C137.731 60.571 137.968 60.6973 138.222 60.7738C138.476 60.85 138.743 60.8747 139.007 60.8459C139.271 60.8172 139.527 60.736 139.759 60.6068C139.991 60.4777 140.196 60.3031 140.361 60.0934C140.526 59.8839 140.647 59.6432 140.719 59.3858C140.79 59.1281 140.81 58.8589 140.778 58.5935C140.707 58.0574 140.433 57.5701 140.011 57.235C139.59 56.8998 139.056 56.7432 138.522 56.7985ZM134.34 60.6217C133.998 60.6595 133.652 60.5945 133.347 60.4349C133.042 60.2753 132.791 60.0279 132.625 59.7245C132.459 59.421 132.386 59.0747 132.415 58.7293C132.444 58.3842 132.574 58.0554 132.789 57.7845C133.003 57.5137 133.293 57.3128 133.62 57.2074C133.948 57.102 134.299 57.0968 134.63 57.1923C134.96 57.288 135.255 57.48 135.478 57.7444C135.7 58.0088 135.84 58.3334 135.879 58.6777C135.93 59.141 135.797 59.6059 135.508 59.9705C135.22 60.3349 134.799 60.569 134.34 60.6217ZM138.949 60.5353C138.606 60.5742 138.26 60.5096 137.954 60.3504C137.648 60.191 137.396 59.9437 137.229 59.6398C137.062 59.3359 136.989 58.9892 137.018 58.6432C137.046 58.2971 137.176 57.9675 137.391 57.696C137.606 57.4245 137.896 57.2232 138.224 57.1175C138.552 57.0117 138.904 57.0065 139.235 57.1024C139.567 57.1981 139.862 57.3908 140.085 57.6558C140.307 57.9208 140.447 58.2464 140.486 58.5913C140.514 58.8209 140.496 59.054 140.434 59.2767C140.371 59.4994 140.266 59.7074 140.123 59.8884C139.979 60.0694 139.802 60.22 139.6 60.331C139.399 60.442 139.178 60.5116 138.949 60.5353Z" fill="white"/>
<path opacity="0.15" d="M130.895 61.8381L131.638 61.6675L131.062 63.5294L130.895 61.8381Z" fill="black"/>
<path d="M139.048 53.5999C134.994 52.6323 135.667 58.7451 131.469 57.92C127.537 57.1467 131.085 52.3622 131.085 52.3622L134.563 51.7358L139.238 52.3147L139.048 53.5999Z" fill="#3562FF"/>
<path opacity="0.2" d="M139.048 53.5999C134.994 52.6323 135.667 58.7451 131.469 57.92C127.537 57.1467 131.085 52.3622 131.085 52.3622L134.563 51.7358L139.238 52.3147L139.048 53.5999Z" fill="black"/>
<path d="M130.895 61.8379C130.895 61.8379 131.613 65.8728 133.724 68.6009C133.724 68.6009 130.895 69.2792 128.712 68.7716C126.699 68.3115 130.895 61.8379 130.895 61.8379Z" fill="#3562FF"/>
<path opacity="0.2" d="M130.895 61.8379C130.895 61.8379 131.613 65.8728 133.724 68.6009C133.724 68.6009 130.895 69.2792 128.712 68.7716C126.699 68.3115 130.895 61.8379 130.895 61.8379Z" fill="black"/>
<path opacity="0.3" d="M134.685 88.1709L134.505 120.941" stroke="#0F90D1" stroke-width="0.83" stroke-miterlimit="10" stroke-linecap="round"/>
<path opacity="0.2" d="M126.463 101.314L121.817 82.9541L120.923 84.2155L120.902 84.3927L121.116 84.2004L124.242 101.081C124.242 101.081 119.489 112.745 118.919 123.576L121.884 123.418C122.838 112.585 126.463 101.314 126.463 101.314Z" fill="black"/>
<path opacity="0.2" d="M119.583 72.9556C119.583 72.9556 121.727 77.0963 121.907 83.0386" stroke="#0F90D1" stroke-width="0.83" stroke-miterlimit="10" stroke-linecap="round"/>
<path opacity="0.2" d="M149.428 72.9556C149.428 72.9556 147.284 77.0963 147.104 83.0386" stroke="#0F90D1" stroke-width="0.83" stroke-miterlimit="10" stroke-linecap="round"/>
<path opacity="0.2" d="M147.213 81.3042L156.665 91.2317L155.771 91.951L147.194 84.028L147.213 81.3042Z" fill="black"/>
<path opacity="0.2" d="M157.825 92.0417C157.111 91.5017 155.949 91.951 155.949 91.951C155.949 91.951 156.933 90.9617 158.005 90.9617" stroke="#0F90D1" stroke-width="0.83" stroke-miterlimit="10" stroke-linecap="round"/>
<path opacity="0.2" d="M110.738 92.402C111.452 91.862 112.614 92.3113 112.614 92.3113C112.614 92.3113 111.632 91.3198 110.56 91.3198" stroke="#0F90D1" stroke-width="0.83" stroke-miterlimit="10" stroke-linecap="round"/>
<path opacity="0.2" d="M117.693 103.943L107.878 95.0118C104.808 92.4349 104.935 90.951 105.254 90.3159L104.645 91.1108C104.217 91.6735 104.025 92.3833 104.111 93.0872C104.197 93.7912 104.555 94.4329 105.106 94.8736L116.655 105.039L117.693 103.943Z" fill="black"/>
<path d="M136.383 98.3596C136.77 98.3596 137.084 97.9728 137.084 97.4956C137.084 97.0185 136.77 96.6316 136.383 96.6316C135.996 96.6316 135.682 97.0185 135.682 97.4956C135.682 97.9728 135.996 98.3596 136.383 98.3596Z" fill="black"/>
<path d="M136.383 107.436C136.77 107.436 137.084 107.049 137.084 106.572C137.084 106.095 136.77 105.708 136.383 105.708C135.996 105.708 135.682 106.095 135.682 106.572C135.682 107.049 135.996 107.436 136.383 107.436Z" fill="black"/>
<path d="M152.131 103.114C152.357 103.114 152.541 102.913 152.541 102.665C152.541 102.416 152.357 102.215 152.131 102.215C151.905 102.215 151.722 102.416 151.722 102.665C151.722 102.913 151.905 103.114 152.131 103.114Z" fill="black"/>
<path d="M153.559 102.034C153.785 102.034 153.969 101.833 153.969 101.585C153.969 101.337 153.785 101.135 153.559 101.135C153.333 101.135 153.15 101.337 153.15 101.585C153.15 101.833 153.333 102.034 153.559 102.034Z" fill="black"/>
<path d="M116.211 103.654C116.437 103.654 116.621 103.453 116.621 103.205C116.621 102.956 116.437 102.755 116.211 102.755C115.985 102.755 115.802 102.956 115.802 103.205C115.802 103.453 115.985 103.654 116.211 103.654Z" fill="black"/>
<path d="M114.782 102.574C115.008 102.574 115.191 102.373 115.191 102.125C115.191 101.876 115.008 101.675 114.782 101.675C114.555 101.675 114.372 101.876 114.372 102.125C114.372 102.373 114.555 102.574 114.782 102.574Z" fill="black"/>
<path d="M131.325 61.7405C131.325 61.7405 129.239 62.4662 128.257 60.4596C127.276 58.4529 129.758 57.3923 130.701 59.4206L131.589 61.667L131.325 61.7405Z" fill="#FC9D9D"/>
<path opacity="0.15" d="M128.616 59.1552C128.686 59.0588 128.776 58.9787 128.879 58.9206C128.983 58.8625 129.098 58.8275 129.216 58.8182C129.335 58.8165 129.453 58.8415 129.56 58.8916C129.668 58.9418 129.764 59.0154 129.84 59.1076C130.052 59.3241 130.208 59.5895 130.294 59.8809L130.367 60.0969C130.414 60.2676 130.153 60.3885 130.08 60.1941L130.007 59.9522C129.932 59.7202 129.81 59.5066 129.647 59.3258C129.596 59.2673 129.533 59.2197 129.463 59.1863C129.393 59.153 129.317 59.1342 129.239 59.1314C129.079 59.1597 128.934 59.2457 128.832 59.3733C128.785 59.4208 128.689 59.4468 128.641 59.3971C128.609 59.3666 128.588 59.3254 128.584 59.2809C128.579 59.2366 128.59 59.1919 128.616 59.1552Z" fill="black"/>
<path d="M130.584 61.5725C130.668 61.5725 130.751 61.5472 130.822 61.4997C130.892 61.4522 130.947 61.3848 130.98 61.3057C131.012 61.2269 131.021 61.1401 131.004 61.0562C130.987 60.9724 130.947 60.8955 130.887 60.8351C130.827 60.7746 130.75 60.7335 130.667 60.7169C130.584 60.7001 130.498 60.7087 130.419 60.7413C130.341 60.7741 130.274 60.8294 130.227 60.9005C130.18 60.9716 130.155 61.0549 130.155 61.1405C130.155 61.255 130.2 61.3649 130.28 61.4459C130.361 61.5269 130.47 61.5725 130.584 61.5725Z" fill="#00BC7D"/>
<path opacity="0.15" d="M130.798 61.4471C130.677 61.4786 130.549 61.4607 130.441 61.3972C130.333 61.3335 130.255 61.2296 130.223 61.108C130.2 61.0209 130.2 60.9293 130.223 60.8423C130.178 60.8941 130.145 60.9563 130.128 61.0237C130.111 61.0909 130.111 61.1613 130.127 61.2289C130.138 61.2862 130.161 61.3404 130.194 61.3879C130.228 61.4356 130.271 61.4756 130.321 61.5054C130.37 61.535 130.426 61.554 130.483 61.5607C130.541 61.5674 130.599 61.5618 130.654 61.5443C130.741 61.524 130.818 61.4717 130.869 61.3974C130.871 61.4471 130.847 61.4471 130.798 61.4471Z" fill="black"/>
<path d="M240.66 203.577H11.3442C11.2974 203.585 11.2498 203.581 11.2042 203.568C11.1587 203.557 11.1165 203.533 11.0805 203.503C11.0445 203.473 11.0155 203.434 10.9956 203.391C10.9759 203.348 10.9656 203.3 10.9656 203.253C10.9656 203.205 10.9759 203.158 10.9956 203.114C11.0155 203.071 11.0445 203.032 11.0805 203.002C11.1165 202.972 11.1587 202.948 11.2042 202.937C11.2498 202.924 11.2974 202.92 11.3442 202.929H240.66C240.708 202.92 240.755 202.924 240.8 202.937C240.845 202.948 240.888 202.972 240.924 203.002C240.961 203.032 240.988 203.071 241.01 203.114C241.029 203.158 241.04 203.205 241.04 203.253C241.04 203.3 241.029 203.348 241.01 203.391C240.988 203.434 240.961 203.473 240.924 203.503C240.888 203.533 240.845 203.557 240.8 203.568C240.755 203.581 240.708 203.585 240.66 203.577Z" fill="#00BC7D"/>
<g opacity="0.5">
<path opacity="0.5" d="M240.66 203.577H11.3442C11.2974 203.585 11.2498 203.581 11.2042 203.568C11.1587 203.557 11.1165 203.533 11.0805 203.503C11.0445 203.473 11.0155 203.434 10.9956 203.391C10.9759 203.348 10.9656 203.3 10.9656 203.253C10.9656 203.205 10.9759 203.158 10.9956 203.114C11.0155 203.071 11.0445 203.032 11.0805 203.002C11.1165 202.972 11.1587 202.948 11.2042 202.937C11.2498 202.924 11.2974 202.92 11.3442 202.929H240.66C240.708 202.92 240.755 202.924 240.8 202.937C240.845 202.948 240.888 202.972 240.924 203.002C240.961 203.032 240.988 203.071 241.01 203.114C241.029 203.158 241.04 203.205 241.04 203.253C241.04 203.3 241.029 203.348 241.01 203.391C240.988 203.434 240.961 203.473 240.924 203.503C240.888 203.533 240.845 203.557 240.8 203.568C240.755 203.581 240.708 203.585 240.66 203.577Z" fill="white"/>
</g>
</svg>
