<svg width="269" height="190" viewBox="0 0 269 190" fill="none" xmlns="http://www.w3.org/2000/svg">
<path d="M54.6047 3.35463L1.52139 96.26C0.527425 97.7027 -0.00328105 99.4143 1.52628e-05 101.166L22.6 189.013H248.344L268.68 108.73C268.683 107.098 268.224 105.498 267.356 104.115L215.135 3.65891C214.456 2.55211 213.507 1.63573 212.376 0.995992C211.248 0.356 209.973 0.0131853 208.674 0H60.8728C59.6344 0.00963538 58.4168 0.319992 57.3249 0.904454C56.2331 1.48866 55.2995 2.32948 54.6047 3.35463Z" fill="#00BC7D"/>
<path opacity="0.9" d="M54.6047 3.35463L1.52139 96.26C0.527425 97.7027 -0.00328105 99.4143 1.52628e-05 101.166L22.6 189.013H248.344L268.68 108.73C268.683 107.098 268.224 105.498 267.356 104.115L215.135 3.65891C214.456 2.55211 213.507 1.63573 212.376 0.995992C211.248 0.356 209.973 0.0131853 208.674 0H60.8728C59.6344 0.00963538 58.4168 0.319992 57.3249 0.904454C56.2331 1.48866 55.2995 2.32948 54.6047 3.35463Z" fill="white"/>
<path d="M260.383 189.388H10.9387C10.7814 189.388 10.6547 189.218 10.6547 189.008C10.6547 188.798 10.7814 188.628 10.9387 188.628H260.383C260.541 188.628 260.667 188.798 260.667 189.008C260.667 189.218 260.541 189.388 260.383 189.388Z" fill="#00BC7D"/>
<g opacity="0.6">
<path opacity="0.6" d="M260.383 189.388H10.9387C10.7814 189.388 10.6547 189.218 10.6547 189.008C10.6547 188.798 10.7814 188.628 10.9387 188.628H260.383C260.541 188.628 260.667 188.798 260.667 189.008C260.667 189.218 260.541 189.388 260.383 189.388Z" fill="white"/>
</g>
<path d="M31.1071 137.672H9.39709L19.3545 176.386H31.1071V137.672Z" fill="#3562FF"/>
<path opacity="0.2" d="M31.1071 137.672H9.39709L19.3545 176.386H31.1071V137.672Z" fill="white"/>
<path d="M74.2989 174.864V139.193C74.2989 138.79 74.1386 138.403 73.8531 138.117C73.5679 137.832 73.1809 137.672 72.7775 137.672H19.9351C19.5317 137.672 19.1445 137.832 18.8592 138.117C18.574 138.403 18.4137 138.79 18.4137 139.193V172.724L19.3215 176.256C19.5144 176.342 19.7236 176.387 19.9351 176.386H72.7775C73.1809 176.386 73.5679 176.226 73.8531 175.94C74.1386 175.655 74.2989 175.268 74.2989 174.864Z" fill="#3562FF"/>
<path opacity="0.5" d="M74.2989 174.864V139.193C74.2989 138.79 74.1386 138.403 73.8531 138.117C73.5679 137.832 73.1809 137.672 72.7775 137.672H19.9351C19.5317 137.672 19.1445 137.832 18.8592 138.117C18.574 138.403 18.4137 138.79 18.4137 139.193V172.724L19.3215 176.256C19.5144 176.342 19.7236 176.387 19.9351 176.386H72.7775C73.1809 176.386 73.5679 176.226 73.8531 175.94C74.1386 175.655 74.2989 175.268 74.2989 174.864Z" fill="white"/>
<path d="M70.427 139.665H22.3667C21.8961 139.665 21.4445 139.852 21.1116 140.185C20.7789 140.518 20.5918 140.969 20.5918 141.44V172.851C20.5918 173.322 20.7789 173.773 21.1116 174.106C21.4445 174.439 21.8961 174.626 22.3667 174.626H70.427C70.8978 174.626 71.3492 174.439 71.6821 174.106C72.015 173.773 72.2019 173.322 72.2019 172.851V141.432C72.1999 140.963 72.012 140.513 71.6793 140.182C71.3467 139.851 70.8963 139.665 70.427 139.665ZM71.6948 172.851C71.6948 173.187 71.5612 173.51 71.3236 173.747C71.0857 173.985 70.7632 174.119 70.427 174.119H22.3667C22.0305 174.119 21.708 173.985 21.4704 173.747C21.2325 173.51 21.0989 173.187 21.0989 172.851V163.877H38.5212L38.9472 164.95H53.8491L54.275 163.877H71.7125L71.6948 172.851ZM71.6948 163.386H21.0913V151.248H38.5313L38.9472 152.292H53.8491L54.2649 151.248H71.7125L71.6948 163.386ZM71.6948 150.756H21.0913V141.432C21.0913 141.096 21.2249 140.773 21.4628 140.536C21.7004 140.298 22.0229 140.164 22.3591 140.164H38.4958L38.9599 141.09H53.8617L54.3258 140.164H70.4397C70.7759 140.164 71.0984 140.298 71.3363 140.536C71.5738 140.773 71.7075 141.096 71.7075 141.432L71.6948 150.756Z" fill="#3562FF"/>
<path opacity="0.2" d="M70.427 139.665H22.3667C21.8961 139.665 21.4445 139.852 21.1116 140.185C20.7789 140.518 20.5918 140.969 20.5918 141.44V172.851C20.5918 173.322 20.7789 173.773 21.1116 174.106C21.4445 174.439 21.8961 174.626 22.3667 174.626H70.427C70.8978 174.626 71.3492 174.439 71.6821 174.106C72.015 173.773 72.2019 173.322 72.2019 172.851V141.432C72.1999 140.963 72.012 140.513 71.6793 140.182C71.3467 139.851 70.8963 139.665 70.427 139.665ZM71.6948 172.851C71.6948 173.187 71.5612 173.51 71.3236 173.747C71.0857 173.985 70.7632 174.119 70.427 174.119H22.3667C22.0305 174.119 21.708 173.985 21.4704 173.747C21.2325 173.51 21.0989 173.187 21.0989 172.851V163.877H38.5212L38.9472 164.95H53.8491L54.275 163.877H71.7125L71.6948 172.851ZM71.6948 163.386H21.0913V151.248H38.5313L38.9472 152.292H53.8491L54.2649 151.248H71.7125L71.6948 163.386ZM71.6948 150.756H21.0913V141.432C21.0913 141.096 21.2249 140.773 21.4628 140.536C21.7004 140.298 22.0229 140.164 22.3591 140.164H38.4958L38.9599 141.09H53.8617L54.3258 140.164H70.4397C70.7759 140.164 71.0984 140.298 71.3363 140.536C71.5738 140.773 71.7075 141.096 71.7075 141.432L71.6948 150.756Z" fill="white"/>
<path d="M70.7441 176.386L72.9044 188.638H71.8242L67.5466 176.386H70.7441Z" fill="#3562FF"/>
<path d="M60.5102 176.386L62.6731 188.638H61.5929L57.3127 176.386H60.5102Z" fill="#3562FF"/>
<path d="M21.6264 185.222L24.7123 176.386H21.5149L20.635 181.368L21.6264 185.222Z" fill="#3562FF"/>
<path opacity="0.5" d="M70.7441 176.386L72.9044 188.638H71.8242L67.5466 176.386H70.7441Z" fill="white"/>
<path opacity="0.5" d="M60.5102 176.386L62.6731 188.638H61.5929L57.3127 176.386H60.5102Z" fill="white"/>
<path opacity="0.5" d="M21.6264 185.222L24.7123 176.386H21.5149L20.635 181.368L21.6264 185.222Z" fill="white"/>
<path d="M70.9393 177.25L69.2911 177.496L72.2451 188.618L71.8242 188.638L67.5466 176.386H70.7441L70.9393 177.25Z" fill="#3562FF"/>
<path d="M61.1441 179.971L59.6886 180.539L61.9301 188.618L61.5929 188.638L57.3127 176.386H60.5102L61.1441 179.971Z" fill="#3562FF"/>
<path d="M24.7123 176.386H21.5149L20.635 181.368L21.0534 182.991L22.4252 177.382H24.195L24.7123 176.386Z" fill="#3562FF"/>
<path opacity="0.2" d="M70.9393 177.25L69.2911 177.496L72.2451 188.618L71.8242 188.638L67.5466 176.386H70.7441L70.9393 177.25Z" fill="white"/>
<path opacity="0.2" d="M61.1441 179.971L59.6886 180.539L61.9301 188.618L61.5929 188.638L57.3127 176.386H60.5102L61.1441 179.971Z" fill="white"/>
<path opacity="0.2" d="M24.7123 176.386H21.5149L20.635 181.368L21.0534 182.991L22.4252 177.382H24.195L24.7123 176.386Z" fill="white"/>
<path d="M45.6413 125.939H40.0908V136.825H45.6413V125.939Z" fill="#00BC7D"/>
<path opacity="0.4" d="M45.6413 125.939H40.0908V136.825H45.6413V125.939Z" fill="white"/>
<path d="M52.916 123.389H47.3655V136.825H52.916V123.389Z" fill="#00BC7D"/>
<path opacity="0.4" d="M52.916 123.389H47.3655V136.825H52.916V123.389Z" fill="white"/>
<path d="M49.3535 128.65H43.803V136.828H49.3535V128.65Z" fill="#00BC7D"/>
<path opacity="0.2" d="M49.3535 128.65H43.803V136.828H49.3535V128.65Z" fill="white"/>
<path d="M42.984 125.262H42.7456V125.939H42.984V125.262Z" fill="black"/>
<path d="M50.2586 122.712H50.0203V123.389H50.2586V122.712Z" fill="black"/>
<path d="M46.6961 127.97H46.4578V128.647H46.6961V127.97Z" fill="black"/>
<path d="M55.7914 136.825H37.8544V137.598H55.7914V136.825Z" fill="#15247C"/>
<path d="M198.278 34.2183H156.778V95.5474H198.278V34.2183Z" fill="#3562FF"/>
<path d="M196.899 34.2183H155.398V95.5474H196.899V34.2183Z" fill="#3562FF"/>
<path opacity="0.4" d="M196.899 34.2183H155.398V95.5474H196.899V34.2183Z" fill="white"/>
<path d="M195.132 36.0364H157.166V93.7295H195.132V36.0364Z" fill="white"/>
<path d="M187.885 41.4905H164.156V88.2753H187.885V41.4905Z" fill="#3562FF"/>
<g opacity="0.8">
<path opacity="0.8" d="M187.885 41.4905H164.156V88.2753H187.885V41.4905Z" fill="white"/>
</g>
<path d="M164.156 71.7202C164.101 67.3488 168.267 63.0839 172.851 62.4728C175.039 62.1812 177.362 62.592 179.406 61.8008C183.054 60.3885 184.223 55.8168 187.885 54.4602L188.052 88.2753H164.156V71.7202Z" fill="#3562FF"/>
<path opacity="0.4" d="M164.156 71.7202C164.101 67.3488 168.267 63.0839 172.851 62.4728C175.039 62.1812 177.362 62.592 179.406 61.8008C183.054 60.3885 184.223 55.8168 187.885 54.4602L188.052 88.2753H164.156V71.7202Z" fill="white"/>
<path d="M108.142 34.2183H66.6414V95.5474H108.142V34.2183Z" fill="#00BC7D"/>
<path d="M106.763 34.2183H65.262V95.5474H106.763V34.2183Z" fill="#00BC7D"/>
<path opacity="0.4" d="M106.763 34.2183H65.262V95.5474H106.763V34.2183Z" fill="white"/>
<path d="M104.995 36.0364H67.0293V93.7295H104.995V36.0364Z" fill="white"/>
<path d="M97.7484 41.4905H74.02V88.2753H97.7484V41.4905Z" fill="#00BC7D"/>
<g opacity="0.8">
<path opacity="0.8" d="M97.7484 41.4905H74.02V88.2753H97.7484V41.4905Z" fill="white"/>
</g>
<path d="M74.02 58.0456C73.9642 62.417 78.1302 66.6845 82.7146 67.293C84.9029 67.5846 87.2255 67.1738 89.2692 67.9649C92.918 69.3773 94.0869 73.949 97.7484 75.3056L97.9157 41.4905H74.02V58.0456Z" fill="#00BC7D"/>
<path opacity="0.4" d="M74.02 58.0456C73.9642 62.417 78.1302 66.6845 82.7146 67.293C84.9029 67.5846 87.2255 67.1738 89.2692 67.9649C92.918 69.3773 94.0869 73.949 97.7484 75.3056L97.9157 41.4905H74.02V58.0456Z" fill="white"/>
<path d="M119.301 182.207L119.129 176.269H124.907L124.654 182.393L119.301 182.207Z" fill="#FC9D9D"/>
<path opacity="0.15" d="M124.834 177.938L124.651 182.393L123.267 182.349L123.307 179.728C123.309 179.522 123.242 179.322 123.117 179.16C122.991 178.997 122.815 178.882 122.615 178.833L119.157 177.938H124.834Z" fill="black"/>
<path d="M142.36 182.207L142.545 176.269H136.746L137 182.393L142.36 182.207Z" fill="#FC9D9D"/>
<path d="M124.631 187.578V182.393C124.628 181.637 124.327 180.914 123.793 180.38C123.259 179.846 122.536 179.545 121.781 179.543H121.664C121.042 179.54 120.437 179.753 119.955 180.147C119.473 180.541 119.142 181.09 119.02 181.7C118.877 182.445 118.54 183.14 118.044 183.714L117.23 184.67C116.539 185.482 116.157 186.512 116.152 187.578H124.631Z" fill="#00BC7D"/>
<path d="M119.727 182.309C119.706 182.309 119.686 182.304 119.668 182.293C119.65 182.282 119.635 182.266 119.626 182.248C119.605 182.187 119.605 182.126 119.666 182.106C120.144 181.835 120.684 181.693 121.233 181.693C121.783 181.693 122.322 181.835 122.8 182.106C122.822 182.122 122.836 182.146 122.84 182.173C122.844 182.199 122.837 182.226 122.821 182.248C122.778 182.288 122.717 182.309 122.676 182.268C122.233 182.016 121.732 181.884 121.222 181.884C120.712 181.884 120.211 182.016 119.768 182.268C119.768 182.309 119.747 182.309 119.727 182.309Z" fill="white"/>
<path d="M119.382 183.042C119.362 183.042 119.341 183.037 119.323 183.026C119.305 183.015 119.291 183 119.281 182.981C119.261 182.92 119.261 182.859 119.322 182.839C119.799 182.568 120.339 182.426 120.887 182.426C121.436 182.426 121.976 182.568 122.453 182.839C122.464 182.847 122.473 182.857 122.479 182.868C122.486 182.88 122.491 182.893 122.493 182.906C122.495 182.919 122.494 182.932 122.491 182.945C122.487 182.958 122.481 182.97 122.473 182.981C122.465 182.991 122.455 183.001 122.444 183.007C122.432 183.014 122.42 183.019 122.407 183.02C122.393 183.022 122.38 183.022 122.367 183.018C122.354 183.015 122.342 183.009 122.331 183.001C121.888 182.75 121.387 182.617 120.877 182.617C120.367 182.617 119.866 182.75 119.423 183.001C119.423 183.042 119.403 183.042 119.382 183.042Z" fill="white"/>
<path d="M119.015 183.815C118.994 183.815 118.973 183.81 118.955 183.799C118.937 183.789 118.923 183.773 118.913 183.754C118.893 183.693 118.893 183.633 118.954 183.612C119.432 183.341 119.972 183.199 120.521 183.199C121.07 183.199 121.61 183.341 122.088 183.612C122.109 183.629 122.124 183.652 122.127 183.679C122.131 183.706 122.124 183.733 122.108 183.754C122.092 183.776 122.068 183.79 122.041 183.794C122.015 183.798 121.988 183.791 121.966 183.775C121.522 183.523 121.021 183.39 120.511 183.39C120.001 183.39 119.499 183.523 119.055 183.775C119.035 183.815 119.015 183.815 119.015 183.815Z" fill="white"/>
<path d="M116.543 188.656H124.294C124.342 188.656 124.39 188.647 124.434 188.628C124.479 188.61 124.519 188.583 124.553 188.549C124.587 188.515 124.614 188.475 124.632 188.431C124.65 188.386 124.659 188.338 124.659 188.29V187.598H116.177V188.29C116.177 188.338 116.186 188.386 116.205 188.431C116.223 188.475 116.25 188.515 116.284 188.549C116.318 188.583 116.358 188.61 116.402 188.628C116.447 188.647 116.494 188.656 116.543 188.656Z" fill="#15247C"/>
<path opacity="0.15" d="M142.484 177.938L142.36 182.208L139.941 182.289L139.982 179.401C139.984 179.267 139.944 179.136 139.867 179.027C139.79 178.917 139.68 178.835 139.553 178.792L136.828 177.917H142.484V177.938Z" fill="black"/>
<path d="M137.013 187.578V182.393C137.015 181.638 137.315 180.914 137.849 180.38C138.382 179.846 139.105 179.545 139.86 179.543H139.982C140.605 179.54 141.209 179.753 141.691 180.147C142.174 180.541 142.504 181.09 142.626 181.7C142.77 182.445 143.106 183.14 143.603 183.714L144.417 184.67C145.109 185.481 145.493 186.511 145.499 187.578H137.013Z" fill="#00BC7D"/>
<path d="M141.934 182.309C141.923 182.31 141.912 182.309 141.901 182.306C141.891 182.302 141.881 182.296 141.873 182.289C141.433 182.029 140.931 181.892 140.419 181.892C139.908 181.892 139.406 182.029 138.965 182.289C138.954 182.297 138.942 182.303 138.929 182.307C138.916 182.31 138.903 182.311 138.89 182.309C138.876 182.307 138.863 182.303 138.852 182.296C138.841 182.288 138.831 182.279 138.823 182.268C138.814 182.258 138.807 182.246 138.803 182.233C138.799 182.22 138.798 182.206 138.8 182.193C138.802 182.179 138.807 182.166 138.814 182.155C138.822 182.143 138.832 182.134 138.843 182.126C139.319 181.851 139.859 181.706 140.409 181.706C140.959 181.706 141.499 181.851 141.975 182.126C142.036 182.147 142.036 182.228 142.015 182.268C141.993 182.29 141.965 182.304 141.934 182.309Z" fill="white"/>
<path d="M142.259 183.042C142.248 183.043 142.237 183.042 142.226 183.038C142.215 183.035 142.206 183.029 142.198 183.021C141.757 182.762 141.255 182.625 140.744 182.625C140.232 182.625 139.73 182.762 139.289 183.021C139.268 183.038 139.241 183.044 139.214 183.041C139.188 183.037 139.164 183.023 139.147 183.001C139.131 182.98 139.124 182.952 139.128 182.926C139.132 182.899 139.146 182.875 139.168 182.859C139.644 182.584 140.184 182.439 140.734 182.439C141.283 182.439 141.823 182.584 142.299 182.859C142.36 182.879 142.36 182.961 142.34 183.001C142.32 183.042 142.299 183.042 142.259 183.042Z" fill="white"/>
<path d="M142.647 183.815C142.636 183.817 142.624 183.815 142.614 183.812C142.603 183.809 142.594 183.803 142.586 183.795C142.145 183.535 141.642 183.399 141.13 183.399C140.619 183.399 140.116 183.535 139.675 183.795C139.653 183.811 139.627 183.818 139.6 183.814C139.573 183.81 139.549 183.796 139.533 183.775C139.517 183.753 139.51 183.726 139.514 183.699C139.518 183.673 139.532 183.649 139.553 183.633C140.03 183.357 140.57 183.213 141.12 183.213C141.671 183.213 142.211 183.357 142.687 183.633C142.748 183.653 142.748 183.734 142.728 183.775C142.718 183.787 142.706 183.797 142.692 183.804C142.678 183.811 142.662 183.815 142.647 183.815Z" fill="white"/>
<path d="M145.127 188.656H137.385C137.337 188.656 137.29 188.647 137.245 188.628C137.201 188.61 137.16 188.583 137.126 188.549C137.092 188.515 137.066 188.475 137.047 188.431C137.029 188.386 137.02 188.338 137.02 188.29V187.598H145.522V188.29C145.518 188.391 145.473 188.486 145.399 188.554C145.325 188.623 145.227 188.659 145.127 188.656Z" fill="#15247C"/>
<path d="M116.877 100.375L118.097 177.938H125.567L129.203 115.561C129.221 115.205 129.375 114.868 129.635 114.623C129.895 114.378 130.239 114.243 130.596 114.245C130.953 114.248 131.295 114.389 131.551 114.638C131.807 114.887 131.957 115.225 131.969 115.582L135.828 177.927H143.471L144.348 100.365L116.877 100.375Z" fill="#15247C"/>
<path opacity="0.2" d="M144.135 105.906L143.471 177.938H142.811L142.872 176.092H141.495L141.171 105.906H144.135Z" fill="black"/>
<path d="M125.871 175.574L125.729 177.935H117.955L117.894 175.574H125.871Z" fill="#15247C"/>
<path opacity="0.4" d="M125.871 175.574L125.729 177.935H117.955L117.894 175.574H125.871Z" fill="black"/>
<path opacity="0.2" d="M130.587 114.261C130.236 114.258 129.897 114.389 129.64 114.628C129.382 114.867 129.226 115.196 129.203 115.546L125.721 175.575H122.876L125.721 118.244C125.762 116.03 126.099 114.261 128.336 114.261H130.587Z" fill="black"/>
<path opacity="0.4" d="M125.721 177.937L125.863 175.577H122.876L122.836 177.937H125.721Z" fill="black"/>
<path d="M135.686 175.574L135.828 177.935H143.605L143.646 175.574H135.686Z" fill="#15247C"/>
<path opacity="0.4" d="M135.686 175.574L135.828 177.935H143.605L143.646 175.574H135.686Z" fill="black"/>
<path opacity="0.4" d="M141.308 175.574V177.935H143.615L143.646 175.574H141.308Z" fill="black"/>
<path d="M125.44 102.094H139.571L137.187 63.3577L123.285 64.7244L125.44 102.094Z" fill="white"/>
<path d="M144.181 62.5334L135.164 61.6941L122.042 62.257L115.046 63.4107L115.536 89.5986L116.236 108.126C116.241 108.269 116.302 108.404 116.405 108.504C116.508 108.603 116.645 108.658 116.788 108.659H126.097C126.243 108.659 126.383 108.601 126.487 108.498C126.59 108.395 126.649 108.255 126.649 108.109C126.71 93.752 126.693 96.7136 125.44 70.6829L124.74 65.6725L133.404 62.7058L133.757 69.8639C134.386 78.5966 134.883 104.095 134.959 108.119C134.961 108.263 135.021 108.4 135.123 108.501C135.226 108.602 135.365 108.659 135.509 108.659H144.52C144.594 108.659 144.666 108.644 144.733 108.615C144.801 108.587 144.862 108.545 144.913 108.493C144.964 108.44 145.005 108.378 145.032 108.31C145.059 108.242 145.072 108.169 145.071 108.096L144.723 88.2497L144.181 62.5334Z" fill="#00BC7D"/>
<path d="M144.181 62.5918C144.181 62.5918 147.538 63.9839 148.93 69.8741C148.93 69.8741 150.705 79.0024 151.818 84.989L158.591 88.9547C158.591 88.9547 158.591 92.9889 154.377 95.3445L149.942 93.3971C149.318 93.1233 148.69 92.8578 148.058 92.6009C146.851 92.109 143.813 90.6257 143.577 88.0951L141.889 73.353L144.181 62.5918Z" fill="#00BC7D"/>
<g opacity="0.15">
<path opacity="0.15" d="M148.108 85.0171C146.962 85.6713 146.394 86.8073 145.981 87.9635C147.454 86.8174 148.77 85.6814 151.684 84.9841H151.818C150.718 84.4491 149.173 84.4086 148.108 85.0171Z" fill="black"/>
</g>
<path opacity="0.2" d="M154.328 95.1646L154.166 94.1833L149.161 92.061C148.986 91.9722 148.808 91.8936 148.631 91.8074C144.508 89.9311 144.848 86.8224 144.848 86.8224L144.087 72.9196C144.082 72.8442 144.048 72.7735 143.993 72.7218C143.938 72.67 143.866 72.6411 143.79 72.6406C143.75 72.6406 143.71 72.6487 143.673 72.6642C143.636 72.6799 143.603 72.703 143.575 72.7317C143.547 72.7606 143.525 72.7948 143.511 72.8323C143.496 72.8699 143.49 72.9099 143.491 72.95L143.897 88.0572C143.897 88.1891 143.909 88.3108 143.927 88.4503C144.277 90.8033 146.861 92.1092 148.004 92.5783C148.684 92.8572 149.361 93.1386 150.033 93.4328L154.374 95.3446L154.328 95.1646Z" fill="black"/>
<path opacity="0.3" d="M158.335 89.0208C158.177 90.2817 157.735 91.4904 157.041 92.5549C156.347 93.6196 155.419 94.5119 154.328 95.1646C154.328 95.1646 153.36 90.2531 158.335 89.0208Z" fill="black"/>
<path opacity="0.25" d="M155.388 87.3904C155.388 87.3904 151.95 89.0259 151.05 93.6914" stroke="black" stroke-width="0.65" stroke-miterlimit="10" stroke-linecap="round"/>
<path opacity="0.15" d="M151.818 84.989C151.818 84.989 149.009 84.4819 146.389 87.3902" stroke="black" stroke-width="0.65" stroke-miterlimit="10" stroke-linecap="round"/>
<path d="M168.665 96.3463L166.324 95.7301C166.813 96.0065 167.281 96.3166 167.727 96.6582C167.995 96.9447 168.148 97.4011 167.509 97.5482C167.159 97.6268 164.958 96.6429 164.958 96.6429L163.206 95.8468C163.206 95.8468 163.015 95.9152 163.439 96.1865C163.862 96.4578 165.467 97.3783 165.11 97.8575C164.653 98.4635 163.16 97.2971 163.16 97.2971C163.16 97.2971 161.484 96.2246 160.995 96.1206C160.06 95.9081 159.138 95.6431 158.233 95.327C157.549 95.0506 154.339 93.5672 154.339 93.5672C154.339 90.2709 157.366 89.353 157.366 89.353L159.047 90.7501C159.047 90.7501 159.088 90.6284 159.968 89.9895C160.847 89.3505 161.707 89.4823 162.63 88.6709C163.243 88.1592 163.815 87.5996 164.339 86.9974C164.897 86.3737 165.475 85.9198 165.86 86.4041C166.246 86.8884 165.944 87.5248 165.414 88.1486C164.884 88.7724 163.71 89.67 163.789 90.4941C163.867 91.3181 163.949 91.4829 164.963 92.0915C165.977 92.7 168.721 93.8284 168.721 93.8284C168.721 93.8284 169.72 94.1834 169.519 94.6626C169.205 95.4233 167.534 94.6626 167.534 94.6626C167.534 94.6626 169.588 95.1064 169.451 95.9304C169.428 96.0598 169.358 96.1759 169.256 96.2575C169.172 96.3207 169.075 96.362 168.972 96.3775C168.868 96.3932 168.763 96.3823 168.665 96.3463Z" fill="#FC9D9D"/>
<path opacity="0.15" d="M159.004 90.7449C159.004 90.7449 158.809 91.252 157.975 91.7819C157.617 91.9779 157.325 92.2749 157.136 92.6357C156.947 92.9965 156.868 93.405 156.91 93.8104" stroke="black" stroke-width="0.6" stroke-miterlimit="10" stroke-linecap="round"/>
<path opacity="0.15" d="M163.523 91.0645C163.523 91.0645 163.061 92.3145 161.086 92.6188" stroke="black" stroke-width="0.6" stroke-miterlimit="10" stroke-linecap="round"/>
<path opacity="0.15" d="M165.079 93.7268L168.442 94.949" stroke="black" stroke-width="0.6" stroke-miterlimit="10" stroke-linecap="round"/>
<path opacity="0.15" d="M167.113 95.9379L164.471 94.949" stroke="black" stroke-width="0.6" stroke-miterlimit="10" stroke-linecap="round"/>
<path opacity="0.15" d="M163.756 97.401L161.362 95.938C158.066 95.0835 156.621 94.0616 156.621 94.0616L154.48 92.4363C154.392 92.8067 154.349 93.1863 154.351 93.5672C154.351 93.5672 157.561 95.0505 158.246 95.3269C159.151 95.6431 160.073 95.9081 161.007 96.1206C161.497 96.2245 163.173 97.2971 163.173 97.2971C163.173 97.2971 164.666 98.4635 165.123 97.8574C164.653 98.1592 163.756 97.401 163.756 97.401Z" fill="black"/>
<path d="M123.835 52.5966L124.058 64.2605C124.057 64.5166 124.121 64.7686 124.243 64.9933L124.324 65.1353C124.786 65.848 125.394 66.4543 126.108 66.9133C126.822 67.3725 127.626 67.6737 128.467 67.7969C129.307 67.9204 130.163 67.8631 130.979 67.6288C131.796 67.3945 132.552 66.9888 133.199 66.4386C133.343 66.2887 133.451 66.1082 133.514 65.9104C133.578 65.7129 133.596 65.5032 133.567 65.2976L132.045 51.9348L123.835 52.5966Z" fill="#FC9D9D"/>
<path d="M132.928 48.6154C132.928 48.6154 134.596 59.6403 128.511 60.0866C122.57 60.5354 122.387 49.3888 122.387 49.3888L122.225 46.1939L129.875 44.8525L131.807 45.849L132.928 48.6154Z" fill="#FC9D9D"/>
<path opacity="0.15" d="M132.887 59.1537L132.568 56.2073C132.017 58.1597 130.942 59.5568 128.949 59.8839H128.97L128.541 59.9448C126.954 60.0665 125.633 59.3337 124.636 57.7667C124.627 57.752 124.615 57.7393 124.601 57.7294C124.586 57.7193 124.57 57.7122 124.553 57.7084C124.536 57.7048 124.519 57.7043 124.502 57.7074C124.485 57.7104 124.468 57.7167 124.454 57.7261C124.439 57.7355 124.426 57.7477 124.415 57.7621C124.405 57.7763 124.398 57.7926 124.394 57.8098C124.39 57.827 124.389 57.8448 124.392 57.8623C124.395 57.8795 124.401 57.8963 124.411 57.9112C125.47 59.5771 126.873 60.3505 128.561 60.2288C128.914 60.2044 129.262 60.1362 129.598 60.0259C130.668 60.1476 132.061 59.9727 132.887 59.1537Z" fill="black"/>
<path d="M131.482 45.9886C131.482 45.9886 133.414 44.7081 134.33 46.9039C135.091 48.755 133.802 50.7708 133.802 50.7708L132.684 50.6491C132.215 50.6288 131.891 50.3955 131.85 49.9568L131.482 45.9886Z" fill="black"/>
<path d="M132.867 44.6473C133.029 46.7417 131.239 47.292 130.506 47.3528L124.507 47.8599C124.271 47.882 124.053 47.9938 123.898 48.1721C123.743 48.3506 123.662 48.5821 123.673 48.8184L123.774 50.7303C123.784 50.8565 123.745 50.9818 123.666 51.0799C123.586 51.1781 123.471 51.242 123.346 51.2577L122.98 51.2982L122.572 51.8054C120.214 51.2349 119.238 44.5433 123.571 43.1995C123.802 43.1254 124.016 43.0062 124.201 42.8493C124.386 42.6921 124.538 42.5001 124.649 42.2841C125.278 40.9833 127.862 40.6359 129.165 42.1015C129.291 42.2514 129.451 42.3701 129.631 42.4479C129.811 42.5257 130.006 42.561 130.202 42.5503C131.769 42.5123 132.786 43.4885 132.867 44.6473Z" fill="black"/>
<path d="M126.031 53.5169C126.136 53.5174 126.238 53.4867 126.326 53.4289C126.413 53.3708 126.482 53.2884 126.522 53.1915C126.563 53.0947 126.574 52.9882 126.553 52.8852C126.533 52.7823 126.483 52.6875 126.409 52.6132C126.335 52.5389 126.24 52.4882 126.138 52.4674C126.035 52.4468 125.928 52.457 125.831 52.497C125.734 52.5371 125.651 52.6051 125.593 52.6923C125.534 52.7795 125.503 52.8819 125.503 52.9869C125.503 53.1271 125.559 53.2615 125.658 53.3609C125.757 53.4601 125.891 53.5164 126.031 53.5169Z" fill="black"/>
<path d="M126.114 53.0479C126.13 53.0481 126.146 53.0453 126.161 53.0392C126.176 53.0332 126.19 53.0243 126.201 53.0129C126.213 53.0015 126.221 52.988 126.227 52.9731C126.234 52.9581 126.236 52.9421 126.236 52.9261C126.236 52.8939 126.223 52.8628 126.2 52.8399C126.178 52.8171 126.147 52.8044 126.114 52.8044C126.082 52.805 126.052 52.8181 126.029 52.8407C126.006 52.8635 125.993 52.8939 125.993 52.9261C125.993 52.9584 126.005 52.9893 126.028 53.0121C126.051 53.0349 126.082 53.0479 126.114 53.0479Z" fill="white"/>
<path d="M130.1 53.21C130.205 53.21 130.308 53.1788 130.395 53.1205C130.482 53.0622 130.55 52.9792 130.59 52.8824C130.63 52.7853 130.641 52.6785 130.62 52.5758C130.599 52.4729 130.549 52.3786 130.474 52.3045C130.4 52.2305 130.305 52.1803 130.202 52.16C130.099 52.1399 129.993 52.1506 129.896 52.1912C129.799 52.2317 129.716 52.2999 129.659 52.3874C129.601 52.4749 129.57 52.5776 129.57 52.6826C129.57 52.7521 129.584 52.821 129.611 52.8852C129.638 52.9493 129.677 53.0074 129.726 53.0566C129.775 53.1055 129.834 53.1443 129.898 53.1707C129.962 53.1971 130.031 53.2105 130.1 53.21Z" fill="black"/>
<path d="M130.032 52.764C130.064 52.764 130.095 52.7511 130.118 52.7282C130.141 52.7054 130.154 52.6745 130.154 52.6423C130.154 52.626 130.151 52.6101 130.145 52.5954C130.139 52.5804 130.13 52.5667 130.119 52.5553C130.108 52.5441 130.094 52.535 130.079 52.5292C130.064 52.5231 130.048 52.5201 130.032 52.5206C130.016 52.5206 130 52.5236 129.985 52.5297C129.971 52.5358 129.957 52.5449 129.946 52.5561C129.935 52.5675 129.926 52.5809 129.92 52.5956C129.913 52.6103 129.91 52.6263 129.91 52.6423C129.911 52.6742 129.924 52.7049 129.947 52.7275C129.969 52.7503 130 52.7632 130.032 52.764Z" fill="white"/>
<path opacity="0.2" d="M128.331 55.4895L128.757 55.449C128.777 55.4477 128.796 55.4424 128.814 55.4335C128.832 55.4246 128.848 55.4122 128.861 55.3972C128.874 55.382 128.884 55.3645 128.891 55.3455C128.897 55.3267 128.9 55.3067 128.899 55.2867C128.897 55.2666 128.892 55.2471 128.883 55.2291C128.874 55.2111 128.862 55.1951 128.847 55.182C128.832 55.1688 128.814 55.1586 128.795 55.1523C128.776 55.1459 128.756 55.1434 128.736 55.1447L128.31 55.1852C128.266 55.1908 128.221 55.1873 128.178 55.1746C128.135 55.1622 128.095 55.1409 128.061 55.1125C128.027 55.0841 127.998 55.0488 127.978 55.009C127.958 54.9692 127.946 54.9256 127.943 54.881C127.94 54.8364 127.947 54.7917 127.962 54.7496C127.977 54.7075 128.001 54.6692 128.031 54.6365C128.062 54.6041 128.099 54.5782 128.14 54.5605C128.181 54.5427 128.225 54.5336 128.27 54.5336C128.29 54.5323 128.309 54.527 128.327 54.5181C128.345 54.5093 128.361 54.4968 128.374 54.4819C128.388 54.4667 128.397 54.4492 128.404 54.4301C128.41 54.4114 128.413 54.3913 128.412 54.3713C128.41 54.3513 128.405 54.3318 128.396 54.3138C128.387 54.2958 128.375 54.2798 128.36 54.2666C128.345 54.2534 128.327 54.2433 128.308 54.2369C128.289 54.2306 128.269 54.2281 128.249 54.2293C128.167 54.2334 128.087 54.2542 128.013 54.2904C127.939 54.3267 127.873 54.3779 127.819 54.4405C127.766 54.5034 127.726 54.5762 127.702 54.655C127.678 54.7339 127.67 54.8168 127.679 54.8987C127.679 54.9816 127.696 55.0635 127.73 55.1394C127.763 55.2149 127.812 55.2829 127.874 55.3387C127.935 55.3942 128.007 55.4365 128.086 55.4624C128.165 55.4885 128.248 55.4976 128.331 55.4895Z" fill="black"/>
<path opacity="0.2" d="M135.522 61.7399L137.718 69.5141C137.74 69.5671 137.743 69.6262 137.727 69.6814C137.711 69.7367 137.677 69.7852 137.63 69.8184C137.583 69.8518 137.527 69.8681 137.469 69.8648C137.412 69.8617 137.357 69.8389 137.314 69.8006C136.518 69.1693 134.867 67.729 133.714 69.1464L133.093 61.2175L135.522 61.7399Z" fill="black"/>
<path d="M127.134 56.5139L127.179 56.5012C127.925 56.3821 128.673 56.3821 129.51 56.3035C129.525 56.3057 129.54 56.3116 129.553 56.3199C129.567 56.3283 129.578 56.3395 129.587 56.3527C129.596 56.3658 129.602 56.3805 129.605 56.396C129.608 56.4117 129.607 56.4277 129.603 56.4429C129.441 57.1707 128.959 57.054 128.457 57.1275C127.955 57.2011 127.253 57.3152 127.078 56.699V56.6762C127.04 56.6052 127.078 56.5139 127.134 56.5139Z" fill="white"/>
<path opacity="0.2" d="M121.768 62.3204L121.436 71.048C121.435 71.0764 121.441 71.1046 121.451 71.1309C121.461 71.1575 121.477 71.1816 121.497 71.2019C121.517 71.2222 121.54 71.2384 121.567 71.2493C121.593 71.2605 121.621 71.2661 121.649 71.2661C121.685 71.2656 121.719 71.2564 121.75 71.2392C121.782 71.222 121.808 71.1971 121.827 71.1672C122.169 70.6144 123.891 68.0661 125.356 70.12L124.182 61.6941L121.768 62.3204Z" fill="black"/>
<path d="M127.133 50.8269C127.114 50.9523 126.576 51.0559 125.979 51.2953C125.382 51.5347 124.924 51.8115 124.815 51.7379C124.762 51.6999 124.819 51.571 124.986 51.4056C125.223 51.1885 125.499 51.0184 125.8 50.9051C126.103 50.7831 126.426 50.7175 126.753 50.7121C127.001 50.7165 127.141 50.7676 127.133 50.8269Z" fill="black"/>
<path d="M128.775 50.7841C128.806 50.9062 129.352 50.9542 129.969 51.1351C130.586 51.3161 131.073 51.5439 131.173 51.46C131.221 51.4186 131.154 51.2958 130.969 51.1471C130.712 50.9539 130.42 50.8121 130.109 50.7297C129.796 50.636 129.468 50.6029 129.142 50.6323C128.897 50.6601 128.769 50.7274 128.775 50.7841Z" fill="black"/>
<path d="M121.776 70.6603L122.03 62.2573L123.962 60.2288L125.181 69.641C125.181 69.641 123.926 67.4451 121.885 70.7085C121.875 70.7159 121.864 70.7204 121.852 70.7217C121.84 70.723 121.827 70.7212 121.816 70.7164C121.805 70.7113 121.796 70.7037 121.789 70.6938C121.782 70.6839 121.777 70.6725 121.776 70.6603Z" fill="#00BC7D"/>
<path d="M132.981 59.9143L135.326 61.6892L137.401 69.215C137.405 69.2289 137.404 69.2439 137.399 69.2573C137.393 69.2708 137.384 69.2822 137.371 69.2898C137.359 69.2974 137.344 69.3004 137.33 69.2989C137.315 69.2974 137.302 69.2911 137.292 69.2809C136.686 68.7028 134.693 67.0166 133.706 68.8067L132.981 59.9143Z" fill="#00BC7D"/>
<path d="M115.087 63.3501C115.087 63.3501 111.565 64.4734 110.175 70.3662C110.175 70.3662 108.401 79.8088 107.287 85.8081L100.512 89.7713C100.512 89.7713 100.34 93.8055 104.569 96.1636L110.579 93.628C110.817 93.5291 111.055 93.4353 111.294 93.3415C112.189 92.9941 115.28 91.6046 115.533 88.9041L117.219 74.162L115.087 63.3501Z" fill="#00BC7D"/>
<g opacity="0.15">
<path opacity="0.15" d="M110.995 85.8335C112.141 86.4902 112.709 87.6262 113.122 88.7799C111.649 87.6338 110.333 86.4978 107.422 85.8031H107.287C108.385 85.268 109.93 85.2275 110.995 85.8335Z" fill="black"/>
</g>
<path opacity="0.2" d="M104.612 95.9834L104.775 94.9996L109.668 93.0244C110.102 92.8494 110.533 92.6618 110.959 92.469C115.082 90.5927 114.577 87.484 114.577 87.484L115.503 73.5812C115.508 73.5059 115.541 73.4351 115.596 73.3834C115.651 73.3317 115.724 73.3028 115.8 73.3022C115.84 73.3022 115.879 73.3104 115.916 73.3261C115.953 73.3416 115.987 73.3646 116.015 73.3935C116.043 73.4224 116.064 73.4567 116.079 73.494C116.093 73.5315 116.1 73.5715 116.099 73.6116L115.523 88.9166C115.27 91.6171 112.179 93.0066 111.284 93.354C111.045 93.4478 110.807 93.5416 110.569 93.6405L104.559 96.1761L104.612 95.9834Z" fill="black"/>
<path opacity="0.3" d="M100.768 89.8396C100.872 91.0963 101.275 92.3095 101.944 93.3786C102.612 94.4473 103.528 95.3406 104.612 95.9834C104.612 95.9834 105.756 91.0719 100.768 89.8396Z" fill="black"/>
<path opacity="0.25" d="M103.712 88.2068C103.712 88.2068 107.148 89.8448 108.048 94.5103" stroke="black" stroke-width="0.65" stroke-miterlimit="10" stroke-linecap="round"/>
<path opacity="0.15" d="M107.287 85.8132C107.287 85.8132 110.097 85.3061 112.714 88.212" stroke="black" stroke-width="0.65" stroke-miterlimit="10" stroke-linecap="round"/>
<path d="M90.3443 97.2235L92.6999 96.6023C92.2082 96.8804 91.7361 97.1921 91.2875 97.5354C91.0188 97.8244 90.8641 98.2961 91.5081 98.4305C91.8581 98.5116 94.0742 97.5202 94.0742 97.5202L95.8491 96.7189C95.8491 96.7189 96.0418 96.7874 95.6133 97.0612C95.1848 97.3351 93.5721 98.2606 93.9322 98.7423C94.3912 99.3534 95.8948 98.1794 95.8948 98.1794C95.8948 98.1794 97.581 97.0993 98.0754 96.9928C99.0197 96.7805 99.951 96.514 100.865 96.194C101.552 95.9177 104.782 94.4191 104.782 94.4191C104.782 91.0924 101.739 90.1745 101.739 90.1745L100.048 91.5817C100.048 91.5817 100.008 91.4575 99.1226 90.821C98.2377 90.1846 97.3705 90.3139 96.4399 89.4949C95.8225 88.9789 95.2477 88.4142 94.7208 87.8062C94.1579 87.1799 93.5772 86.7235 93.1842 87.2103C92.7912 87.6972 93.098 88.3387 93.633 88.9675C94.168 89.5963 95.3496 90.4889 95.271 91.3282C95.1924 92.1675 95.1087 92.3247 94.0894 92.9358C93.0701 93.5468 90.3037 94.6853 90.3037 94.6853C90.3037 94.6853 89.2895 95.0429 89.4999 95.5246C89.8169 96.2853 91.5005 95.5246 91.5005 95.5246C91.5005 95.5246 89.4315 95.9709 89.5709 96.8077C89.5904 96.9387 89.6604 97.0572 89.7662 97.1373C89.8481 97.1976 89.9437 97.2372 90.0446 97.2524C90.1452 97.2674 90.2482 97.2575 90.3443 97.2235Z" fill="#FC9D9D"/>
<path opacity="0.15" d="M100.068 91.5942C100.068 91.5942 100.266 92.1014 101.106 92.6389C101.465 92.8359 101.759 93.1346 101.95 93.4977C102.141 93.8608 102.22 94.2721 102.178 94.6801" stroke="black" stroke-width="0.6" stroke-miterlimit="10" stroke-linecap="round"/>
<path opacity="0.15" d="M95.5195 91.9141C95.5195 91.9141 95.9861 93.1819 97.9715 93.4785" stroke="black" stroke-width="0.6" stroke-miterlimit="10" stroke-linecap="round"/>
<path opacity="0.15" d="M93.9526 94.594L90.5675 95.8263" stroke="black" stroke-width="0.6" stroke-miterlimit="10" stroke-linecap="round"/>
<path opacity="0.15" d="M91.9062 96.8229L94.5636 95.8264" stroke="black" stroke-width="0.6" stroke-miterlimit="10" stroke-linecap="round"/>
<path opacity="0.15" d="M95.2939 98.2934L97.7027 96.8227C101.029 95.9606 102.477 94.9311 102.477 94.9311L104.63 93.2957C104.719 93.6694 104.762 94.0525 104.759 94.4367C104.759 94.4367 101.529 95.9276 100.842 96.2116C99.9282 96.5314 98.9972 96.7981 98.0526 97.0103C97.5582 97.1168 95.872 98.197 95.872 98.197C95.872 98.197 94.3684 99.371 93.9094 98.7599C94.3811 99.0591 95.2939 98.2934 95.2939 98.2934Z" fill="black"/>
<path d="M133.539 53.7932C133.454 53.7965 133.369 53.7922 133.285 53.7805L132.717 55.525L132.388 54.3713L132.912 52.1881L132.885 51.8357L132.2 54.1456C128.635 55.2207 125.1 54.4702 124.339 54.2876L123.325 51.9447L123.143 52.2642L124.157 54.5209L123.992 56.0423C123.992 56.0481 123.992 56.0542 123.992 56.06L122.775 54.6502C122.681 54.6578 122.587 54.6578 122.494 54.6502L124.078 56.4607C125.014 60.1779 128.691 59.8609 128.691 59.8609C131.835 59.5592 132.575 57.0718 132.748 56.1767L133.539 53.7932Z" fill="#00BC7D"/>
<path d="M123.001 51.95C122.983 51.7722 122.918 51.6023 122.812 51.4583C122.706 51.3145 122.563 51.2022 122.398 51.1332C122.233 51.0645 122.052 51.0414 121.876 51.067C121.699 51.0924 121.532 51.1654 121.393 51.278L121.373 51.2983C120.336 52.1934 121.008 55.0003 123.285 54.7569L123.001 51.95Z" fill="#FC9D9D"/>
<path d="M134.342 50.4641L134.322 50.4438C134.169 50.351 133.994 50.3016 133.816 50.3003C133.637 50.2993 133.461 50.3467 133.307 50.4375C133.153 50.5283 133.026 50.6591 132.941 50.8161C132.855 50.973 132.814 51.1503 132.821 51.3288L132.943 54.014C135.245 53.943 135.471 51.1969 134.342 50.4641Z" fill="#FC9D9D"/>
<path d="M123.285 52.2946C123.287 52.3301 123.282 52.3659 123.271 52.3994C123.26 52.4331 123.241 52.4643 123.218 52.4909C123.194 52.5175 123.165 52.5393 123.134 52.5548C123.102 52.5703 123.067 52.5791 123.031 52.5812C122.964 52.5908 122.896 52.5748 122.839 52.537C122.783 52.499 122.743 52.4417 122.727 52.3758L122.471 50.5679L123.231 50.5907L123.285 52.2946Z" fill="black"/>
<path d="M133.293 51.5645C133.295 51.5997 133.29 51.6352 133.278 51.6685C133.267 51.7019 133.248 51.7326 133.225 51.759C133.201 51.7854 133.173 51.8069 133.141 51.8224C133.109 51.8376 133.075 51.8465 133.039 51.8485C132.972 51.8581 132.904 51.8427 132.848 51.8054C132.792 51.7679 132.752 51.7111 132.735 51.6456L132.469 49.8352L133.229 49.8555L133.293 51.5645Z" fill="black"/>
<path opacity="0.2" d="M122.425 53.4155C122.386 53.4137 122.348 53.3983 122.318 53.3719C122.289 53.3458 122.269 53.31 122.263 53.271L122.222 52.9464C122.215 52.6827 122.115 52.4302 121.938 52.2339C121.904 52.2035 121.864 52.1807 121.82 52.1667C121.777 52.1525 121.73 52.1479 121.685 52.1528C121.644 52.1609 121.603 52.1525 121.568 52.1297C121.534 52.1069 121.51 52.0714 121.502 52.0311C121.494 51.9907 121.502 51.9489 121.525 51.9147C121.548 51.8804 121.584 51.8566 121.624 51.8485C121.796 51.8292 121.97 51.8723 122.113 51.9702C122.24 52.0873 122.34 52.2288 122.41 52.386C122.48 52.5435 122.517 52.7134 122.519 52.8856L122.56 53.2101C122.563 53.2542 122.551 53.2984 122.527 53.3354C122.503 53.3724 122.467 53.4005 122.425 53.4155Z" fill="black"/>
<path opacity="0.2" d="M133.62 52.5814C133.66 52.5776 133.697 52.5585 133.723 52.5284C133.749 52.4982 133.763 52.4591 133.762 52.4191V52.0894C133.74 51.9614 133.745 51.8301 133.776 51.704C133.808 51.5778 133.865 51.4596 133.944 51.3566C133.975 51.3184 134.013 51.2872 134.057 51.2661C134.101 51.2451 134.149 51.2344 134.198 51.2349C134.218 51.2362 134.238 51.2337 134.257 51.2273C134.276 51.221 134.294 51.2109 134.309 51.1977C134.323 51.1845 134.336 51.1685 134.345 51.1505C134.354 51.1325 134.359 51.113 134.36 51.0929C134.362 51.0729 134.359 51.0529 134.353 51.0341C134.346 51.0151 134.336 50.9976 134.323 50.9824C134.31 50.9674 134.294 50.955 134.276 50.9461C134.258 50.9373 134.238 50.9319 134.218 50.9307C134.134 50.9327 134.051 50.9517 133.974 50.9864C133.898 51.0214 133.829 51.0714 133.772 51.1335C133.569 51.3364 133.488 51.6635 133.518 52.1097V52.4368C133.458 52.5205 133.518 52.5814 133.62 52.5814Z" fill="black"/>
<path d="M244.83 111.048L257.795 116.266C258.094 116.404 258.34 116.639 258.489 116.933C258.639 117.227 258.685 117.563 258.619 117.886L251.09 155.414H237.542L244.83 111.048Z" fill="#00BC7D"/>
<path opacity="0.3" d="M244.83 111.048L257.795 116.266C258.094 116.404 258.34 116.639 258.489 116.933C258.639 117.227 258.685 117.563 258.619 117.886L251.09 155.414H237.542L244.83 111.048Z" fill="white"/>
<path d="M246.085 112.803L237.543 155.424H198.747L207.412 112.224C207.478 111.892 207.658 111.593 207.919 111.379C208.183 111.164 208.51 111.047 208.849 111.048H244.642C244.86 111.047 245.076 111.095 245.271 111.187C245.469 111.28 245.641 111.415 245.781 111.583C245.918 111.751 246.017 111.947 246.07 112.158C246.123 112.369 246.128 112.589 246.085 112.803Z" fill="#00BC7D"/>
<path d="M188.772 177.296H194.447L202.903 134.675L187.786 134.7L188.772 177.296Z" fill="#00BC7D"/>
<path opacity="0.3" d="M188.772 177.296H194.447L202.903 134.675L187.786 134.7L188.772 177.296Z" fill="white"/>
<path d="M188.772 177.296H177.362V136.14C177.362 135.751 177.516 135.379 177.791 135.104C178.066 134.829 178.439 134.675 178.828 134.675H187.309C187.697 134.675 188.07 134.829 188.346 135.104C188.62 135.379 188.775 135.751 188.775 136.14L188.772 177.296Z" fill="#00BC7D"/>
<path opacity="0.6" d="M246.085 112.803L237.543 155.424H198.747L207.412 112.224C207.478 111.892 207.658 111.593 207.919 111.379C208.183 111.164 208.51 111.047 208.849 111.048H244.642C244.86 111.047 245.076 111.095 245.271 111.187C245.469 111.28 245.641 111.415 245.781 111.583C245.918 111.751 246.017 111.947 246.07 112.158C246.123 112.369 246.128 112.589 246.085 112.803Z" fill="white"/>
<path d="M233.08 155.424H188.772V177.296H233.08V155.424Z" fill="#00BC7D"/>
<path d="M233.08 145.968H188.772V155.512H233.08V145.968Z" fill="#00BC7D"/>
<path d="M241.229 177.296L240.948 180.747L240.291 188.727H237.284L236.627 180.747L236.348 177.296H241.229Z" fill="#00BC7D"/>
<path opacity="0.3" d="M241.229 177.296L240.948 180.747L240.291 188.727H237.284L236.627 180.747L236.348 177.296H241.229Z" fill="white"/>
<path opacity="0.2" d="M241.229 177.296H236.348L236.627 180.747H240.948L241.229 177.296Z" fill="black"/>
<path d="M206.354 177.296L206.073 180.747L205.416 188.727H202.409L201.755 180.747L201.473 177.296H206.354Z" fill="#00BC7D"/>
<path opacity="0.6" d="M233.08 145.968H188.772V155.512H233.08V145.968Z" fill="white"/>
<path opacity="0.3" d="M206.354 177.296L206.073 180.747L205.416 188.727H202.409L201.755 180.747L201.473 177.296H206.354Z" fill="white"/>
<path opacity="0.2" d="M206.354 177.296H201.473L201.755 180.747H206.073L206.354 177.296Z" fill="black"/>
<path d="M185.324 177.296L185.042 180.747L184.386 188.727H181.378L180.722 180.747L180.443 177.296H185.324Z" fill="#00BC7D"/>
<path opacity="0.3" d="M185.324 177.296L185.042 180.747L184.386 188.727H181.378L180.722 180.747L180.443 177.296H185.324Z" fill="white"/>
<path opacity="0.6" d="M233.08 155.424H188.772V177.296H233.08V155.424Z" fill="white"/>
<path opacity="0.6" d="M188.772 177.296H177.362V136.14C177.362 135.751 177.516 135.379 177.791 135.104C178.066 134.829 178.439 134.675 178.828 134.675H187.309C187.697 134.675 188.07 134.829 188.346 135.104C188.62 135.379 188.775 135.751 188.775 136.14L188.772 177.296Z" fill="white"/>
<path opacity="0.2" d="M180.443 177.296L180.722 180.747H185.042L185.324 177.296H180.443Z" fill="black"/>
<path d="M188.772 175.944C188.785 175.944 188.798 175.942 188.81 175.937C188.823 175.932 188.833 175.924 188.843 175.915C188.853 175.905 188.858 175.894 188.864 175.882C188.869 175.869 188.871 175.856 188.871 175.843V134.766C188.871 134.753 188.869 134.74 188.864 134.728C188.858 134.716 188.851 134.705 188.843 134.696C188.833 134.687 188.823 134.679 188.81 134.675C188.798 134.67 188.785 134.667 188.772 134.667C188.76 134.667 188.747 134.67 188.734 134.675C188.722 134.679 188.711 134.687 188.701 134.696C188.694 134.705 188.686 134.716 188.681 134.728C188.676 134.74 188.673 134.753 188.673 134.766V175.843C188.673 175.856 188.676 175.869 188.681 175.882C188.686 175.894 188.691 175.905 188.701 175.915C188.711 175.924 188.722 175.932 188.734 175.937C188.747 175.942 188.76 175.944 188.772 175.944Z" fill="#00BC7D"/>
<path d="M189.487 146.067H231.579C231.604 146.067 231.629 146.057 231.65 146.039C231.667 146.02 231.678 145.995 231.678 145.969C231.678 145.942 231.667 145.917 231.65 145.899C231.629 145.88 231.604 145.87 231.579 145.87H189.487C189.462 145.87 189.437 145.88 189.416 145.899C189.399 145.917 189.388 145.942 189.388 145.969C189.388 145.995 189.399 146.02 189.416 146.039C189.437 146.057 189.462 146.067 189.487 146.067Z" fill="#00BC7D"/>
<path d="M189.487 155.408H231.579C231.604 155.408 231.629 155.398 231.65 155.38C231.667 155.361 231.678 155.336 231.678 155.31C231.678 155.283 231.667 155.258 231.65 155.24C231.629 155.221 231.604 155.211 231.579 155.211H189.487C189.462 155.211 189.437 155.221 189.416 155.24C189.399 155.258 189.388 155.283 189.388 155.31C189.388 155.336 189.399 155.361 189.416 155.38C189.437 155.398 189.462 155.408 189.487 155.408Z" fill="#00BC7D"/>
<path d="M244.495 177.296H251.311L262.108 134.677L243.44 134.7L244.495 177.296Z" fill="#00BC7D"/>
<path opacity="0.3" d="M244.495 177.296H251.311L262.108 134.677L243.44 134.7L244.495 177.296Z" fill="white"/>
<path d="M233.082 177.296H244.493V136.138C244.493 135.945 244.455 135.755 244.381 135.577C244.308 135.399 244.199 135.238 244.064 135.102C243.927 134.966 243.765 134.859 243.587 134.785C243.41 134.712 243.22 134.674 243.027 134.675H234.543C234.155 134.675 233.782 134.829 233.508 135.103C233.234 135.377 233.08 135.75 233.08 136.138L233.082 177.296Z" fill="#00BC7D"/>
<path opacity="0.6" d="M233.082 177.296H244.493V136.138C244.493 135.945 244.455 135.755 244.381 135.577C244.308 135.399 244.199 135.238 244.064 135.102C243.927 134.966 243.765 134.859 243.587 134.785C243.41 134.712 243.22 134.674 243.027 134.675H234.543C234.155 134.675 233.782 134.829 233.508 135.103C233.234 135.377 233.08 135.75 233.08 136.138L233.082 177.296Z" fill="white"/>
<path d="M232.793 175.945C232.819 175.944 232.844 175.933 232.862 175.915C232.882 175.896 232.892 175.872 232.892 175.846L233.098 135.884C233.098 135.602 233.209 135.331 233.409 135.13C233.607 134.929 233.876 134.812 234.157 134.807L239.655 134.69C239.667 134.69 239.68 134.687 239.693 134.682C239.705 134.678 239.716 134.67 239.726 134.661C239.733 134.652 239.741 134.641 239.746 134.629C239.751 134.617 239.754 134.604 239.754 134.591C239.754 134.578 239.751 134.565 239.746 134.553C239.741 134.541 239.733 134.53 239.726 134.521C239.716 134.512 239.705 134.505 239.693 134.5C239.68 134.495 239.667 134.492 239.655 134.492L233.965 134.611C233.683 134.618 233.414 134.734 233.217 134.935C233.019 135.137 232.907 135.407 232.905 135.689L232.699 175.843C232.699 175.856 232.702 175.87 232.707 175.882C232.712 175.894 232.717 175.905 232.727 175.915C232.737 175.924 232.748 175.932 232.76 175.937C232.773 175.942 232.786 175.945 232.798 175.945H232.793Z" fill="#00BC7D"/>
<path d="M230.146 152.688C230.146 152.688 231.667 154.97 231.356 155.368C231.044 155.766 229.834 155.414 229.682 155.343C229.53 155.272 228.881 153.763 228.881 153.692C228.881 153.621 230.146 152.688 230.146 152.688Z" fill="#3562FF"/>
<path opacity="0.3" d="M230.146 152.688C230.146 152.688 231.008 153.641 230.701 154.044C230.395 154.447 230.057 155.383 229.898 155.383C229.363 155.383 228.883 153.763 228.883 153.692C228.883 153.621 230.146 152.688 230.146 152.688Z" fill="black"/>
<path d="M229.682 155.343C229.682 155.343 230.483 160.437 227.796 160.062C225.108 159.686 226.804 154.777 227.702 153.411C227.702 153.411 226.287 150.621 226.239 150.114C225.397 150.743 224.403 151.134 223.361 151.248C221.71 151.39 219.304 150.713 217.782 146.176C217.782 146.176 208.867 146.727 207.972 146.633C208.061 146.932 208.073 147.248 208.005 147.552C207.939 147.857 207.8 148.14 207.594 148.375C206.887 149.272 205 152.576 204.716 153.284C204.432 153.991 205.708 156.915 205 157.386C204.293 157.858 201.932 156.96 201.793 154.531C201.653 152.102 204.245 148 204.196 147.386C204.148 146.772 202.536 145.938 202.536 145.938L193.488 146.083C193.488 146.083 191.46 144.394 192.309 143.083C193.159 141.772 193.831 139.604 195.517 139.556H195.824V136.673C195.824 136.673 197.71 137.87 197.994 138.686C198.365 137.974 198.796 137.295 199.282 136.658C199.282 136.658 200.73 137.284 201.8 139.954C202.513 139.874 203.215 139.704 203.885 139.447C204.96 139.023 206.03 139.919 207.381 139.637C208.733 139.356 215.054 139.31 216.847 139.333C218.639 139.356 223.842 138.993 226.518 140.768C228.85 142.32 231.642 146.009 230.919 149.934C230.924 149.886 229.824 153.314 229.682 155.343Z" fill="#3562FF"/>
<path opacity="0.8" d="M192.408 143.212C192.408 143.212 195.867 143.623 194.518 146.08H193.504C193.504 146.08 191.445 144.264 192.408 143.212Z" fill="white"/>
<path opacity="0.3" d="M218.883 148.567C218.883 148.567 219.59 147.434 219.966 148.06C219.966 148.06 220.891 148.06 220.643 148.628C220.643 148.628 220.668 149.663 220.067 150.15L218.883 148.567Z" fill="black"/>
<path opacity="0.3" d="M201.466 144.548C201.466 144.548 202.173 143.415 202.548 144.026C202.548 144.026 203.474 144.026 203.225 144.597C203.225 144.597 203.251 145.629 202.65 146.118L201.466 144.548Z" fill="black"/>
<path opacity="0.3" d="M225.011 143.694C225.519 144.138 226.005 144.594 226.469 145.071C226.944 145.54 227.38 146.044 227.775 146.579C227.867 146.714 227.95 146.852 228.029 146.995C228.067 147.066 228.115 147.135 228.146 147.208L228.244 147.431C228.343 147.741 228.402 148.064 228.412 148.39C228.427 148.555 228.412 148.719 228.43 148.897C228.447 149.074 228.43 149.229 228.43 149.404C228.43 149.579 228.414 149.736 228.399 149.911C228.384 150.086 228.366 150.243 228.348 150.418C228.28 151.079 228.158 151.733 227.983 152.373C227.895 152.677 227.785 152.973 227.654 153.261L227.55 153.481C227.509 153.555 227.471 153.631 227.433 153.707C227.359 153.856 227.288 154.008 227.22 154.163C226.939 154.775 226.708 155.408 226.523 156.055C226.437 156.381 226.371 156.712 226.33 157.046C226.284 157.383 226.284 157.724 226.33 158.061C226.307 157.728 226.327 157.393 226.386 157.064C226.442 156.736 226.523 156.411 226.622 156.093C226.824 155.458 227.073 154.839 227.367 154.242C227.441 154.092 227.514 153.943 227.593 153.796L227.709 153.575L227.824 153.344C227.958 153.034 228.072 152.714 228.163 152.389C228.346 151.738 228.475 151.074 228.551 150.403C228.569 150.236 228.587 150.068 228.597 149.896C228.607 149.724 228.62 149.559 228.625 149.389C228.63 149.219 228.625 149.052 228.625 148.882C228.625 148.712 228.625 148.542 228.602 148.375C228.587 148.03 228.523 147.688 228.414 147.36C228.277 147.046 228.102 146.749 227.892 146.478C227.048 145.437 226.082 144.502 225.011 143.694Z" fill="black"/>
<path opacity="0.3" d="M217.136 144.515C217.524 145.53 217.919 146.544 218.322 147.558C218.52 148.071 218.776 148.56 219.083 149.016C219.39 149.476 219.752 149.894 220.166 150.261C220.584 150.63 221.063 150.92 221.586 151.116C222.111 151.303 222.671 151.379 223.226 151.336C223.777 151.289 224.314 151.152 224.821 150.931C225.321 150.709 225.795 150.436 226.236 150.114C226 150.251 225.767 150.388 225.524 150.507C225.283 150.628 225.034 150.735 224.781 150.829C224.279 151.02 223.751 151.133 223.216 151.164C222.684 151.187 222.154 151.101 221.657 150.91C221.16 150.72 220.701 150.441 220.303 150.089C219.902 149.735 219.547 149.334 219.243 148.894C218.933 148.454 218.672 147.983 218.459 147.49C218.028 146.497 217.587 145.506 217.136 144.515Z" fill="black"/>
<path opacity="0.3" d="M206.874 143.598C207.019 144.117 207.181 144.627 207.351 145.137C207.521 145.646 207.701 146.151 207.883 146.658C207.896 146.68 207.906 146.703 207.914 146.727C207.924 146.756 207.932 146.785 207.937 146.815C207.949 146.877 207.957 146.94 207.957 147.003C207.957 147.134 207.944 147.265 207.914 147.393C207.855 147.657 207.764 147.913 207.642 148.154C207.391 148.648 207.102 149.12 206.775 149.567C206.971 149.366 207.156 149.154 207.325 148.933C207.498 148.711 207.655 148.476 207.79 148.23C207.932 147.981 208.038 147.714 208.112 147.437C208.147 147.294 208.165 147.148 208.165 147C208.165 146.925 208.157 146.849 208.145 146.775C208.137 146.736 208.127 146.698 208.114 146.661C208.099 146.618 208.081 146.578 208.058 146.539V146.562C207.871 146.055 207.683 145.548 207.483 145.061C207.282 144.574 207.115 144.087 206.874 143.598Z" fill="black"/>
<path d="M192.931 143.172C192.956 143.177 192.981 143.189 193.002 143.207C193.022 143.225 193.037 143.248 193.047 143.273C193.055 143.299 193.057 143.327 193.052 143.353C193.047 143.38 193.035 143.405 193.017 143.425C192.763 143.701 192.317 144.138 192.142 144.001C192.076 143.677 192.14 143.339 192.322 143.062L192.931 143.172Z" fill="black"/>
<path d="M196.884 142.413C196.742 142.377 196.597 142.353 196.453 142.34C196.181 142.315 195.907 142.371 195.667 142.5L195.621 142.522L195.575 142.55L195.484 142.606C195.421 142.644 195.365 142.692 195.296 142.73C195.329 142.661 195.367 142.595 195.413 142.533C195.558 142.339 195.768 142.205 196.006 142.157C196.166 142.125 196.331 142.131 196.486 142.178C196.635 142.221 196.772 142.302 196.884 142.413Z" fill="black"/>
<path opacity="0.8" d="M217.136 144.515C217.136 144.515 211.593 143.8 207.833 145.915L208.086 146.579L217.798 146.161L217.136 144.515Z" fill="white"/>
<path opacity="0.4" d="M195.837 139.53V136.647C195.837 136.647 197.723 137.844 198.007 138.661L197.426 139.675L195.837 139.53Z" fill="black"/>
<path opacity="0.4" d="M199.227 137.152L197.705 139.687C198.192 139.867 198.707 139.953 199.227 139.941C199.227 139.941 199.744 139.102 199.227 137.152Z" fill="white"/>
<path opacity="0.3" d="M228.161 147.208C228.161 147.208 227.968 149.881 227.058 152.097L227.653 153.261C227.653 153.261 229.099 148.95 228.161 147.208Z" fill="black"/>
<path opacity="0.3" d="M207.277 144.515C207.277 144.515 207.878 146.255 210.921 146.508L208.132 146.678L207.277 144.515Z" fill="black"/>
<path opacity="0.3" d="M217.004 143.973C217.004 143.973 216.75 146.001 215.229 146.255L217.793 146.161L217.004 143.973Z" fill="black"/>
<path opacity="0.3" d="M202.551 145.923L201.03 143.973C201.03 143.973 201.078 145.532 199.762 146.001L202.551 145.923Z" fill="black"/>
<path opacity="0.3" d="M218.224 139.272C218.224 139.272 219.091 140.519 217.795 140.448C217.795 140.448 216.781 141.181 216.233 140.646C216.233 140.646 214.712 140.043 214.669 139.272H218.224Z" fill="black"/>
<path opacity="0.3" d="M209.737 143.314C210.594 143.073 211.573 143.58 211.235 144.115C211.081 144.318 210.86 144.46 210.612 144.515C209.443 144.878 207.544 143.927 209.737 143.314Z" fill="black"/>
<path opacity="0.3" d="M204.209 139.292C204.922 139.054 205.731 139.561 205.457 140.096C205.343 140.287 205.163 140.43 204.95 140.497C203.963 140.859 202.384 139.906 204.209 139.292Z" fill="black"/>
<path opacity="0.3" d="M225.782 144.386C225.782 144.386 226.708 143.506 227.768 144.893C227.768 144.893 228.734 146.108 227.441 145.907L225.782 144.386Z" fill="black"/>
<path opacity="0.3" d="M230.202 152.789C230.202 152.789 228.977 152.432 229.634 150.824C229.634 150.824 230.199 149.376 230.686 150.588L230.202 152.789Z" fill="black"/>
<path opacity="0.3" d="M229.733 157.957C229.733 157.957 225.361 157.054 226.824 159.569C226.824 159.569 228.921 161.709 229.733 157.957Z" fill="black"/>
<path opacity="0.3" d="M202.551 151.273C202.551 151.273 204.744 151.658 202.183 154.592L201.808 154.516C201.788 153.391 202.044 152.278 202.551 151.273Z" fill="black"/>
<path d="M200.416 145.958L201.443 145.94C202.51 144.077 202.921 141.909 202.612 139.784C202.345 139.844 202.077 139.888 201.805 139.918C201.805 139.918 202.35 143.734 200.416 145.958Z" fill="#15247C"/>
<path d="M91.8556 42.1802L92.4464 32.342L97.576 39.2389L103.126 31.9363L104.671 40.9225L112.062 40.6588L106.512 47.9285L114.144 53.7756L104.572 50.175L103.177 59.2653L96.8787 53.0859L89.2287 58.4386L90.8008 50.5376L81.736 49.2394L88.8534 45.1013L84.7178 38.0624L91.8556 42.1802Z" fill="white"/>
<path d="M103.261 59.5188L96.8661 53.2432L89.0487 58.7125L90.6563 50.6391L81.3708 49.3003L88.6861 45.048L84.3756 37.7175L91.7289 41.9647L92.3298 31.9896L97.576 39.0361L103.198 31.6396L104.772 40.7983L112.316 40.527L106.681 47.9057L114.872 54.1814L104.676 50.3424L103.261 59.5188ZM96.8914 52.9262L103.094 59.0117L104.473 50.0077L113.416 53.3725L106.339 47.9513L111.808 40.7882L104.567 41.0417L103.045 32.2254L97.576 39.4418L92.5504 32.6818L91.9672 42.3831L85.0576 38.3971L89.0208 45.1419L82.1087 49.1684L90.953 50.4362L89.4062 58.175L96.8914 52.9262Z" fill="#15247C"/>
<path d="M97.3095 48.7112C97.0167 48.7112 96.7665 48.8042 96.5594 48.9897C96.3525 49.1751 96.2484 49.3996 96.2484 49.6642C96.2484 49.9625 96.3531 50.1965 96.5622 50.3668C96.7719 50.5371 97.0161 50.623 97.2952 50.623C97.579 50.623 97.8266 50.5383 98.0384 50.3703C98.2501 50.2016 98.3559 49.9665 98.3559 49.6641C98.3559 49.3994 98.2547 49.1749 98.0523 48.9896C97.8498 48.8043 97.6025 48.7112 97.3091 48.7112" fill="#3562FF"/>
<path d="M100.301 42.1502C100.031 41.7413 99.6464 41.4143 99.1557 41.1773C98.6678 40.9425 98.0995 40.8235 97.4661 40.8235C96.7842 40.8235 96.1773 40.9661 95.663 41.2474C95.1481 41.5291 94.7503 41.8906 94.4806 42.3217C94.2096 42.755 94.0718 43.1907 94.0718 43.6172C94.0718 43.8446 94.1666 44.0569 94.3526 44.2478C94.5395 44.44 94.772 44.5371 95.0436 44.5371C95.507 44.5371 95.8228 44.2652 95.9836 43.7319C96.13 43.2908 96.3106 42.9544 96.5194 42.7314C96.7158 42.5214 97.0345 42.4149 97.4661 42.4149C97.8384 42.4149 98.1322 42.5193 98.3653 42.7343C98.5948 42.9465 98.7066 43.1993 98.7066 43.5073C98.7066 43.6628 98.6703 43.8024 98.5974 43.9345C98.52 44.0731 98.4235 44.2004 98.3106 44.3137C98.1913 44.4332 97.9944 44.6126 97.7252 44.8484C97.4117 45.1233 97.1588 45.3639 96.9746 45.5638C96.7822 45.7715 96.6262 46.0157 96.5097 46.2893C96.3933 46.5647 96.3341 46.8934 96.3341 47.2668C96.3341 47.5853 96.423 47.832 96.5985 48C96.7722 48.1662 96.9885 48.2509 97.2418 48.2509C97.726 48.2509 98.0302 47.9863 98.1208 47.4911C98.1666 47.2853 98.2014 47.1415 98.2245 47.0597C98.2455 46.9853 98.2758 46.909 98.3148 46.8328C98.3526 46.7585 98.4125 46.6745 98.4934 46.5826C98.5776 46.4854 98.6914 46.3715 98.8308 46.2441C99.3526 45.7776 99.7208 45.4401 99.9249 45.2403C100.136 45.0344 100.319 44.7867 100.471 44.5046C100.627 44.216 100.706 43.8758 100.706 43.4948C100.706 43.0127 100.57 42.5599 100.3 42.1496" fill="#3562FF"/>
</svg>
