<svg width="24" height="24" viewBox="0 0 24 24" fill="none" xmlns="http://www.w3.org/2000/svg">
<path d="M8.99976 22.0004C9.55204 22.0004 9.99975 21.5527 9.99975 21.0004C9.99975 20.4481 9.55204 20.0004 8.99976 20.0004C8.44747 20.0004 7.99976 20.4481 7.99976 21.0004C7.99976 21.5527 8.44747 22.0004 8.99976 22.0004Z" stroke="black" stroke-width="1.5" stroke-linecap="round" stroke-linejoin="round"/>
<path d="M20.0002 22.0004C20.5525 22.0004 21.0002 21.5527 21.0002 21.0004C21.0002 20.4481 20.5525 20.0004 20.0002 20.0004C19.448 20.0004 19.0002 20.4481 19.0002 21.0004C19.0002 21.5527 19.448 22.0004 20.0002 22.0004Z" stroke="black" stroke-width="1.5" stroke-linecap="round" stroke-linejoin="round"/>
<path d="M1.00024 0.999634H5.00024L7.68024 14.3896C7.77169 14.85 8.02215 15.2636 8.38779 15.5579C8.75343 15.8523 9.21094 16.0086 9.68024 15.9996H19.4002C19.8695 16.0086 20.3271 15.8523 20.6927 15.5579C21.0583 15.2636 21.3088 14.85 21.4002 14.3896L23.0002 5.99963H6.00024" stroke="black" stroke-width="1.5" stroke-linecap="round" stroke-linejoin="round"/>
</svg>
