<svg width="30" height="30" viewBox="0 0 30 30" fill="none" xmlns="http://www.w3.org/2000/svg">
<rect width="30" height="30" rx="5" fill="#ABD7FF"/>
<path d="M11.5385 20.75V10.5682H15.2672C15.9898 10.5682 16.588 10.6875 17.062 10.9261C17.5359 11.1615 17.8906 11.4813 18.1259 11.8857C18.3612 12.2867 18.4789 12.7391 18.4789 13.2429C18.4789 13.6671 18.401 14.0251 18.2452 14.3168C18.0894 14.6051 17.8806 14.8371 17.6188 15.0128C17.3603 15.1851 17.0752 15.3111 16.7637 15.3906V15.4901C17.1017 15.5066 17.4315 15.616 17.753 15.8182C18.0778 16.017 18.3463 16.3004 18.5584 16.6683C18.7705 17.0362 18.8766 17.4837 18.8766 18.0107C18.8766 18.531 18.754 18.9983 18.5087 19.4126C18.2667 19.8236 17.8922 20.1501 17.3851 20.392C16.878 20.6307 16.2301 20.75 15.4412 20.75H11.5385ZM13.0748 19.4325H15.2921C16.0279 19.4325 16.5549 19.29 16.873 19.005C17.1912 18.7199 17.3503 18.3636 17.3503 17.9361C17.3503 17.6146 17.2691 17.3196 17.1067 17.0511C16.9443 16.7827 16.7123 16.5689 16.4107 16.4098C16.1124 16.2507 15.7578 16.1712 15.3468 16.1712H13.0748V19.4325ZM13.0748 14.973H15.133C15.4777 14.973 15.7876 14.9067 16.0627 14.7741C16.3411 14.6416 16.5615 14.456 16.7239 14.2173C16.8896 13.9754 16.9725 13.6903 16.9725 13.3622C16.9725 12.9413 16.825 12.5883 16.53 12.3033C16.235 12.0182 15.7826 11.8757 15.1728 11.8757H13.0748V14.973Z" fill="#5B6CFF"/>
</svg>
