<svg width="100" height="100" viewBox="0 0 100 100" fill="none" xmlns="http://www.w3.org/2000/svg">
<path d="M65.2806 34.6306V14.6306C65.2892 10.7057 66.4355 6.86747 68.5806 3.58061C59.4942 -0.0564593 49.5402 -0.946809 39.9526 1.01994C30.3649 2.98668 21.5653 7.72403 14.6447 14.6447C7.72403 21.5653 2.98668 30.3649 1.01994 39.9526C-0.94681 49.5402 -0.0564593 59.4942 3.58061 68.5806C6.86747 66.4355 10.7057 65.2892 14.6306 65.2806H34.6306V85.2806C34.622 89.2055 33.4757 93.0437 31.3306 96.3306C40.417 99.9677 50.371 100.858 59.9587 98.8913C69.5463 96.9245 78.3459 92.1872 85.2665 85.2665C92.1872 78.3459 96.9246 69.5463 98.8913 59.9587C100.858 50.371 99.9677 40.417 96.3306 31.3306C93.0438 33.4757 89.2055 34.622 85.2806 34.6306H65.2806ZM44.9306 19.9806H52.4306V27.4806H59.9306V34.9806H44.9306V19.9806ZM27.4306 59.9806V52.4806H19.9306V44.9806H34.9306V59.9806H27.4306ZM69.3806 69.4806C65.4429 73.3467 60.4331 75.9387 55.0026 76.9196C49.572 77.9005 43.972 77.2249 38.9306 74.9806L74.9306 38.9806C77.1686 44.0268 77.8361 49.6298 76.8462 55.0605C75.8564 60.4913 73.255 65.4985 69.3806 69.4306V69.4806ZM14.3806 95.3806C11.7284 95.3806 9.1849 94.327 7.30954 92.4517C5.43418 90.5763 4.38061 88.0328 4.38061 85.3806C4.38061 82.7284 5.43418 80.1849 7.30954 78.3095C9.1849 76.4342 11.7284 75.3806 14.3806 75.3806H24.3806V85.3806C24.3681 87.9898 23.3362 90.4908 21.5053 92.3498C19.6743 94.2087 17.1893 95.2785 14.5806 95.3306L14.3806 95.3806ZM85.2806 4.63061C87.9328 4.63061 90.4763 5.68418 92.3517 7.55954C94.2271 9.4349 95.2806 11.9784 95.2806 14.6306C95.2806 17.2828 94.2271 19.8263 92.3517 21.7017C90.4763 23.577 87.9328 24.6306 85.2806 24.6306H75.2806V14.6306C75.2806 11.9784 76.3342 9.4349 78.2095 7.55954C80.0849 5.68418 82.6284 4.63061 85.2806 4.63061Z" fill="#023047"/>
</svg>
