<svg width="24" height="24" viewBox="0 0 24 24" fill="none" xmlns="http://www.w3.org/2000/svg">
<path d="M24 12C24 18.6273 18.6273 24 12 24C5.37333 24 0 18.6273 0 12C0 5.37333 5.37333 0 12 0C18.6273 0 24 5.37333 24 12Z" fill="#FFCC4D"/>
<path d="M18.9713 11.8645C18.9313 11.7745 17.972 9.66653 16 9.66653C14.0287 9.66653 13.0687 11.7745 13.0287 11.8645C12.9673 12.0025 13.0073 12.1639 13.1253 12.2585C13.242 12.3532 13.4093 12.3565 13.532 12.2679C13.54 12.2619 14.3733 11.6665 16 11.6665C17.6173 11.6665 18.4493 12.2539 18.468 12.2672C18.5267 12.3112 18.5973 12.3332 18.6667 12.3332C18.74 12.3332 18.814 12.3085 18.8747 12.2605C18.9927 12.1659 19.0333 12.0032 18.9713 11.8645ZM10.9713 11.8645C10.9313 11.7745 9.972 9.66653 8 9.66653C6.02866 9.66653 5.06866 11.7745 5.02866 11.8645C4.96733 12.0025 5.00733 12.1639 5.12466 12.2585C5.242 12.3532 5.40933 12.3565 5.53133 12.2679C5.54 12.2619 6.37266 11.6665 8 11.6665C9.61733 11.6665 10.4493 12.2539 10.468 12.2672C10.5267 12.3112 10.5973 12.3332 10.6667 12.3332C10.74 12.3332 10.814 12.3085 10.8747 12.2605C10.9933 12.1659 11.0327 12.0032 10.9713 11.8645ZM20.6667 10.6665C20.4027 10.6665 20.152 10.5079 20.0473 10.2472C18.862 7.28386 15.8987 6.65986 15.8687 6.65319C15.508 6.58119 15.2733 6.22986 15.346 5.86853C15.418 5.50719 15.7693 5.27453 16.1307 5.34586C16.2813 5.37586 19.8347 6.12453 21.2853 9.75119C21.422 10.0932 21.2553 10.4812 20.9133 10.6179C20.8333 10.6512 20.7493 10.6665 20.6667 10.6665ZM3.33333 10.6665C3.25066 10.6665 3.16733 10.6512 3.086 10.6185C2.744 10.4819 2.578 10.0939 2.71466 9.75186C4.16533 6.12519 7.71866 5.37653 7.86933 5.34653C8.23133 5.27586 8.58133 5.50853 8.654 5.86919C8.726 6.22919 8.49266 6.57986 8.13333 6.65319C8.01 6.67853 5.12933 7.30653 3.95266 10.2472C3.848 10.5079 3.59733 10.6665 3.33333 10.6665ZM12 14.6665C9.58466 14.6665 7.982 14.3852 6 13.9999C5.54733 13.9125 4.66666 13.9999 4.66666 15.3332C4.66666 17.9999 7.73 21.3332 12 21.3332C16.2693 21.3332 19.3333 17.9999 19.3333 15.3332C19.3333 13.9999 18.4527 13.9119 18 13.9999C16.018 14.3852 14.4153 14.6665 12 14.6665Z" fill="#664500"/>
<path d="M6 15.333C6 15.333 8 15.9997 12 15.9997C16 15.9997 18 15.333 18 15.333C18 15.333 16.6667 17.9997 12 17.9997C7.33333 17.9997 6 15.333 6 15.333Z" fill="white"/>
<path d="M7.23132 18.8191C6.77799 20.6038 4.96466 21.6824 3.17999 21.2291C1.39599 20.7764 0.316657 18.9631 0.769323 17.1784C1.22199 15.3938 4.99399 11.3731 5.64066 11.5371C6.28732 11.7018 7.68399 17.0351 7.23132 18.8191ZM16.7553 18.8191C17.2087 20.6038 19.022 21.6824 20.8067 21.2291C22.5913 20.7764 23.6707 18.9631 23.2173 17.1784C22.764 15.3938 18.992 11.3731 18.3453 11.5371C17.7 11.7018 16.3027 17.0351 16.7553 18.8191Z" fill="#5DADEC"/>
</svg>
