<svg width="9" height="9" viewBox="0 0 9 9" fill="none" xmlns="http://www.w3.org/2000/svg">
<path d="M7.81529 1.72846C7.62375 1.53683 7.39634 1.38483 7.14605 1.28111C6.89575 1.1774 6.62747 1.12402 6.35654 1.12402C6.08561 1.12402 5.81733 1.1774 5.56703 1.28111C5.31673 1.38483 5.08932 1.53683 4.89779 1.72846L4.50029 2.12596L4.10279 1.72846C3.7159 1.34157 3.19118 1.12422 2.64404 1.12422C2.0969 1.12422 1.57217 1.34157 1.18529 1.72846C0.798404 2.11534 0.581055 2.64007 0.581055 3.18721C0.581055 3.73435 0.798404 4.25907 1.18529 4.64596L1.58279 5.04346L4.50029 7.96096L7.41779 5.04346L7.81529 4.64596C8.00691 4.45442 8.15892 4.22701 8.26263 3.97672C8.36634 3.72642 8.41972 3.45814 8.41972 3.18721C8.41972 2.91628 8.36634 2.648 8.26263 2.3977C8.15892 2.1474 8.00691 1.91999 7.81529 1.72846Z" fill="#626262" stroke="#626262" stroke-linecap="round" stroke-linejoin="round"/>
<path d="M1.5 4.875H2.625L3.6375 3.375L4.70625 6L5.4375 4.875H7.5H7.875L7.6875 5.0625H7.3125H5.535L4.9125 6L4.66875 6.375L3.6 3.75L2.85 4.875L2.71875 5.0625H1.6875H1.3125L1.125 4.875H1.5Z" fill="white"/>
</svg>
