<svg xmlns="http://www.w3.org/2000/svg" xmlns:xlink="http://www.w3.org/1999/xlink" viewBox="0 0 120 115"><defs><style>.cls-1{fill:url(#linear-gradient);}.cls-2{fill:#16a1cd;}.cls-3,.cls-4{fill:#fff;}.cls-4{opacity:0.2;}.cls-5{fill:none;}</style><linearGradient id="linear-gradient" x1="60" y1="17.1" x2="60" y2="105.1" gradientUnits="userSpaceOnUse"><stop offset="0.24" stop-color="#16a1cd"/><stop offset="0.9" stop-color="#1d4195"/></linearGradient></defs><title>Asset 6@1x</title><g id="Layer_2" data-name="Layer 2"><g id="Layer_1-2" data-name="Layer 1"><path class="cls-1" d="M114.34,43.43c-14.17-5.18-32.07-1.72-45.83,10.29C57.9,63,52,75.35,51.34,87.28c-3-32.06,8.42-52,8.55-52.2l-2.25-1.32L55.4,32.43c-.53.89-10.4,18-9.79,46.43A32.17,32.17,0,0,0,34.63,64c-9.25-7.06-20.78-8.51-29.57-4.62-1.42,9.51,3,20.24,12.28,27.29s20.45,8.45,29.19,4.77c.47,3.75,1.12,7.66,2,11.71h5.51c-.3-1.38-1-3.84-1.23-5.18,14.05,4.82,31.58,1.3,45.12-10.52C111.7,75.43,117.55,58.17,114.34,43.43Z"/><circle class="cls-2" cx="59.21" cy="30.11" r="18.25"/><path class="cls-3" d="M64.87,25.61l-2.29-.43a4.4,4.4,0,0,1,.35,2l2.12.4-.88,1.81-1.59-.29a3.91,3.91,0,0,1-1.88,2.39,6,6,0,0,1-3.47.49l3.83,6.64,0,.14-3-.56L53.83,31l.29-1.61,2.66.49a3.18,3.18,0,0,0,1.95-.14,2.34,2.34,0,0,0,1.16-1.12l-5.65-1.05.89-1.81,5.08.94c-.14-1.15-1-1.86-2.49-2.14L54.9,24l1-2,9.91,1.84Z"/><path class="cls-3" d="M58,91.49s19.57-5.13,45-37.81c0,0-20.7,26.15-45,37.81Z"/><path class="cls-3" d="M43.68,86.16S30.58,84.3,11.59,65.27c0,0,15.4,15.21,32.09,20.89Z"/><path class="cls-4" d="M60.75,43.23a11.89,11.89,0,0,1-13.07-9.62c0,.27,0,.54,0,.82a11.24,11.24,0,0,0,20.63,4.75A11.89,11.89,0,0,1,60.75,43.23Z"/><rect class="cls-5" width="120" height="115"/></g></g></svg>