<svg width="7" height="8" viewBox="0 0 7 8" fill="none" xmlns="http://www.w3.org/2000/svg">
<path d="M6.5 4.20711C6.5 4.10161 6.47564 4.00261 6.43483 3.91264C6.1626 3.00531 4.88809 3.07159 3.07521 3.02734C2.77211 3.02 2.94548 2.65023 3.05186 1.83854C3.12109 1.31064 2.7916 0.5 2.23779 0.5C1.32465 0.5 2.20307 1.24415 1.3957 3.08438C0.964301 4.06763 0 3.51686 0 4.50452V6.75269C0 7.13714 0.036542 7.5067 0.559904 7.56752C1.06723 7.62646 0.953136 8 1.68499 8H5.34812C5.72125 8 6.02475 7.68623 6.02475 7.30074C6.02475 7.14092 5.97055 6.99536 5.88305 6.87749C6.09012 6.75773 6.23223 6.53163 6.23223 6.26946C6.23223 6.11006 6.17823 5.9645 6.09093 5.84684C6.29861 5.72729 6.44113 5.50098 6.44113 5.23839C6.44113 5.04774 6.36642 4.87491 6.24603 4.74844C6.39971 4.62029 6.5 4.42649 6.5 4.20711Z" fill="#FFDB5E"/>
</svg>
