<svg width="73" height="20" viewBox="0 0 73 20" fill="none" xmlns="http://www.w3.org/2000/svg">
<path d="M41.6335 4.81818V15H40.4006V6.1108H40.3409L37.8551 7.76136V6.50852L40.4006 4.81818H41.6335ZM45.7301 13.608L45.6506 14.1449C45.5942 14.5227 45.508 14.9271 45.392 15.358C45.2794 15.7888 45.1617 16.1948 45.0391 16.576C44.9164 16.9571 44.8153 17.2604 44.7358 17.4858H43.8409C43.884 17.2737 43.9403 16.9936 44.0099 16.6456C44.0795 16.2976 44.1491 15.9081 44.2188 15.4773C44.2917 15.0497 44.3513 14.6122 44.3977 14.1648L44.4574 13.608H45.7301ZM47.8841 15V14.1051L51.2449 10.4261C51.6393 9.99526 51.9641 9.62074 52.2193 9.30256C52.4745 8.98106 52.6634 8.67945 52.786 8.39773C52.912 8.11269 52.975 7.81439 52.975 7.50284C52.975 7.14489 52.8888 6.83499 52.7164 6.57315C52.5474 6.31132 52.3154 6.10914 52.0204 5.96662C51.7254 5.8241 51.394 5.75284 51.0261 5.75284C50.635 5.75284 50.2936 5.83404 50.002 5.99645C49.7136 6.15554 49.4899 6.37926 49.3308 6.66761C49.175 6.95597 49.0971 7.29403 49.0971 7.68182H47.9238C47.9238 7.08523 48.0614 6.56155 48.3365 6.1108C48.6116 5.66004 48.9861 5.30871 49.46 5.05682C49.9373 4.80492 50.4726 4.67898 51.0659 4.67898C51.6625 4.67898 52.1911 4.80492 52.6518 5.05682C53.1125 5.30871 53.4738 5.64844 53.7356 6.07599C53.9975 6.50355 54.1284 6.97917 54.1284 7.50284C54.1284 7.87737 54.0604 8.24361 53.9245 8.60156C53.792 8.9562 53.56 9.35227 53.2285 9.78977C52.9004 10.224 52.4447 10.7543 51.8613 11.3807L49.5744 13.8267V13.9062H54.3074V15H47.8841ZM59.801 15.1392C59.1447 15.1392 58.5597 15.0265 58.046 14.8011C57.5356 14.5758 57.1296 14.2625 56.8279 13.8615C56.5297 13.4571 56.3672 12.9882 56.3407 12.4545H57.5936C57.6201 12.7827 57.7328 13.0661 57.9316 13.3047C58.1305 13.54 58.3907 13.7223 58.7122 13.8516C59.0337 13.9808 59.39 14.0455 59.7811 14.0455C60.2186 14.0455 60.6064 13.9692 60.9444 13.8168C61.2825 13.6643 61.5476 13.4522 61.7399 13.1804C61.9321 12.9086 62.0282 12.5938 62.0282 12.2358C62.0282 11.8613 61.9354 11.5315 61.7498 11.2464C61.5642 10.9581 61.2924 10.7327 60.9345 10.5703C60.5765 10.4079 60.139 10.3267 59.622 10.3267H58.8066V9.23295H59.622C60.0263 9.23295 60.381 9.16004 60.6859 9.0142C60.9941 8.86837 61.2344 8.66288 61.4068 8.39773C61.5824 8.13258 61.6703 7.82102 61.6703 7.46307C61.6703 7.11837 61.594 6.81842 61.4416 6.56321C61.2891 6.308 61.0737 6.10914 60.7953 5.96662C60.5202 5.8241 60.1954 5.75284 59.8208 5.75284C59.4695 5.75284 59.1381 5.81747 58.8265 5.94673C58.5183 6.07268 58.2664 6.25663 58.0708 6.49858C57.8753 6.73722 57.7692 7.02557 57.7527 7.36364H56.5595C56.5794 6.83002 56.7401 6.36269 57.0417 5.96165C57.3433 5.55729 57.7377 5.24242 58.225 5.01705C58.7155 4.79167 59.2541 4.67898 59.8407 4.67898C60.4705 4.67898 61.0107 4.80658 61.4615 5.06179C61.9122 5.31368 62.2586 5.64678 62.5005 6.06108C62.7425 6.47538 62.8635 6.92282 62.8635 7.40341C62.8635 7.9768 62.7127 8.46567 62.411 8.87003C62.1127 9.27438 61.7067 9.55445 61.193 9.71023V9.78977C61.836 9.89583 62.3381 10.1693 62.6994 10.6101C63.0607 11.0476 63.2413 11.5895 63.2413 12.2358C63.2413 12.7893 63.0905 13.2865 62.7889 13.7273C62.4906 14.1648 62.0829 14.5095 61.5659 14.7614C61.0488 15.0133 60.4605 15.1392 59.801 15.1392ZM68.4565 15.1392C67.8732 15.1392 67.3478 15.0232 66.8805 14.7912C66.4132 14.5592 66.0386 14.241 65.7569 13.8366C65.4752 13.4323 65.3211 12.9716 65.2946 12.4545H66.4877C66.5342 12.9152 66.743 13.2964 67.1142 13.598C67.4887 13.8963 67.9361 14.0455 68.4565 14.0455C68.8741 14.0455 69.2453 13.9477 69.5701 13.7521C69.8983 13.5566 70.1551 13.2881 70.3407 12.9467C70.5297 12.602 70.6241 12.2126 70.6241 11.7784C70.6241 11.3343 70.5263 10.9382 70.3308 10.5902C70.1386 10.2389 69.8734 9.96212 69.5353 9.75994C69.1973 9.55776 68.8111 9.45502 68.377 9.4517C68.0654 9.44839 67.7456 9.49645 67.4174 9.59588C67.0893 9.692 66.8192 9.81629 66.6071 9.96875L65.4537 9.82955L66.0701 4.81818H71.3599V5.91193H67.1042L66.7463 8.91477H66.8059C67.0147 8.74905 67.2766 8.61151 67.5914 8.50213C67.9063 8.39276 68.2344 8.33807 68.5758 8.33807C69.1989 8.33807 69.7541 8.48722 70.2413 8.78551C70.7318 9.08049 71.1163 9.48485 71.3947 9.99858C71.6764 10.5123 71.8173 11.099 71.8173 11.7585C71.8173 12.4081 71.6715 12.9882 71.3798 13.4986C71.0914 14.0057 70.6937 14.4067 70.1866 14.7017C69.6795 14.9934 69.1028 15.1392 68.4565 15.1392Z" fill="#626262"/>
<path d="M35 9.5C35 13.6421 31.6421 17 27.5 17C23.3583 17 20 13.6421 20 9.5C20 5.35833 23.3583 2 27.5 2C31.6421 2 35 5.35833 35 9.5Z" fill="#FFCC4D"/>
<path d="M31.8571 9.41521C31.8321 9.35896 31.2325 8.04146 30 8.04146C28.7679 8.04146 28.1679 9.35896 28.1429 9.41521C28.1046 9.50146 28.1296 9.60229 28.2033 9.66146C28.2762 9.72062 28.3808 9.72271 28.4575 9.66729C28.4625 9.66354 28.9833 9.29146 30 9.29146C31.0108 9.29146 31.5308 9.65854 31.5425 9.66687C31.5792 9.69437 31.6233 9.70812 31.6667 9.70812C31.7125 9.70812 31.7587 9.69271 31.7967 9.66271C31.8704 9.60354 31.8958 9.50187 31.8571 9.41521ZM26.8571 9.41521C26.8321 9.35896 26.2325 8.04146 25 8.04146C23.7679 8.04146 23.1679 9.35896 23.1429 9.41521C23.1046 9.50146 23.1296 9.60229 23.2029 9.66146C23.2762 9.72062 23.3808 9.72271 23.4571 9.66729C23.4625 9.66354 23.9829 9.29146 25 9.29146C26.0108 9.29146 26.5308 9.65854 26.5425 9.66687C26.5792 9.69437 26.6233 9.70812 26.6667 9.70812C26.7125 9.70812 26.7587 9.69271 26.7967 9.66271C26.8708 9.60354 26.8954 9.50187 26.8571 9.41521ZM32.9167 8.66646C32.7517 8.66646 32.595 8.56729 32.5296 8.40437C31.7887 6.55229 29.9367 6.16229 29.9179 6.15812C29.6925 6.11312 29.5458 5.89354 29.5912 5.66771C29.6362 5.44187 29.8558 5.29646 30.0817 5.34104C30.1758 5.35979 32.3967 5.82771 33.3033 8.09437C33.3887 8.30812 33.2846 8.55062 33.0708 8.63604C33.0208 8.65687 32.9683 8.66646 32.9167 8.66646ZM22.0833 8.66646C22.0317 8.66646 21.9796 8.65687 21.9287 8.63646C21.715 8.55104 21.6112 8.30854 21.6967 8.09479C22.6033 5.82812 24.8242 5.36021 24.9183 5.34146C25.1446 5.29729 25.3633 5.44271 25.4087 5.66812C25.4537 5.89312 25.3079 6.11229 25.0833 6.15812C25.0062 6.17396 23.2058 6.56646 22.4704 8.40437C22.405 8.56729 22.2483 8.66646 22.0833 8.66646ZM27.5 11.1665C25.9904 11.1665 24.9887 10.9906 23.75 10.7498C23.4671 10.6952 22.9167 10.7498 22.9167 11.5831C22.9167 13.2498 24.8312 15.3331 27.5 15.3331C30.1683 15.3331 32.0833 13.2498 32.0833 11.5831C32.0833 10.7498 31.5329 10.6948 31.25 10.7498C30.0112 10.9906 29.0096 11.1665 27.5 11.1665Z" fill="#664500"/>
<path d="M23.75 11.583C23.75 11.583 25 11.9997 27.5 11.9997C30 11.9997 31.25 11.583 31.25 11.583C31.25 11.583 30.4167 13.2497 27.5 13.2497C24.5833 13.2497 23.75 11.583 23.75 11.583Z" fill="white"/>
<path d="M24.5196 13.7623C24.2362 14.8777 23.1029 15.5519 21.9875 15.2686C20.8725 14.9856 20.1979 13.8523 20.4808 12.7369C20.7637 11.6215 23.1212 9.10855 23.5254 9.21105C23.9296 9.31397 24.8025 12.6473 24.5196 13.7623ZM30.4721 13.7623C30.7554 14.8777 31.8887 15.5519 33.0042 15.2686C34.1196 14.9856 34.7942 13.8523 34.5108 12.7369C34.2275 11.6215 31.87 9.10855 31.4658 9.21105C31.0625 9.31397 30.1892 12.6473 30.4721 13.7623Z" fill="#5DADEC"/>
<circle cx="17.5" cy="9.5" r="7.5" fill="#5B6CFF"/>
<path d="M21.875 8.50889C21.875 8.37701 21.8445 8.25327 21.7935 8.1408C21.4532 7.00664 19.8601 7.08949 17.594 7.03417C17.2151 7.02499 17.4319 6.56278 17.5648 5.54818C17.6514 4.88829 17.2395 3.875 16.5472 3.875C15.4058 3.875 16.5038 4.80519 15.4946 7.10548C14.9554 8.33454 13.75 7.64608 13.75 8.88065V11.6909C13.75 12.1714 13.7957 12.6334 14.4499 12.7094C15.084 12.7831 14.9414 13.25 15.8562 13.25H20.4351C20.9016 13.25 21.2809 12.8578 21.2809 12.3759C21.2809 12.1761 21.2132 11.9942 21.1038 11.8469C21.3627 11.6972 21.5403 11.4145 21.5403 11.0868C21.5403 10.8876 21.4728 10.7056 21.3637 10.5585C21.6233 10.4091 21.8014 10.1262 21.8014 9.79799C21.8014 9.55967 21.708 9.34364 21.5575 9.18555C21.7496 9.02536 21.875 8.78312 21.875 8.50889Z" fill="#FFDB5E"/>
<path d="M19.0025 9.37585H21.1345C21.4245 9.37585 21.6965 9.21143 21.8447 8.94694C21.9057 8.83794 21.8717 8.69689 21.7686 8.63202C21.6658 8.56714 21.5327 8.60365 21.4715 8.71265C21.4014 8.83846 21.2718 8.91621 21.1343 8.91621H18.9512C18.7348 8.91621 18.5589 8.72972 18.5589 8.50043C18.5589 8.27113 18.7348 8.08464 18.9512 8.08464H20.41C20.5296 8.08464 20.6268 7.98168 20.6268 7.85482C20.6268 7.72796 20.5296 7.625 20.41 7.625H18.9509C18.4955 7.625 18.125 8.01767 18.125 8.50043C18.125 8.76965 18.2427 9.00787 18.4236 9.16862C18.2712 9.32752 18.1763 9.54815 18.1763 9.7919C18.1763 10.0619 18.2947 10.3009 18.4766 10.4614C18.3252 10.62 18.2313 10.8399 18.2313 11.0831C18.2313 11.3773 18.3698 11.6368 18.5805 11.7957C18.4506 11.9504 18.3693 12.1518 18.3693 12.3746C18.3693 12.8573 18.7398 13.25 19.1952 13.25H20.5542C20.8441 13.25 21.1164 13.0858 21.2646 12.8213C21.3258 12.7123 21.2919 12.5713 21.189 12.5064C21.086 12.4421 20.9529 12.4775 20.8919 12.5865C20.8213 12.7123 20.6917 12.7904 20.5542 12.7904H19.1952C18.9789 12.7904 18.803 12.6039 18.803 12.3746C18.803 12.1453 18.9789 11.9588 19.1952 11.9588H20.8074C21.0974 11.9588 21.3699 11.7944 21.5179 11.5299C21.5791 11.4206 21.5451 11.2796 21.4423 11.215C21.3385 11.149 21.2059 11.1861 21.1452 11.2951C21.0736 11.423 20.9472 11.4991 20.8074 11.4991H19.0572C18.8409 11.4991 18.665 11.3124 18.665 11.0831C18.665 10.8538 18.8409 10.6673 19.0572 10.6673H21.0622C21.3521 10.6673 21.6244 10.5032 21.7726 10.2387C21.8338 10.1297 21.7999 9.98862 21.697 9.92375C21.5937 9.85914 21.4609 9.89486 21.3999 10.0039C21.3283 10.1315 21.2019 10.2077 21.0622 10.2077H19.0025C18.7861 10.2077 18.6102 10.0212 18.6102 9.7919C18.6102 9.5626 18.7859 9.37585 19.0025 9.37585Z" fill="#EE9547"/>
<path d="M14.9521 6.93003C14.9521 4.65919 13.1112 2.81836 10.8408 2.81836C9.4625 2.81836 8.24625 3.49878 7.5 4.53878C6.75375 3.49878 5.5375 2.81836 4.15958 2.81836C1.88875 2.81836 0.0479126 4.65878 0.0479126 6.93003C0.0479126 7.25169 0.0887459 7.56336 0.158746 7.86378C0.729579 11.4109 4.67333 15.1529 7.5 16.1804C10.3262 15.1529 14.2704 11.4109 14.8404 7.86419C14.9112 7.56378 14.9521 7.25211 14.9521 6.93003Z" fill="#DD2E44"/>
</svg>
