<svg width="15" height="9" viewBox="0 0 15 9" fill="none" xmlns="http://www.w3.org/2000/svg">
<path d="M1.875 5.75L2.1875 5.79375L5.04375 2.9375C4.93125 2.53125 5.0375 2.06875 5.36875 1.74375C5.85625 1.25 6.64375 1.25 7.13125 1.74375C7.4625 2.06875 7.56875 2.53125 7.45625 2.9375L9.0625 4.54375L9.375 4.5C9.4875 4.5 9.59375 4.5 9.6875 4.54375L11.9187 2.3125C11.875 2.21875 11.875 2.1125 11.875 2C11.875 1.66848 12.0067 1.35054 12.2411 1.11612C12.4755 0.881696 12.7935 0.75 13.125 0.75C13.4565 0.75 13.7745 0.881696 14.0089 1.11612C14.2433 1.35054 14.375 1.66848 14.375 2C14.375 2.33152 14.2433 2.64946 14.0089 2.88388C13.7745 3.1183 13.4565 3.25 13.125 3.25C13.0125 3.25 12.9063 3.25 12.8125 3.20625L10.5813 5.4375C10.625 5.53125 10.625 5.6375 10.625 5.75C10.625 6.08152 10.4933 6.39946 10.2589 6.63388C10.0245 6.8683 9.70652 7 9.375 7C9.04348 7 8.72554 6.8683 8.49112 6.63388C8.2567 6.39946 8.125 6.08152 8.125 5.75L8.16875 5.4375L6.5625 3.83125C6.3625 3.875 6.1375 3.875 5.9375 3.83125L3.08125 6.6875L3.125 7C3.125 7.33152 2.9933 7.64946 2.75888 7.88388C2.52446 8.1183 2.20652 8.25 1.875 8.25C1.54348 8.25 1.22554 8.1183 0.991117 7.88388C0.756696 7.64946 0.625 7.33152 0.625 7C0.625 6.66848 0.756696 6.35054 0.991117 6.11612C1.22554 5.8817 1.54348 5.75 1.875 5.75V5.75Z" fill="#5B6CFF"/>
</svg>
