<svg width="115" height="115" viewBox="0 0 115 115" fill="none" xmlns="http://www.w3.org/2000/svg">
<g filter="url(#filter0_dd_3461_126561)">
<circle cx="55.5" cy="55.5005" r="47.5" fill="white"/>
</g>
<g filter="url(#filter1_d_3461_126561)">
<path d="M69.7159 48.8982L68.3636 53.5119H42.5909L43.9432 48.8982H69.7159ZM57.625 80.0005L43.0682 62.1823L42.9886 58.8414H50.2273C52.1098 58.8414 53.714 58.5762 55.0398 58.0459C56.3655 57.5024 57.3797 56.6937 58.0824 55.6198C58.785 54.5327 59.1364 53.1672 59.1364 51.5232C59.1364 49.0971 58.4072 47.1946 56.9489 45.8158C55.4905 44.4238 53.25 43.7278 50.2273 43.7278H42.5909L43.9432 39.2732H50.2273C53.4621 39.2732 56.1136 39.8101 58.1818 40.884C60.2633 41.9446 61.8011 43.4029 62.7955 45.259C63.803 47.1018 64.3068 49.1899 64.3068 51.5232C64.3068 53.6312 63.8428 55.5734 62.9148 57.3499C62 59.1132 60.5284 60.5317 58.5 61.6056C56.4848 62.6795 53.8201 63.2164 50.5057 63.2164H50.3864L63.8295 79.6823V80.0005H57.625ZM69.7159 39.2732L68.3636 43.8869L48.0795 43.7278L49.4318 39.2732H69.7159Z" fill="#023047"/>
</g>
<defs>
<filter id="filter0_dd_3461_126561" x="0" y="0.000488281" width="115" height="115" filterUnits="userSpaceOnUse" color-interpolation-filters="sRGB">
<feFlood flood-opacity="0" result="BackgroundImageFix"/>
<feColorMatrix in="SourceAlpha" type="matrix" values="0 0 0 0 0 0 0 0 0 0 0 0 0 0 0 0 0 0 127 0" result="hardAlpha"/>
<feOffset dx="4"/>
<feGaussianBlur stdDeviation="4"/>
<feComposite in2="hardAlpha" operator="out"/>
<feColorMatrix type="matrix" values="0 0 0 0 0.433333 0 0 0 0 0.558 0 0 0 0 1 0 0 0 0.25 0"/>
<feBlend mode="normal" in2="BackgroundImageFix" result="effect1_dropShadow_3461_126561"/>
<feColorMatrix in="SourceAlpha" type="matrix" values="0 0 0 0 0 0 0 0 0 0 0 0 0 0 0 0 0 0 127 0" result="hardAlpha"/>
<feOffset dy="4"/>
<feGaussianBlur stdDeviation="4"/>
<feComposite in2="hardAlpha" operator="out"/>
<feColorMatrix type="matrix" values="0 0 0 0 0.6 0 0 0 0 1 0 0 0 0 0.928 0 0 0 0.25 0"/>
<feBlend mode="normal" in2="effect1_dropShadow_3461_126561" result="effect2_dropShadow_3461_126561"/>
<feBlend mode="normal" in="SourceGraphic" in2="effect2_dropShadow_3461_126561" result="shape"/>
</filter>
<filter id="filter1_d_3461_126561" x="36.5909" y="29.2734" width="47.125" height="60.7271" filterUnits="userSpaceOnUse" color-interpolation-filters="sRGB">
<feFlood flood-opacity="0" result="BackgroundImageFix"/>
<feColorMatrix in="SourceAlpha" type="matrix" values="0 0 0 0 0 0 0 0 0 0 0 0 0 0 0 0 0 0 127 0" result="hardAlpha"/>
<feOffset dx="4"/>
<feGaussianBlur stdDeviation="5"/>
<feComposite in2="hardAlpha" operator="out"/>
<feColorMatrix type="matrix" values="0 0 0 0 0.775 0 0 0 0 0.775 0 0 0 0 0.775 0 0 0 0.25 0"/>
<feBlend mode="normal" in2="BackgroundImageFix" result="effect1_dropShadow_3461_126561"/>
<feBlend mode="normal" in="SourceGraphic" in2="effect1_dropShadow_3461_126561" result="shape"/>
</filter>
</defs>
</svg>
