<svg width="120" height="120" viewBox="0 0 120 120" fill="none" xmlns="http://www.w3.org/2000/svg">
<circle cx="60" cy="60" r="60" fill="#023047"/>
<path d="M74.8182 47.4545L73.2727 52.7273H43.8182L45.3636 47.4545H74.8182ZM61 83L44.3636 62.6364L44.2727 58.8182H52.5455C54.697 58.8182 56.5303 58.5152 58.0455 57.9091C59.5606 57.2879 60.7197 56.3636 61.5227 55.1364C62.3258 53.8939 62.7273 52.3333 62.7273 50.4545C62.7273 47.6818 61.8939 45.5076 60.2273 43.9318C58.5606 42.3409 56 41.5455 52.5455 41.5455H43.8182L45.3636 36.4545H52.5455C56.2424 36.4545 59.2727 37.0682 61.6364 38.2955C64.0152 39.5076 65.7727 41.1742 66.9091 43.2955C68.0606 45.4015 68.6364 47.7879 68.6364 50.4545C68.6364 52.8636 68.1061 55.0833 67.0455 57.1136C66 59.1288 64.3182 60.75 62 61.9773C59.697 63.2045 56.6515 63.8182 52.8636 63.8182H52.7273L68.0909 82.6364V83H61ZM74.8182 36.4545L73.2727 41.7273L50.0909 41.5455L51.6364 36.4545H74.8182Z" fill="white"/>
</svg>
