<svg width="18" height="17" viewBox="0 0 18 17" fill="none" xmlns="http://www.w3.org/2000/svg">
<path d="M13.4162 5.66699C14.5898 5.66699 15.5412 4.7156 15.5412 3.54199C15.5412 2.36839 14.5898 1.41699 13.4162 1.41699C12.2426 1.41699 11.2912 2.36839 11.2912 3.54199C11.2912 4.7156 12.2426 5.66699 13.4162 5.66699Z" stroke="black" stroke-linecap="round" stroke-linejoin="round"/>
<path d="M4.91682 10.625C6.09043 10.625 7.04183 9.67361 7.04183 8.5C7.04183 7.3264 6.09043 6.375 4.91682 6.375C3.74322 6.375 2.79182 7.3264 2.79182 8.5C2.79182 9.67361 3.74322 10.625 4.91682 10.625Z" stroke="black" stroke-linecap="round" stroke-linejoin="round"/>
<path d="M13.4162 15.583C14.5898 15.583 15.5412 14.6316 15.5412 13.458C15.5412 12.2844 14.5898 11.333 13.4162 11.333C12.2426 11.333 11.2912 12.2844 11.2912 13.458C11.2912 14.6316 12.2426 15.583 13.4162 15.583Z" stroke="black" stroke-linecap="round" stroke-linejoin="round"/>
<path d="M6.75098 9.56836L11.5889 12.3875" stroke="black" stroke-linecap="round" stroke-linejoin="round"/>
<path d="M11.5818 4.61035L6.75098 7.42952" stroke="black" stroke-linecap="round" stroke-linejoin="round"/>
</svg>
