<svg width="22" height="22" viewBox="0 0 22 22" fill="none" xmlns="http://www.w3.org/2000/svg">
<path d="M8.24998 20.1667C8.75624 20.1667 9.16665 19.7563 9.16665 19.25C9.16665 18.7438 8.75624 18.3334 8.24998 18.3334C7.74372 18.3334 7.33331 18.7438 7.33331 19.25C7.33331 19.7563 7.74372 20.1667 8.24998 20.1667Z" stroke="white" stroke-width="1.5" stroke-linecap="round" stroke-linejoin="round"/>
<path d="M18.3334 20.1667C18.8396 20.1667 19.25 19.7563 19.25 19.25C19.25 18.7438 18.8396 18.3334 18.3334 18.3334C17.8271 18.3334 17.4167 18.7438 17.4167 19.25C17.4167 19.7563 17.8271 20.1667 18.3334 20.1667Z" stroke="white" stroke-width="1.5" stroke-linecap="round" stroke-linejoin="round"/>
<path d="M0.916687 0.916626H4.58335L7.04002 13.1908C7.12384 13.6128 7.35344 13.9919 7.6886 14.2617C8.02377 14.5315 8.44316 14.6749 8.87335 14.6666H17.7834C18.2135 14.6749 18.6329 14.5315 18.9681 14.2617C19.3033 13.9919 19.5329 13.6128 19.6167 13.1908L21.0834 5.49996H5.50002" stroke="white" stroke-width="1.5" stroke-linecap="round" stroke-linejoin="round"/>
</svg>
