<svg width="30" height="20" viewBox="0 0 30 20" fill="none" xmlns="http://www.w3.org/2000/svg">
<rect y="3" width="30" height="14" rx="2" fill="#0D9F36"/>
<path d="M7.00534 6C6.85595 6 6.70656 6.08066 6.62925 6.24336L5.77356 8.05352L3.85906 8.34336C3.51573 8.39531 3.37814 8.83691 3.62712 9.08984L5.01221 10.498L4.68461 12.4873C4.62564 12.8441 4.986 13.1162 5.29264 12.948L7.00534 12.0102V6Z" fill="white"/>
<path d="M6.98294 6C7.13233 6 7.28172 6.08066 7.35903 6.24336L8.21472 8.05352L10.1292 8.34336C10.4726 8.39531 10.6101 8.83691 10.3612 9.08984L8.97607 10.498L9.30367 12.4873C9.36264 12.8441 9.00228 13.1162 8.69564 12.948L6.98294 12.0102V6Z" fill="white"/>
<path d="M11.9922 11.7216V10.9226L14.8207 6.45455H15.4503V7.63068H15.0508L13.0277 10.8331V10.8842H16.9045V11.7216H11.9922ZM15.0955 13V11.4787L15.1019 11.1143V6.45455H16.0384V13H15.0955ZM18.4146 13.0607C18.2399 13.0607 18.0897 12.9989 17.964 12.8754C17.8382 12.7496 17.7754 12.5984 17.7754 12.4215C17.7754 12.2468 17.8382 12.0977 17.964 11.9741C18.0897 11.8484 18.2399 11.7855 18.4146 11.7855C18.5893 11.7855 18.7395 11.8484 18.8652 11.9741C18.9909 12.0977 19.0538 12.2468 19.0538 12.4215C19.0538 12.5387 19.024 12.6463 18.9643 12.7443C18.9068 12.8402 18.8301 12.9169 18.7342 12.9744C18.6383 13.032 18.5318 13.0607 18.4146 13.0607ZM22.3761 13.0895C21.9755 13.0895 21.6154 13.0128 21.2958 12.8594C20.9783 12.7038 20.7248 12.4908 20.5352 12.2202C20.3455 11.9496 20.2443 11.6406 20.2315 11.2933H21.1903C21.2138 11.5746 21.3384 11.8058 21.5643 11.9869C21.7901 12.168 22.0607 12.2585 22.3761 12.2585C22.6275 12.2585 22.8501 12.201 23.044 12.0859C23.2401 11.9688 23.3935 11.8079 23.5043 11.6033C23.6172 11.3988 23.6737 11.1655 23.6737 10.9034C23.6737 10.6371 23.6161 10.3995 23.5011 10.1907C23.386 9.98189 23.2273 9.81783 23.0249 9.69851C22.8246 9.57919 22.5945 9.51847 22.3345 9.51634C22.1364 9.51634 21.9371 9.55043 21.7369 9.61861C21.5366 9.68679 21.3746 9.77628 21.2511 9.88707L20.3466 9.75284L20.7141 6.45455H24.3129V7.30149H21.5355L21.3278 9.13281H21.3661C21.494 9.00923 21.6634 8.90589 21.8743 8.8228C22.0874 8.7397 22.3153 8.69815 22.5582 8.69815C22.9567 8.69815 23.3114 8.79297 23.6225 8.9826C23.9357 9.17223 24.1818 9.43111 24.3608 9.75923C24.5419 10.0852 24.6314 10.4602 24.6293 10.8842C24.6314 11.3082 24.5355 11.6864 24.3416 12.0188C24.1499 12.3512 23.8835 12.6133 23.5426 12.805C23.2038 12.9947 22.815 13.0895 22.3761 13.0895Z" fill="white"/>
</svg>
