<svg width="125" height="40" viewBox="0 0 125 40" fill="none" xmlns="http://www.w3.org/2000/svg">
<rect width="125" height="40" rx="5" fill="#4474DD"/>
<rect x="55" width="70" height="40" rx="5" fill="#5389FF"/>
<path d="M73.4439 14.3636H74.853V22.0682C74.853 22.8636 74.6655 23.5739 74.2905 24.1989C73.9193 24.8201 73.3947 25.3106 72.7166 25.6705C72.0386 26.0265 71.2431 26.2045 70.3303 26.2045C69.4174 26.2045 68.6219 26.0265 67.9439 25.6705C67.2659 25.3106 66.7393 24.8201 66.3643 24.1989C65.9931 23.5739 65.8075 22.8636 65.8075 22.0682V14.3636H67.2166V21.9545C67.2166 22.5227 67.3416 23.0284 67.5916 23.4716C67.8416 23.911 68.1977 24.2576 68.6598 24.5114C69.1257 24.7614 69.6825 24.8864 70.3303 24.8864C70.978 24.8864 71.5348 24.7614 72.0007 24.5114C72.4666 24.2576 72.8227 23.911 73.0689 23.4716C73.3189 23.0284 73.4439 22.5227 73.4439 21.9545V14.3636ZM78.826 20.75V26H77.4851V17.2727H78.7805V18.6364H78.8942C79.0987 18.1932 79.4093 17.8371 79.826 17.5682C80.2427 17.2955 80.7805 17.1591 81.4396 17.1591C82.0305 17.1591 82.5476 17.2803 82.9908 17.5227C83.4339 17.7614 83.7786 18.125 84.0249 18.6136C84.2711 19.0985 84.3942 19.7121 84.3942 20.4545V26H83.0533V20.5455C83.0533 19.8598 82.8752 19.3258 82.5192 18.9432C82.1631 18.5568 81.6745 18.3636 81.0533 18.3636C80.6252 18.3636 80.2427 18.4564 79.9055 18.642C79.5722 18.8277 79.3089 19.0985 79.1158 19.4545C78.9226 19.8106 78.826 20.2424 78.826 20.75ZM88.1854 14.3636V26H86.8445V14.3636H88.1854ZM94.1868 26.1818C93.3989 26.1818 92.7076 25.9943 92.1129 25.6193C91.522 25.2443 91.0599 24.7197 90.7266 24.0455C90.397 23.3712 90.2322 22.5833 90.2322 21.6818C90.2322 20.7727 90.397 19.9792 90.7266 19.3011C91.0599 18.6231 91.522 18.0966 92.1129 17.7216C92.7076 17.3466 93.3989 17.1591 94.1868 17.1591C94.9747 17.1591 95.6641 17.3466 96.255 17.7216C96.8497 18.0966 97.3118 18.6231 97.6413 19.3011C97.9747 19.9792 98.1413 20.7727 98.1413 21.6818C98.1413 22.5833 97.9747 23.3712 97.6413 24.0455C97.3118 24.7197 96.8497 25.2443 96.255 25.6193C95.6641 25.9943 94.9747 26.1818 94.1868 26.1818ZM94.1868 24.9773C94.7853 24.9773 95.2777 24.8239 95.6641 24.517C96.0504 24.2102 96.3364 23.8068 96.522 23.3068C96.7076 22.8068 96.8004 22.2652 96.8004 21.6818C96.8004 21.0985 96.7076 20.5549 96.522 20.0511C96.3364 19.5473 96.0504 19.1402 95.6641 18.8295C95.2777 18.5189 94.7853 18.3636 94.1868 18.3636C93.5883 18.3636 93.0959 18.5189 92.7095 18.8295C92.3232 19.1402 92.0372 19.5473 91.8516 20.0511C91.666 20.5549 91.5732 21.0985 91.5732 21.6818C91.5732 22.2652 91.666 22.8068 91.8516 23.3068C92.0372 23.8068 92.3232 24.2102 92.7095 24.517C93.0959 24.8239 93.5883 24.9773 94.1868 24.9773ZM103.734 26.1818C102.915 26.1818 102.211 25.9886 101.62 25.6023C101.029 25.2159 100.575 24.6837 100.256 24.0057C99.9382 23.3277 99.7791 22.553 99.7791 21.6818C99.7791 20.7955 99.942 20.0133 100.268 19.3352C100.597 18.6534 101.056 18.1212 101.643 17.7386C102.234 17.3523 102.923 17.1591 103.711 17.1591C104.325 17.1591 104.878 17.2727 105.37 17.5C105.862 17.7273 106.266 18.0455 106.58 18.4545C106.895 18.8636 107.09 19.3409 107.165 19.8864H105.825C105.722 19.4886 105.495 19.1364 105.143 18.8295C104.794 18.5189 104.325 18.3636 103.734 18.3636C103.211 18.3636 102.753 18.5 102.359 18.7727C101.969 19.0417 101.664 19.4223 101.444 19.9148C101.228 20.4034 101.12 20.9773 101.12 21.6364C101.12 22.3106 101.226 22.8977 101.438 23.3977C101.654 23.8977 101.957 24.286 102.347 24.5625C102.741 24.839 103.203 24.9773 103.734 24.9773C104.082 24.9773 104.398 24.9167 104.683 24.7955C104.967 24.6742 105.207 24.5 105.404 24.2727C105.601 24.0455 105.741 23.7727 105.825 23.4545H107.165C107.09 23.9697 106.902 24.4337 106.603 24.8466C106.308 25.2557 105.915 25.5814 105.427 25.8239C104.942 26.0625 104.378 26.1818 103.734 26.1818ZM110.376 22.8182L110.353 21.1591H110.626L114.444 17.2727H116.103L112.035 21.3864H111.921L110.376 22.8182ZM109.126 26V14.3636H110.467V26H109.126ZM114.671 26L111.262 21.6818L112.217 20.75L116.376 26H114.671Z" fill="white"/>
<path d="M19.4815 17.1591L19.0838 18.5625H11.6349L12.0327 17.1591H19.4815ZM15.8565 26L11.7884 21.0625L11.777 19.9545H13.794C14.2978 19.9545 14.724 19.8769 15.0724 19.7216C15.4209 19.5663 15.6861 19.3409 15.8679 19.0455C16.0497 18.7462 16.1406 18.3826 16.1406 17.9545C16.1406 17.3182 15.9512 16.8125 15.5724 16.4375C15.1937 16.0625 14.6009 15.875 13.794 15.875H11.6349L12.0497 14.3636H13.794C14.7334 14.3636 15.508 14.5133 16.1179 14.8125C16.7277 15.1117 17.1823 15.5265 17.4815 16.0568C17.7808 16.5871 17.9304 17.1989 17.9304 17.892C17.9304 18.5095 17.8073 19.0682 17.5611 19.5682C17.3149 20.0682 16.9228 20.4754 16.3849 20.7898C15.8471 21.1042 15.1406 21.2879 14.2656 21.3409L14.2145 21.3523L17.9304 25.9034V26H15.8565ZM19.4872 14.3636L19.0838 15.7784L13.1293 15.7443L13.5327 14.3636H19.4872ZM25.4872 14.3636V26H23.7259V16.125H23.6577L20.8736 17.9432V16.2614L23.777 14.3636H25.4872ZM32.5043 14.2045C33.0232 14.2083 33.5346 14.303 34.0384 14.4886C34.5421 14.6742 34.9967 14.9773 35.402 15.3977C35.8111 15.8182 36.1368 16.3864 36.3793 17.1023C36.6255 17.8144 36.7505 18.7008 36.7543 19.7614C36.7543 20.7803 36.652 21.6875 36.4474 22.483C36.2429 23.2746 35.9493 23.9432 35.5668 24.4886C35.188 25.0341 34.7277 25.4489 34.1861 25.733C33.6444 26.017 33.0346 26.1591 32.3565 26.1591C31.6634 26.1591 31.0478 26.0227 30.5099 25.75C29.9721 25.4773 29.5346 25.1004 29.1974 24.6193C28.8603 24.1345 28.6501 23.5777 28.5668 22.9489H30.2997C30.4134 23.4489 30.6444 23.8542 30.9929 24.1648C31.3452 24.4716 31.7997 24.625 32.3565 24.625C33.2088 24.625 33.8736 24.2538 34.3509 23.5114C34.8281 22.7652 35.0687 21.7235 35.0724 20.3864H34.9815C34.7846 20.7121 34.5384 20.9924 34.2429 21.2273C33.9512 21.4621 33.6236 21.6439 33.2599 21.7727C32.8963 21.9015 32.508 21.9659 32.0952 21.9659C31.4247 21.9659 30.8149 21.8011 30.2656 21.4716C29.7164 21.142 29.2789 20.6894 28.9531 20.1136C28.6274 19.5379 28.4645 18.8807 28.4645 18.142C28.4645 17.4072 28.6312 16.7405 28.9645 16.142C29.3016 15.5436 29.7713 15.0701 30.3736 14.7216C30.9796 14.3693 31.6899 14.197 32.5043 14.2045ZM32.5099 15.6818C32.0668 15.6818 31.6671 15.7917 31.3111 16.0114C30.9588 16.2273 30.6804 16.5208 30.4759 16.892C30.2713 17.2595 30.169 17.6686 30.169 18.1193C30.169 18.5701 30.2675 18.9792 30.4645 19.3466C30.6652 19.7102 30.938 20 31.2827 20.2159C31.6312 20.428 32.0289 20.5341 32.4759 20.5341C32.8092 20.5341 33.1198 20.4697 33.4077 20.3409C33.6955 20.2121 33.9474 20.0341 34.1634 19.8068C34.3793 19.5758 34.5478 19.3144 34.669 19.0227C34.7902 18.7311 34.8509 18.4242 34.8509 18.1023C34.8509 17.6742 34.7486 17.2765 34.544 16.9091C34.3433 16.5417 34.0668 16.2462 33.7145 16.0227C33.3622 15.7955 32.9607 15.6818 32.5099 15.6818ZM42.6761 14.2045C43.1951 14.2083 43.7064 14.303 44.2102 14.4886C44.714 14.6742 45.1686 14.9773 45.5739 15.3977C45.983 15.8182 46.3087 16.3864 46.5511 17.1023C46.7973 17.8144 46.9223 18.7008 46.9261 19.7614C46.9261 20.7803 46.8239 21.6875 46.6193 22.483C46.4148 23.2746 46.1212 23.9432 45.7386 24.4886C45.3598 25.0341 44.8996 25.4489 44.358 25.733C43.8163 26.017 43.2064 26.1591 42.5284 26.1591C41.8352 26.1591 41.2197 26.0227 40.6818 25.75C40.1439 25.4773 39.7064 25.1004 39.3693 24.6193C39.0322 24.1345 38.822 23.5777 38.7386 22.9489H40.4716C40.5852 23.4489 40.8163 23.8542 41.1648 24.1648C41.517 24.4716 41.9716 24.625 42.5284 24.625C43.3807 24.625 44.0455 24.2538 44.5227 23.5114C45 22.7652 45.2405 21.7235 45.2443 20.3864H45.1534C44.9564 20.7121 44.7102 20.9924 44.4148 21.2273C44.1231 21.4621 43.7955 21.6439 43.4318 21.7727C43.0682 21.9015 42.6799 21.9659 42.267 21.9659C41.5966 21.9659 40.9867 21.8011 40.4375 21.4716C39.8883 21.142 39.4508 20.6894 39.125 20.1136C38.7992 19.5379 38.6364 18.8807 38.6364 18.142C38.6364 17.4072 38.803 16.7405 39.1364 16.142C39.4735 15.5436 39.9432 15.0701 40.5455 14.7216C41.1515 14.3693 41.8617 14.197 42.6761 14.2045ZM42.6818 15.6818C42.2386 15.6818 41.839 15.7917 41.483 16.0114C41.1307 16.2273 40.8523 16.5208 40.6477 16.892C40.4432 17.2595 40.3409 17.6686 40.3409 18.1193C40.3409 18.5701 40.4394 18.9792 40.6364 19.3466C40.8371 19.7102 41.1098 20 41.4545 20.2159C41.803 20.428 42.2008 20.5341 42.6477 20.5341C42.9811 20.5341 43.2917 20.4697 43.5795 20.3409C43.8674 20.2121 44.1193 20.0341 44.3352 19.8068C44.5511 19.5758 44.7197 19.3144 44.8409 19.0227C44.9621 18.7311 45.0227 18.4242 45.0227 18.1023C45.0227 17.6742 44.9205 17.2765 44.7159 16.9091C44.5152 16.5417 44.2386 16.2462 43.8864 16.0227C43.5341 15.7955 43.1326 15.6818 42.6818 15.6818Z" fill="white"/>
</svg>
