<svg width="15" height="12" viewBox="0 0 15 12" fill="none" xmlns="http://www.w3.org/2000/svg">
<path d="M13.125 4C12.1875 4 11.6875 4.875 11.9375 5.5625L9.6875 7.8125C9.5 7.75 9.25 7.75 9.0625 7.8125L7.4375 6.1875C7.6875 5.5 7.1875 4.625 6.25 4.625C5.375 4.625 4.8125 5.5 5.0625 6.1875L2.1875 9C1.5 8.8125 0.625 9.3125 0.625 10.25C0.625 10.9375 1.1875 11.5 1.875 11.5C2.75 11.5 3.3125 10.625 3.0625 9.9375L5.875 7.0625C6.0625 7.125 6.3125 7.125 6.5 7.0625L8.125 8.6875C7.9375 9.3125 8.4375 10.25 9.375 10.25C10.3125 10.25 10.8125 9.375 10.5625 8.6875L12.8125 6.4375C13.5 6.625 14.375 6.125 14.375 5.25C14.375 4.5625 13.8125 4 13.125 4ZM9.375 4.625L9.9375 3.3125L11.25 2.75L9.9375 2.1875L9.375 0.875L8.8125 2.1875L7.5 2.75L8.8125 3.3125L9.375 4.625ZM2.1875 5.875L2.5 4.625L3.75 4.3125L2.5 4L2.1875 2.75L1.875 4L0.625 4.3125L1.875 4.625L2.1875 5.875Z" fill="#5B6CFF"/>
</svg>
